Andika-Italic.ufo
<glyph name="LtnCapZ" format="2">
  <advance width="1210"/>
  <unicode hex="005A"/>
  <anchor x="570" y="-100" name="L"/>
  <anchor x="927" y="1530" name="U"/>
  <outline>
    <contour>
      <point x="1411" y="1431" type="line"/>
      <point x="401" y="1431" type="line"/>
      <point x="356" y="1250" type="line"/>
      <point x="440" y="1266"/>
      <point x="559" y="1269"/>
      <point x="756" y="1269" type="curve" smooth="yes"/>
      <point x="1116" y="1269" type="line"/>
      <point x="35" y="123" type="line"/>
      <point x="5" y="0" type="line"/>
      <point x="1105" y="0" type="line"/>
      <point x="1150" y="181" type="line"/>
      <point x="1066" y="168"/>
      <point x="906" y="162"/>
      <point x="710" y="162" type="curve" smooth="yes"/>
      <point x="300" y="162" type="line"/>
      <point x="1379" y="1303" type="line"/>
    </contour>
  </outline>
</glyph>
<glyph name="ReverseSolidus" format="2">
  <advance width="1005"/>
  <unicode hex="005C"/>
  <outline>
    <contour>
      <point x="471" y="1568" type="line"/>
      <point x="669" y="-243" type="line"/>
      <point x="815" y="-243" type="line"/>
      <point x="620" y="1568" type="line"/>
    </contour>
  </outline>
</glyph>
<glyph name="LtnSmG.SngBowl" format="2">
  <advance width="1109"/>
  <unicode hex="0067"/>
  <anchor x="415" y="-432" name="H"/>
  <anchor x="400" y="-500" name="L"/>
  <anchor x="1315" y="1000" name="R"/>
  <anchor x="810" y="1100" name="U"/>
  <outline>
    <contour>
      <point x="1167" y="945" type="line"/>
      <point x="1067" y="980"/>
      <point x="945" y="1020"/>
      <point x="824" y="1020" type="curve" smooth="yes"/>
      <point x="672" y="1020"/>
      <point x="535" y="967"/>
      <point x="424" y="875" type="curve" smooth="yes"/>
      <point x="245" y="726"/>
      <point x="134" y="490"/>
      <point x="134" y="275" type="curve" smooth="yes"/>
      <point x="134" y="81"/>
      <point x="256" y="-5"/>
      <point x="390" y="-5" type="curve" smooth="yes"/>
      <point x="520" y="-5"/>
      <point x="695" y="119"/>
      <point x="837" y="300" type="curve"/>
      <point x="764" y="-10" type="line" smooth="yes"/>
      <point x="719" y="-200"/>
      <point x="528" y="-295"/>
      <point x="424" y="-295" type="curve" smooth="yes"/>
      <point x="325" y="-295"/>
      <point x="236" y="-257"/>
      <point x="159" y="-190" type="curve"/>
      <point x="59" y="-345" type="line"/>
      <point x="147" y="-416"/>
      <point x="267" y="-465"/>
      <point x="394" y="-465" type="curve" smooth="yes"/>
      <point x="616" y="-465"/>
      <point x="881" y="-322"/>
      <point x="959" y="25" type="curve" smooth="yes"/>
    </contour>
    <contour>
      <point x="892" y="555" type="line"/>
      <point x="792" y="367"/>
      <point x="530" y="150"/>
      <point x="444" y="150" type="curve" smooth="yes"/>
      <point x="375" y="150"/>
      <point x="329" y="208"/>
      <point x="329" y="315" type="curve" smooth="yes"/>
      <point x="329" y="467"/>
      <point x="390" y="643"/>
      <point x="504" y="750" type="curve" smooth="yes"/>
      <point x="570" y="812"/>
      <point x="652" y="855"/>
      <point x="749" y="855" type="curve" smooth="yes"/>
      <point x="810" y="855"/>
      <point x="897" y="839"/>
      <point x="954" y="815" type="curve"/>
    </contour>
  </outline>
</glyph>
<glyph name="LtnSmZ" format="2">
  <advance width="967"/>
  <unicode hex="007A"/>
  <anchor x="465" y="0" name="H"/>
  <anchor x="440" y="-100" name="L"/>
  <anchor x="665" y="1100" name="U"/>
  <outline>
    <contour>
      <point x="272" y="1000" type="line"/>
      <point x="231" y="828" type="line"/>
      <point x="272" y="843"/>
      <point x="351" y="853"/>
      <point x="410" y="853" type="curve" smooth="yes"/>
      <point x="800" y="853" type="line"/>
      <point x="25" y="47" type="line"/>
      <point x="84" y="-25" type="line"/>
      <point x="154" y="45"/>
      <point x="233" y="75"/>
      <point x="302" y="75" type="curve" smooth="yes"/>
      <point x="440" y="75"/>
      <point x="598" y="-25"/>
      <point x="739" y="-25" type="curve" smooth="yes"/>
      <point x="797" y="-25"/>
      <point x="855" y="-15"/>
      <point x="893" y="0" type="curve"/>
      <point x="934" y="172" type="line"/>
      <point x="897" y="153"/>
      <point x="840" y="142"/>
      <point x="782" y="142" type="curve" smooth="yes"/>
      <point x="673" y="142"/>
      <point x="537" y="214"/>
      <point x="433" y="214" type="curve" smooth="yes"/>
      <point x="408" y="214"/>
      <point x="385" y="211"/>
      <point x="362" y="203" type="curve"/>
      <point x="1044" y="907" type="line"/>
      <point x="1067" y="1000" type="line"/>
    </contour>
  </outline>
</glyph>
<glyph name="InvExclamationMrk" format="2">
  <advance width="744"/>
  <unicode hex="00A1"/>
  <outline>
    <contour>
      <point x="379" y="647" type="line"/>
      <point x="301" y="363"/>
      <point x="216" y="24"/>
      <point x="72" y="-402" type="curve"/>
      <point x="327" y="-402" type="line"/>
      <point x="394" y="24"/>
      <point x="479" y="363"/>
      <point x="544" y="647" type="curve"/>
    </contour>
    <contour>
      <point x="674" y="977" type="curve" smooth="yes"/>
      <point x="674" y="1039"/>
      <point x="624" y="1091"/>
      <point x="560" y="1091" type="curve" smooth="yes"/>
      <point x="475" y="1091"/>
      <point x="400" y="1021"/>
      <point x="400" y="941" type="curve" smooth="yes"/>
      <point x="400" y="880"/>
      <point x="450" y="828"/>
      <point x="514" y="828" type="curve" smooth="yes"/>
      <point x="598" y="828"/>
      <point x="674" y="897"/>
    </contour>
  </outline>
</glyph>
<glyph name="BrokenBar" format="2">
  <advance width="1004"/>
  <unicode hex="00A6"/>
  <outline>
    <contour>
      <point x="488" y="436" type="line"/>
      <point x="284" y="-382" type="line"/>
      <point x="434" y="-382" type="line"/>
      <point x="638" y="436" type="line"/>
    </contour>
    <contour>
      <point x="719" y="760" type="line"/>
      <point x="920" y="1568" type="line"/>
      <point x="770" y="1568" type="line"/>
      <point x="569" y="760" type="line"/>
    </contour>
  </outline>
</glyph>
<glyph name="SectionSgn" format="2">
  <advance width="1004"/>
  <unicode hex="00A7"/>
  <outline>
    <contour>
      <point x="1118" y="1377" type="line"/>
      <point x="1058" y="1414"/>
      <point x="942" y="1455"/>
      <point x="797" y="1455" type="curve" smooth="yes"/>
      <point x="504" y="1455"/>
      <point x="342" y="1300"/>
      <point x="342" y="1106" type="curve" smooth="yes"/>
      <point x="342" y="997"/>
      <point x="428" y="876"/>
      <point x="577" y="760" type="curve" smooth="yes"/>
      <point x="712" y="655"/>
      <point x="762" y="582"/>
      <point x="762" y="511" type="curve" smooth="yes"/>
      <point x="762" y="383"/>
      <point x="626" y="304"/>
      <point x="515" y="304" type="curve"/>
      <point x="471" y="147" type="line"/>
      <point x="713" y="147"/>
      <point x="955" y="301"/>
      <point x="955" y="546" type="curve" smooth="yes"/>
      <point x="955" y="661"/>
      <point x="880" y="749"/>
      <point x="768" y="854" type="curve" smooth="yes"/>
      <point x="642" y="972"/>
      <point x="535" y="1049"/>
      <point x="535" y="1134" type="curve" smooth="yes"/>
      <point x="535" y="1251"/>
      <point x="675" y="1299"/>
      <point x="768" y="1299" type="curve" smooth="yes"/>
      <point x="892" y="1299"/>
      <point x="983" y="1244"/>
      <point x="1040" y="1205" type="curve"/>
    </contour>
    <contour>
      <point x="-37" y="-348" type="line"/>
      <point x="27" y="-409"/>
      <point x="178" y="-461"/>
      <point x="340" y="-461" type="curve" smooth="yes"/>
      <point x="569" y="-461"/>
      <point x="795" y="-327"/>
      <point x="795" y="-94" type="curve" smooth="yes"/>
      <point x="795" y="32"/>
      <point x="716" y="167"/>
      <point x="580" y="273" type="curve" smooth="yes"/>
      <point x="439" y="383"/>
      <point x="384" y="450"/>
      <point x="384" y="521" type="curve" smooth="yes"/>
      <point x="384" y="652"/>
      <point x="517" y="720"/>
      <point x="629" y="720" type="curve"/>
      <point x="673" y="877" type="line"/>
      <point x="394" y="877"/>
      <point x="197" y="725"/>
      <point x="197" y="494" type="curve" smooth="yes"/>
      <point x="197" y="368"/>
      <point x="266" y="265"/>
      <point x="386" y="167" type="curve" smooth="yes"/>
      <point x="514" y="62"/>
      <point x="605" y="-26"/>
      <point x="605" y="-116" type="curve" smooth="yes"/>
      <point x="605" y="-238"/>
      <point x="467" y="-304"/>
      <point x="364" y="-304" type="curve" smooth="yes"/>
      <point x="258" y="-304"/>
      <point x="127" y="-251"/>
      <point x="57" y="-172" type="curve"/>
    </contour>
  </outline>
</glyph>
<glyph name="LftPtngDblAngQuotMrk" format="2">
  <advance width="1280"/>
  <unicode hex="00AB"/>
  <outline>
    <contour>
      <point x="635" y="0" type="line"/>
      <point x="370" y="502" type="line"/>
      <point x="884" y="1000" type="line"/>
      <point x="679" y="1000" type="line"/>
      <point x="140" y="502" type="line"/>
      <point x="463" y="0" type="line"/>
    </contour>
    <contour>
      <point x="1125" y="0" type="line"/>
      <point x="860" y="502" type="line"/>
      <point x="1374" y="1000" type="line"/>
      <point x="1169" y="1000" type="line"/>
      <point x="630" y="502" type="line"/>
      <point x="953" y="0" type="line"/>
    </contour>
  </outline>
</glyph>
<glyph name="RegisteredSgn" format="2">
  <advance width="1634"/>
  <unicode hex="00AE"/>
  <outline>
    <contour>
      <point x="1104" y="1455" type="curve" smooth="yes"/>
      <point x="746" y="1455"/>
      <point x="356" y="1235"/>
      <point x="235" y="745" type="curve" smooth="yes"/>
      <point x="218" y="676"/>
      <point x="210" y="610"/>
      <point x="210" y="547" type="curve" smooth="yes"/>
      <point x="210" y="217"/>
      <point x="430" y="-25"/>
      <point x="775" y="-25" type="curve" smooth="yes"/>
      <point x="1123" y="-25"/>
      <point x="1526" y="186"/>
      <point x="1650" y="685" type="curve" smooth="yes"/>
      <point x="1666" y="750"/>
      <point x="1674" y="812"/>
      <point x="1674" y="872" type="curve" smooth="yes"/>
      <point x="1674" y="1205"/>
      <point x="1439" y="1455"/>
    </contour>
    <contour>
      <point x="1075" y="1338" type="curve" smooth="yes"/>
      <point x="1328" y="1338"/>
      <point x="1548" y="1169"/>
      <point x="1548" y="870" type="curve" smooth="yes"/>
      <point x="1548" y="816"/>
      <point x="1540" y="757"/>
      <point x="1525" y="695" type="curve" smooth="yes"/>
      <point x="1424" y="289"/>
      <point x="1104" y="93"/>
      <point x="805" y="93" type="curve" smooth="yes"/>
      <point x="552" y="93"/>
      <point x="337" y="261"/>
      <point x="337" y="558" type="curve" smooth="yes"/>
      <point x="337" y="613"/>
      <point x="344" y="672"/>
      <point x="360" y="735" type="curve" smooth="yes"/>
      <point x="461" y="1142"/>
      <point x="776" y="1338"/>
    </contour>
    <contour>
      <point x="755" y="655" type="line"/>
      <point x="879" y="655" type="line"/>
      <point x="1047" y="284" type="line"/>
      <point x="1202" y="284" type="line"/>
      <point x="1177" y="321"/>
      <point x="1048" y="575"/>
      <point x="1003" y="666" type="curve"/>
      <point x="1108" y="692"/>
      <point x="1232" y="752"/>
      <point x="1268" y="897" type="curve" smooth="yes"/>
      <point x="1274" y="920"/>
      <point x="1277" y="943"/>
      <point x="1277" y="963" type="curve" smooth="yes"/>
      <point x="1277" y="1091"/>
      <point x="1165" y="1156"/>
      <point x="1000" y="1156" type="curve" smooth="yes"/>
      <point x="851" y="1156"/>
      <point x="747" y="1147"/>
      <point x="747" y="1147" type="curve"/>
      <point x="743" y="1097"/>
      <point x="720" y="1003"/>
      <point x="689" y="880" type="curve" smooth="yes"/>
      <point x="603" y="537" type="line" smooth="yes"/>
      <point x="573" y="415"/>
      <point x="553" y="334"/>
      <point x="532" y="284" type="curve"/>
      <point x="672" y="284" type="line"/>
      <point x="676" y="333"/>
      <point x="694" y="415"/>
      <point x="725" y="537" type="curve" smooth="yes"/>
    </contour>
    <contour>
      <point x="854" y="1051" type="line"/>
      <point x="888" y="1053"/>
      <point x="925" y="1054"/>
      <point x="969" y="1054" type="curve" smooth="yes"/>
      <point x="1092" y="1054"/>
      <point x="1146" y="1006"/>
      <point x="1146" y="933" type="curve" smooth="yes"/>
      <point x="1146" y="919"/>
      <point x="1144" y="903"/>
      <point x="1140" y="887" type="curve" smooth="yes"/>
      <point x="1117" y="794"/>
      <point x="1029" y="752"/>
      <point x="894" y="752" type="curve" smooth="yes"/>
      <point x="779" y="752" type="line"/>
    </contour>
  </outline>
</glyph>
<glyph name="Macron" format="2">
  <advance width="690"/>
  <unicode hex="00AF"/>
  <outline>
    <contour>
      <point x="242" y="1215" type="line"/>
      <point x="952" y="1215" type="line"/>
      <point x="989" y="1362" type="line"/>
      <point x="279" y="1362" type="line"/>
    </contour>
  </outline>
</glyph>
<glyph name="SupTwo" format="2">
  <advance width="826"/>
  <unicode hex="00B2"/>
  <anchor x="500" y="615" name="L"/>
  <anchor x="738" y="1674" name="U"/>
  <outline>
    <contour>
      <point x="884" y="794" type="line"/>
      <point x="826" y="786"/>
      <point x="715" y="785"/>
      <point x="578" y="785" type="curve" smooth="yes"/>
      <point x="399" y="785" type="line"/>
      <point x="688" y="935"/>
      <point x="987" y="1220"/>
      <point x="987" y="1394" type="curve" smooth="yes"/>
      <point x="987" y="1522"/>
      <point x="892" y="1626"/>
      <point x="729" y="1626" type="curve" smooth="yes"/>
      <point x="611" y="1626"/>
      <point x="482" y="1573"/>
      <point x="406" y="1502" type="curve"/>
      <point x="412" y="1394" type="line"/>
      <point x="492" y="1462"/>
      <point x="602" y="1511"/>
      <point x="688" y="1511" type="curve" smooth="yes"/>
      <point x="780" y="1511"/>
      <point x="842" y="1459"/>
      <point x="842" y="1371" type="curve" smooth="yes"/>
      <point x="842" y="1231"/>
      <point x="494" y="931"/>
      <point x="211" y="789" type="curve"/>
      <point x="182" y="680" type="line"/>
      <point x="854" y="680" type="line"/>
    </contour>
  </outline>
</glyph>
<glyph name="MicroSgn" format="2">
  <advance width="1165"/>
  <unicode hex="00B5"/>
  <outline>
    <contour>
      <point x="1030" y="0" type="line"/>
      <point x="1026" y="29"/>
      <point x="1024" y="61"/>
      <point x="1024" y="95" type="curve" smooth="yes"/>
      <point x="1024" y="189"/>
      <point x="1040" y="302"/>
      <point x="1074" y="441" type="curve" smooth="yes"/>
      <point x="1122" y="633"/>
      <point x="1214" y="1000"/>
      <point x="1214" y="1000" type="curve"/>
      <point x="1009" y="1000" type="line"/>
      <point x="997" y="880"/>
      <point x="983" y="815"/>
      <point x="951" y="686" type="curve" smooth="yes"/>
      <point x="882" y="412" type="line"/>
      <point x="809" y="289"/>
      <point x="638" y="137"/>
      <point x="538" y="137" type="curve" smooth="yes"/>
      <point x="450" y="137"/>
      <point x="376" y="197"/>
      <point x="376" y="332" type="curve" smooth="yes"/>
      <point x="376" y="368"/>
      <point x="381" y="409"/>
      <point x="393" y="456" type="curve" smooth="yes"/>
      <point x="427" y="591"/>
      <point x="529" y="1000"/>
      <point x="529" y="1000" type="curve"/>
      <point x="324" y="1000" type="line"/>
      <point x="312" y="882"/>
      <point x="297" y="810"/>
      <point x="266" y="686" type="curve" smooth="yes"/>
      <point x="-25" y="-480" type="line"/>
      <point x="185" y="-480" type="line"/>
      <point x="189" y="-397"/>
      <point x="204" y="-304"/>
      <point x="243" y="-147" type="curve"/>
      <point x="299" y="78" type="line"/>
      <point x="323" y="26"/>
      <point x="386" y="-25"/>
      <point x="478" y="-25" type="curve" smooth="yes"/>
      <point x="607" y="-25"/>
      <point x="766" y="98"/>
      <point x="853" y="196" type="curve"/>
      <point x="851" y="173"/>
      <point x="849" y="150"/>
      <point x="849" y="127" type="curve" smooth="yes"/>
      <point x="849" y="77"/>
      <point x="854" y="31"/>
      <point x="860" y="0" type="curve"/>
    </contour>
  </outline>
</glyph>
<glyph name="PilcrowSgn" format="2">
  <advance width="1005"/>
  <unicode hex="00B6"/>
  <outline>
    <contour>
      <point x="1233" y="1318" type="line"/>
      <point x="1261" y="1431" type="line"/>
      <point x="736" y="1431" type="line" smooth="yes"/>
      <point x="470" y="1431"/>
      <point x="250" y="1279"/>
      <point x="250" y="1017" type="curve" smooth="yes"/>
      <point x="250" y="824"/>
      <point x="427" y="750"/>
      <point x="546" y="750" type="curve"/>
      <point x="360" y="0" type="line"/>
      <point x="495" y="0" type="line"/>
      <point x="823" y="1318" type="line"/>
      <point x="983" y="1318" type="line"/>
      <point x="655" y="0" type="line"/>
      <point x="790" y="0" type="line"/>
      <point x="1118" y="1318" type="line"/>
    </contour>
  </outline>
</glyph>
<glyph name="Cedilla" format="2">
  <advance width="370"/>
  <unicode hex="00B8"/>
  <anchor x="-85" y="-520" name="L"/>
  <outline>
    <contour>
      <point x="-47" y="50" type="line"/>
      <point x="-110" y="-201" type="line"/>
      <point x="-85" y="-188"/>
      <point x="-47" y="-176"/>
      <point x="-15" y="-176" type="curve" smooth="yes"/>
      <point x="31" y="-176"/>
      <point x="62" y="-203"/>
      <point x="62" y="-243" type="curve" smooth="yes"/>
      <point x="62" y="-326"/>
      <point x="-33" y="-363"/>
      <point x="-100" y="-363" type="curve" smooth="yes"/>
      <point x="-142" y="-363"/>
      <point x="-169" y="-354"/>
      <point x="-193" y="-333" type="curve"/>
      <point x="-227" y="-431" type="line"/>
      <point x="-192" y="-454"/>
      <point x="-154" y="-470"/>
      <point x="-102" y="-470" type="curve" smooth="yes"/>
      <point x="45" y="-470"/>
      <point x="213" y="-368"/>
      <point x="213" y="-217" type="curve" smooth="yes"/>
      <point x="213" y="-143"/>
      <point x="167" y="-88"/>
      <point x="92" y="-88" type="curve" smooth="yes"/>
      <point x="70" y="-88"/>
      <point x="56" y="-90"/>
      <point x="42" y="-93" type="curve"/>
      <point x="78" y="50" type="line"/>
    </contour>
  </outline>
</glyph>
<glyph name="SupOne" format="2">
  <advance width="826"/>
  <unicode hex="00B9"/>
  <anchor x="500" y="615" name="L"/>
  <anchor x="785" y="1674" name="U"/>
  <outline>
    <contour>
      <point x="855" y="789" type="line"/>
      <point x="634" y="789" type="line"/>
      <point x="858" y="1622" type="line"/>
      <point x="739" y="1622" type="line"/>
      <point x="461" y="1488" type="line"/>
      <point x="448" y="1373" type="line"/>
      <point x="687" y="1483" type="line"/>
      <point x="501" y="789" type="line"/>
      <point x="281" y="789" type="line"/>
      <point x="252" y="680" type="line"/>
      <point x="826" y="680" type="line"/>
    </contour>
  </outline>
</glyph>
<glyph name="MascOrdIndicator" format="2">
  <advance width="778"/>
  <unicode hex="00BA"/>
  <outline>
    <contour>
      <point x="509" y="651" type="curve" smooth="yes"/>
      <point x="752" y="651"/>
      <point x="908" y="847"/>
      <point x="908" y="1066" type="curve" smooth="yes"/>
      <point x="908" y="1218"/>
      <point x="820" y="1329"/>
      <point x="652" y="1329" type="curve" smooth="yes"/>
      <point x="405" y="1329"/>
      <point x="251" y="1137"/>
      <point x="251" y="914" type="curve" smooth="yes"/>
      <point x="251" y="754"/>
      <point x="347" y="651"/>
    </contour>
    <contour>
      <point x="531" y="756" type="curve" smooth="yes"/>
      <point x="442" y="756"/>
      <point x="380" y="821"/>
      <point x="380" y="926" type="curve" smooth="yes"/>
      <point x="380" y="1069"/>
      <point x="478" y="1224"/>
      <point x="629" y="1224" type="curve" smooth="yes"/>
      <point x="718" y="1224"/>
      <point x="778" y="1155"/>
      <point x="778" y="1049" type="curve" smooth="yes"/>
      <point x="778" y="908"/>
      <point x="680" y="756"/>
    </contour>
    <contour>
      <point x="133" y="490" type="line"/>
      <point x="798" y="490" type="line"/>
      <point x="822" y="588" type="line"/>
      <point x="157" y="588" type="line"/>
    </contour>
  </outline>
</glyph>
<glyph name="RtPtngDblAngQuotMrk" format="2">
  <advance width="1280"/>
  <unicode hex="00BB"/>
  <outline>
    <contour>
      <point x="747" y="0" type="line"/>
      <point x="1290" y="502" type="line"/>
      <point x="969" y="1000" type="line"/>
      <point x="794" y="1000" type="line"/>
      <point x="1060" y="502" type="line"/>
      <point x="545" y="0" type="line"/>
    </contour>
    <contour>
      <point x="257" y="0" type="line"/>
      <point x="800" y="502" type="line"/>
      <point x="479" y="1000" type="line"/>
      <point x="304" y="1000" type="line"/>
      <point x="570" y="502" type="line"/>
      <point x="55" y="0" type="line"/>
    </contour>
  </outline>
</glyph>
<glyph name="InvQstnMrk" format="2">
  <advance width="1030"/>
  <unicode hex="00BF"/>
  <outline>
    <contour>
      <point x="695" y="-119" type="line"/>
      <point x="600" y="-196"/>
      <point x="500" y="-230"/>
      <point x="420" y="-230" type="curve" smooth="yes"/>
      <point x="307" y="-230"/>
      <point x="261" y="-174"/>
      <point x="261" y="-108" type="curve" smooth="yes"/>
      <point x="261" y="-13"/>
      <point x="359" y="67"/>
      <point x="461" y="147" type="curve" smooth="yes"/>
      <point x="558" y="223"/>
      <point x="650" y="353"/>
      <point x="718" y="676" type="curve"/>
      <point x="543" y="676" type="line"/>
      <point x="477" y="379"/>
      <point x="405" y="281"/>
      <point x="282" y="186" type="curve" smooth="yes"/>
      <point x="161" y="93"/>
      <point x="47" y="-17"/>
      <point x="47" y="-168" type="curve" smooth="yes"/>
      <point x="47" y="-316"/>
      <point x="188" y="-402"/>
      <point x="349" y="-402" type="curve" smooth="yes"/>
      <point x="474" y="-402"/>
      <point x="614" y="-356"/>
      <point x="695" y="-294" type="curve"/>
    </contour>
    <contour>
      <point x="844" y="977" type="curve" smooth="yes"/>
      <point x="844" y="1039"/>
      <point x="794" y="1091"/>
      <point x="730" y="1091" type="curve" smooth="yes"/>
      <point x="645" y="1091"/>
      <point x="570" y="1021"/>
      <point x="570" y="941" type="curve" smooth="yes"/>
      <point x="570" y="880"/>
      <point x="620" y="828"/>
      <point x="684" y="828" type="curve" smooth="yes"/>
      <point x="768" y="828"/>
      <point x="844" y="897"/>
    </contour>
  </outline>
</glyph>
<glyph name="MultSgn" format="2">
  <advance width="1180"/>
  <unicode hex="00D7"/>
  <outline>
    <contour>
      <point x="372" y="1008" type="line"/>
      <point x="615" y="714" type="line"/>
      <point x="276" y="430" type="line"/>
      <point x="370" y="318" type="line"/>
      <point x="708" y="601" type="line"/>
      <point x="942" y="318" type="line"/>
      <point x="1059" y="419" type="line"/>
      <point x="826" y="703" type="line"/>
      <point x="1162" y="987" type="line"/>
      <point x="1069" y="1100" type="line"/>
      <point x="734" y="814" type="line"/>
      <point x="490" y="1108" type="line"/>
    </contour>
  </outline>
</glyph>
<glyph name="LtnCapOStrk" format="2">
  <advance width="1444"/>
  <unicode hex="00D8"/>
  <anchor x="632" y="-100" name="L"/>
  <anchor x="1039" y="1530" name="U"/>
  <outline>
    <contour>
      <point x="720" y="147" type="curve" smooth="yes"/>
      <point x="515" y="147"/>
      <point x="388" y="300"/>
      <point x="388" y="541" type="curve" smooth="yes"/>
      <point x="388" y="871"/>
      <point x="597" y="1284"/>
      <point x="964" y="1284" type="curve" smooth="yes"/>
      <point x="1165" y="1284"/>
      <point x="1291" y="1133"/>
      <point x="1291" y="892" type="curve" smooth="yes"/>
      <point x="1291" y="563"/>
      <point x="1088" y="147"/>
    </contour>
    <contour>
      <point x="1494" y="931" type="curve" smooth="yes"/>
      <point x="1494" y="1263"/>
      <point x="1279" y="1455"/>
      <point x="1016" y="1455" type="curve" smooth="yes"/>
      <point x="600" y="1455"/>
      <point x="185" y="1036"/>
      <point x="185" y="500" type="curve" smooth="yes"/>
      <point x="185" y="167"/>
      <point x="401" y="-25"/>
      <point x="667" y="-25" type="curve" smooth="yes"/>
      <point x="1079" y="-25"/>
      <point x="1494" y="395"/>
    </contour>
    <contour>
      <point x="1382" y="1500" type="line"/>
      <point x="125" y="-75" type="line"/>
      <point x="283" y="-75" type="line"/>
      <point x="1538" y="1500" type="line"/>
    </contour>
  </outline>
</glyph>
<glyph name="LtnSmEth" format="2">
  <advance width="1152"/>
  <unicode hex="00F0"/>
  <anchor x="487" y="-100" name="L"/>
  <anchor x="920" y="1635" name="U"/>
  <outline>
    <contour>
      <point x="632" y="1501" type="line"/>
      <point x="860" y="1366"/>
      <point x="990" y="1085"/>
      <point x="993" y="831" type="curve"/>
      <point x="930" y="925"/>
      <point x="840" y="980"/>
      <point x="699" y="980" type="curve" smooth="yes"/>
      <point x="503" y="980"/>
      <point x="240" y="830"/>
      <point x="160" y="512" type="curve" smooth="yes"/>
      <point x="148" y="463"/>
      <point x="142" y="415"/>
      <point x="142" y="369" type="curve" smooth="yes"/>
      <point x="142" y="145"/>
      <point x="294" y="-25"/>
      <point x="522" y="-25" type="curve" smooth="yes"/>
      <point x="819" y="-25"/>
      <point x="1022" y="134"/>
      <point x="1125" y="547" type="curve" smooth="yes"/>
      <point x="1149" y="644"/>
      <point x="1157" y="760"/>
      <point x="1157" y="857" type="curve" smooth="yes"/>
      <point x="1157" y="1124"/>
      <point x="1025" y="1427"/>
      <point x="811" y="1583" type="curve"/>
    </contour>
    <contour>
      <point x="345" y="512" type="curve" smooth="yes"/>
      <point x="398" y="722"/>
      <point x="522" y="823"/>
      <point x="704" y="823" type="curve" smooth="yes"/>
      <point x="835" y="823"/>
      <point x="930" y="719"/>
      <point x="930" y="577" type="curve" smooth="yes"/>
      <point x="930" y="545"/>
      <point x="926" y="512"/>
      <point x="917" y="477" type="curve" smooth="yes"/>
      <point x="865" y="269"/>
      <point x="742" y="132"/>
      <point x="561" y="132" type="curve" smooth="yes"/>
      <point x="421" y="132"/>
      <point x="330" y="240"/>
      <point x="330" y="397" type="curve" smooth="yes"/>
      <point x="330" y="433"/>
      <point x="335" y="471"/>
    </contour>
    <contour>
      <point x="1298" y="1456" type="line"/>
      <point x="1234" y="1566" type="line"/>
      <point x="555" y="1208" type="line"/>
      <point x="616" y="1096" type="line"/>
    </contour>
  </outline>
</glyph>
<glyph name="LtnSmOStrk" format="2">
  <advance width="1133"/>
  <unicode hex="00F8"/>
  <anchor x="510" y="0" name="H"/>
  <anchor x="485" y="-100" name="L"/>
  <anchor x="760" y="0" name="O"/>
  <anchor x="1330" y="1000" name="R"/>
  <anchor x="785" y="1100" name="U"/>
  <outline>
    <contour>
      <point x="142" y="344" type="curve" smooth="yes"/>
      <point x="142" y="114"/>
      <point x="306" y="-25"/>
      <point x="530" y="-25" type="curve" smooth="yes"/>
      <point x="896" y="-25"/>
      <point x="1138" y="314"/>
      <point x="1138" y="648" type="curve" smooth="yes"/>
      <point x="1138" y="879"/>
      <point x="985" y="1020"/>
      <point x="761" y="1020" type="curve" smooth="yes"/>
      <point x="387" y="1020"/>
      <point x="142" y="677"/>
    </contour>
    <contour>
      <point x="721" y="862" type="curve" smooth="yes"/>
      <point x="869" y="862"/>
      <point x="947" y="777"/>
      <point x="947" y="611" type="curve" smooth="yes"/>
      <point x="947" y="391"/>
      <point x="795" y="132"/>
      <point x="559" y="132" type="curve" smooth="yes"/>
      <point x="411" y="132"/>
      <point x="333" y="216"/>
      <point x="333" y="380" type="curve" smooth="yes"/>
      <point x="333" y="599"/>
      <point x="486" y="862"/>
    </contour>
    <contour>
      <point x="1032" y="1085" type="line"/>
      <point x="106" y="-75" type="line"/>
      <point x="254" y="-75" type="line"/>
      <point x="1178" y="1085" type="line"/>
    </contour>
  </outline>
</glyph>
<glyph name="LtnSmDBarredStem" format="2">
  <advance width="1194"/>
  <unicode hex="0111"/>
  <anchor x="520" y="-100" name="L"/>
  <anchor x="953" y="1635" name="U"/>
  <outline>
    <contour>
      <point x="424" y="-25" type="curve" smooth="yes"/>
      <point x="563" y="-25"/>
      <point x="791" y="141"/>
      <point x="899" y="305" type="curve"/>
      <point x="875" y="196"/>
      <point x="869" y="93"/>
      <point x="869" y="0" type="curve"/>
      <point x="1049" y="0" type="line"/>
      <point x="1045" y="23"/>
      <point x="1044" y="53"/>
      <point x="1044" y="90" type="curve" smooth="yes"/>
      <point x="1044" y="190"/>
      <point x="1060" y="340"/>
      <point x="1104" y="520" type="curve" smooth="yes"/>
      <point x="1264" y="1175" type="line" smooth="yes"/>
      <point x="1307" y="1351"/>
      <point x="1334" y="1475"/>
      <point x="1334" y="1570" type="curve"/>
      <point x="1144" y="1570" type="line"/>
      <point x="1144" y="1456"/>
      <point x="1114" y="1327"/>
      <point x="1079" y="1175" type="curve" smooth="yes"/>
      <point x="1024" y="935" type="line"/>
      <point x="957" y="978"/>
      <point x="854" y="1020"/>
      <point x="759" y="1020" type="curve" smooth="yes"/>
      <point x="650" y="1020"/>
      <point x="534" y="979"/>
      <point x="429" y="895" type="curve" smooth="yes"/>
      <point x="262" y="761"/>
      <point x="139" y="532"/>
      <point x="139" y="288" type="curve" smooth="yes"/>
      <point x="139" y="94"/>
      <point x="250" y="-25"/>
    </contour>
    <contour>
      <point x="479" y="130" type="curve" smooth="yes"/>
      <point x="374" y="130"/>
      <point x="330" y="195"/>
      <point x="330" y="316" type="curve" smooth="yes"/>
      <point x="330" y="460"/>
      <point x="397" y="649"/>
      <point x="509" y="760" type="curve" smooth="yes"/>
      <point x="572" y="822"/>
      <point x="643" y="855"/>
      <point x="734" y="855" type="curve" smooth="yes"/>
      <point x="835" y="855"/>
      <point x="898" y="832"/>
      <point x="984" y="780" type="curve"/>
      <point x="931" y="545" type="line"/>
      <point x="847" y="370"/>
      <point x="592" y="130"/>
    </contour>
    <contour>
      <point x="791" y="1151" type="line"/>
      <point x="1416" y="1151" type="line"/>
      <point x="1450" y="1284" type="line"/>
      <point x="825" y="1284" type="line"/>
    </contour>
  </outline>
</glyph>
<glyph name="LtnSmEOgonek" format="2">
  <advance width="1042"/>
  <unicode hex="0119"/>
  <anchor x="430" y="-500" name="L"/>
  <anchor x="780" y="1100" name="U"/>
  <outline>
    <contour>
      <point x="543" y="-25" type="curve" smooth="yes"/>
      <point x="705" y="-25"/>
      <point x="849" y="36"/>
      <point x="955" y="83" type="curve"/>
      <point x="967" y="270" type="line"/>
      <point x="854" y="189"/>
      <point x="710" y="135"/>
      <point x="587" y="135" type="curve" smooth="yes"/>
      <point x="396" y="135"/>
      <point x="317" y="263"/>
      <point x="317" y="420" type="curve" smooth="yes"/>
      <point x="317" y="686"/>
      <point x="522" y="872"/>
      <point x="720" y="872" type="curve" smooth="yes"/>
      <point x="813" y="872"/>
      <point x="883" y="823"/>
      <point x="883" y="753" type="curve" smooth="yes"/>
      <point x="883" y="660"/>
      <point x="766" y="590"/>
      <point x="539" y="590" type="curve" smooth="yes"/>
      <point x="468" y="590"/>
      <point x="382" y="596"/>
      <point x="279" y="610" type="curve"/>
      <point x="279" y="477" type="line"/>
      <point x="391" y="461"/>
      <point x="487" y="453"/>
      <point x="569" y="453" type="curve" smooth="yes"/>
      <point x="931" y="453"/>
      <point x="1077" y="609"/>
      <point x="1077" y="791" type="curve" smooth="yes"/>
      <point x="1077" y="899"/>
      <point x="986" y="1020"/>
      <point x="772" y="1020" type="curve" smooth="yes"/>
      <point x="399" y="1020"/>
      <point x="137" y="710"/>
      <point x="137" y="380" type="curve" smooth="yes"/>
      <point x="137" y="147"/>
      <point x="268" y="-25"/>
    </contour>
    <contour>
      <point x="645" y="-421" type="curve" smooth="yes"/>
      <point x="719" y="-421"/>
      <point x="789" y="-390"/>
      <point x="851" y="-333" type="curve"/>
      <point x="846" y="-225" type="line"/>
      <point x="808" y="-268"/>
      <point x="725" y="-309"/>
      <point x="682" y="-309" type="curve" smooth="yes"/>
      <point x="625" y="-309"/>
      <point x="589" y="-273"/>
      <point x="589" y="-219" type="curve" smooth="yes"/>
      <point x="589" y="-169"/>
      <point x="629" y="-115"/>
      <point x="692" y="-67" type="curve" smooth="yes"/>
      <point x="785" y="4"/>
      <point x="917" y="66"/>
      <point x="955" y="83" type="curve"/>
      <point x="660" y="2" type="line"/>
      <point x="552" y="-46"/>
      <point x="442" y="-128"/>
      <point x="442" y="-249" type="curve" smooth="yes"/>
      <point x="442" y="-348"/>
      <point x="531" y="-421"/>
    </contour>
  </outline>
</glyph>
<glyph name="LtnCapHStrk" format="2">
  <advance width="1630"/>
  <unicode hex="0126"/>
  <anchor x="770" y="-100" name="L"/>
  <anchor x="1147" y="1530" name="U"/>
  <outline>
    <contour>
      <point x="308" y="1058" type="line"/>
      <point x="1748" y="1058" type="line"/>
      <point x="1784" y="1200" type="line"/>
      <point x="344" y="1200" type="line"/>
    </contour>
    <contour>
      <point x="1330" y="0" type="line"/>
      <point x="1335" y="78"/>
      <point x="1373" y="233"/>
      <point x="1421" y="426" type="curve" smooth="yes"/>
      <point x="1565" y="1005" type="line" smooth="yes"/>
      <point x="1613" y="1198"/>
      <point x="1652" y="1352"/>
      <point x="1686" y="1431" type="curve"/>
      <point x="1481" y="1431" type="line"/>
      <point x="1328" y="818" type="line"/>
      <point x="608" y="818" type="line"/>
      <point x="761" y="1431" type="line"/>
      <point x="556" y="1431" type="line"/>
      <point x="551" y="1352"/>
      <point x="513" y="1197"/>
      <point x="465" y="1005" type="curve" smooth="yes"/>
      <point x="321" y="426" type="line" smooth="yes"/>
      <point x="273" y="233"/>
      <point x="234" y="78"/>
      <point x="200" y="0" type="curve"/>
      <point x="405" y="0" type="line"/>
      <point x="570" y="662" type="line"/>
      <point x="1290" y="662" type="line"/>
      <point x="1125" y="0" type="line"/>
    </contour>
  </outline>
</glyph>
<glyph name="LtnSmHStrk" format="2">
  <advance width="1175"/>
  <unicode hex="0127"/>
  <anchor x="550" y="-100" name="L"/>
  <anchor x="920" y="1635" name="U"/>
  <outline>
    <contour>
      <point x="100" y="0" type="line"/>
      <point x="285" y="0" type="line"/>
      <point x="387" y="408" type="line"/>
      <point x="482" y="612"/>
      <point x="707" y="850"/>
      <point x="830" y="850" type="curve" smooth="yes"/>
      <point x="927" y="850"/>
      <point x="960" y="798"/>
      <point x="960" y="680" type="curve" smooth="yes"/>
      <point x="960" y="592"/>
      <point x="876" y="319"/>
      <point x="862" y="203" type="curve" smooth="yes"/>
      <point x="857" y="158"/>
      <point x="854" y="115"/>
      <point x="854" y="77" type="curve" smooth="yes"/>
      <point x="854" y="48"/>
      <point x="856" y="21"/>
      <point x="860" y="0" type="curve"/>
      <point x="1045" y="0" type="line"/>
      <point x="1037" y="30"/>
      <point x="1033" y="65"/>
      <point x="1033" y="102" type="curve" smooth="yes"/>
      <point x="1033" y="143"/>
      <point x="1038" y="188"/>
      <point x="1045" y="238" type="curve" smooth="yes"/>
      <point x="1059" y="327"/>
      <point x="1160" y="636"/>
      <point x="1160" y="745" type="curve" smooth="yes"/>
      <point x="1160" y="917"/>
      <point x="1085" y="1020"/>
      <point x="920" y="1020" type="curve" smooth="yes"/>
      <point x="750" y="1020"/>
      <point x="581" y="877"/>
      <point x="465" y="723" type="curve"/>
      <point x="561" y="1105" type="line" smooth="yes"/>
      <point x="599" y="1259"/>
      <point x="635" y="1482"/>
      <point x="635" y="1570" type="curve"/>
      <point x="445" y="1570" type="line"/>
      <point x="445" y="1456"/>
      <point x="413" y="1257"/>
      <point x="375" y="1105" type="curve" smooth="yes"/>
    </contour>
    <contour>
      <point x="206" y="1151" type="line"/>
      <point x="916" y="1151" type="line"/>
      <point x="950" y="1284" type="line"/>
      <point x="240" y="1284" type="line"/>
    </contour>
  </outline>
</glyph>
<glyph name="LtnCapLCaron" format="2">
  <advance width="1060"/>
  <unicode hex="013D"/>
  <anchor x="532" y="0" name="H"/>
  <anchor x="507" y="-100" name="L"/>
  <anchor x="641" y="887" name="R_"/>
  <anchor x="700" y="1530" name="U"/>
  <outline>
    <component base="LtnCapL" xOffset="-60"/>
    <contour>
      <point x="674" y="1080" type="curve"/>
      <point x="794" y="1080" type="line"/>
      <point x="880" y="1242"/>
      <point x="962" y="1406"/>
      <point x="1026" y="1570" type="curve"/>
      <point x="831" y="1570" type="line"/>
      <point x="792" y="1409"/>
      <point x="738" y="1244"/>
    </contour>
  </outline>
</glyph>
<glyph name="LtnSmLMiddleDot" format="2">
  <advance width="905"/>
  <unicode hex="0140"/>
  <anchor x="291" y="0" name="H"/>
  <anchor x="251" y="-100" name="L"/>
  <anchor x="591" y="1635" name="U"/>
  <outline>
    <contour>
      <point x="465" y="1570" type="line"/>
      <point x="465" y="1456"/>
      <point x="434" y="1259"/>
      <point x="396" y="1107" type="curve" smooth="yes"/>
      <point x="241" y="489" type="line" smooth="yes"/>
      <point x="204" y="343"/>
      <point x="186" y="220"/>
      <point x="186" y="104" type="curve" smooth="yes"/>
      <point x="186" y="69"/>
      <point x="188" y="34"/>
      <point x="191" y="0" type="curve"/>
      <point x="391" y="0" type="line"/>
      <point x="386" y="32"/>
      <point x="384" y="70"/>
      <point x="384" y="112" type="curve" smooth="yes"/>
      <point x="384" y="230"/>
      <point x="402" y="380"/>
      <point x="436" y="517" type="curve" smooth="yes"/>
      <point x="580" y="1105" type="line" smooth="yes"/>
      <point x="623" y="1280"/>
      <point x="655" y="1482"/>
      <point x="655" y="1570" type="curve"/>
    </contour>
    <contour>
      <point x="714" y="675" type="curve" smooth="yes"/>
      <point x="714" y="615"/>
      <point x="757" y="564"/>
      <point x="820" y="564" type="curve" smooth="yes"/>
      <point x="905" y="564"/>
      <point x="977" y="637"/>
      <point x="977" y="716" type="curve" smooth="yes"/>
      <point x="977" y="777"/>
      <point x="931" y="828"/>
      <point x="866" y="828" type="curve" smooth="yes"/>
      <point x="781" y="828"/>
      <point x="714" y="753"/>
    </contour>
  </outline>
</glyph>
<glyph name="LtnCapLStrk" format="2">
  <advance width="1110"/>
  <unicode hex="0141"/>
  <anchor x="557" y="-100" name="L"/>
  <anchor x="964" y="1530" name="U"/>
  <outline>
    <contour>
      <point x="395" y="162" type="line"/>
      <point x="711" y="1431" type="line"/>
      <point x="506" y="1431" type="line"/>
      <point x="502" y="1352"/>
      <point x="461" y="1202"/>
      <point x="414" y="1010" type="curve" smooth="yes"/>
      <point x="271" y="426" type="line" smooth="yes"/>
      <point x="224" y="233"/>
      <point x="184" y="78"/>
      <point x="150" y="0" type="curve"/>
      <point x="1015" y="0" type="line"/>
      <point x="1058" y="176" type="line"/>
      <point x="975" y="163"/>
      <point x="816" y="162"/>
      <point x="619" y="162" type="curve" smooth="yes"/>
    </contour>
    <contour>
      <point x="941" y="911" type="line"/>
      <point x="890" y="1048" type="line"/>
      <point x="152" y="619" type="line"/>
      <point x="191" y="478" type="line"/>
    </contour>
  </outline>
</glyph>
<glyph name="LtnSmEng" format="2">
  <advance width="1195"/>
  <unicode hex="014B"/>
  <anchor x="420" y="-500" name="L"/>
  <anchor x="820" y="1100" name="U"/>
  <outline>
    <contour>
      <point x="295" y="1000" type="line"/>
      <point x="295" y="961" type="line" smooth="yes"/>
      <point x="295" y="833"/>
      <point x="283" y="679"/>
      <point x="262" y="595" type="curve" smooth="yes"/>
      <point x="115" y="0" type="line"/>
      <point x="300" y="0" type="line"/>
      <point x="392" y="370" type="line"/>
      <point x="478" y="573"/>
      <point x="708" y="850"/>
      <point x="835" y="850" type="curve" smooth="yes"/>
      <point x="927" y="850"/>
      <point x="975" y="798"/>
      <point x="975" y="680" type="curve" smooth="yes"/>
      <point x="975" y="592"/>
      <point x="882" y="187"/>
      <point x="854" y="77" type="curve" smooth="yes"/>
      <point x="791" y="-173"/>
      <point x="659" y="-295"/>
      <point x="553" y="-295" type="curve" smooth="yes"/>
      <point x="497" y="-295"/>
      <point x="413" y="-264"/>
      <point x="377" y="-229" type="curve"/>
      <point x="302" y="-397" type="line"/>
      <point x="352" y="-437"/>
      <point x="460" y="-465"/>
      <point x="516" y="-465" type="curve" smooth="yes"/>
      <point x="733" y="-465"/>
      <point x="942" y="-314"/>
      <point x="1036" y="66" type="curve" smooth="yes"/>
      <point x="1057" y="150"/>
      <point x="1175" y="636"/>
      <point x="1175" y="745" type="curve" smooth="yes"/>
      <point x="1175" y="917"/>
      <point x="1100" y="1020"/>
      <point x="935" y="1020" type="curve" smooth="yes"/>
      <point x="755" y="1020"/>
      <point x="581" y="870"/>
      <point x="445" y="672" type="curve"/>
      <point x="463" y="740"/>
      <point x="477" y="873"/>
      <point x="477" y="957" type="curve" smooth="yes"/>
      <point x="477" y="973"/>
      <point x="476" y="988"/>
      <point x="475" y="1000" type="curve"/>
    </contour>
  </outline>
</glyph>
<glyph name="LtnCapLigOe" format="2">
  <advance width="1940"/>
  <unicode hex="0152"/>
  <anchor x="877" y="-100" name="L"/>
  <anchor x="1284" y="1530" name="U"/>
  <outline>
    <contour>
      <point x="2106" y="1431" type="line"/>
      <point x="1369" y="1431" type="line"/>
      <point x="1309" y="1206" type="line"/>
      <point x="1263" y="1350"/>
      <point x="1131" y="1455"/>
      <point x="966" y="1455" type="curve" smooth="yes"/>
      <point x="570" y="1455"/>
      <point x="185" y="1036"/>
      <point x="185" y="500" type="curve" smooth="yes"/>
      <point x="185" y="167"/>
      <point x="411" y="-25"/>
      <point x="637" y="-25" type="curve" smooth="yes"/>
      <point x="797" y="-25"/>
      <point x="978" y="62"/>
      <point x="1069" y="182" type="curve"/>
      <point x="1021" y="0" type="line"/>
      <point x="1780" y="0" type="line"/>
      <point x="1823" y="176" type="line"/>
      <point x="1740" y="163"/>
      <point x="1606" y="162"/>
      <point x="1409" y="162" type="curve" smooth="yes"/>
      <point x="1235" y="162" type="line"/>
      <point x="1362" y="671" type="line"/>
      <point x="1842" y="671" type="line"/>
      <point x="1881" y="828" type="line"/>
      <point x="1398" y="828" type="line"/>
      <point x="1511" y="1269" type="line"/>
      <point x="2066" y="1269" type="line"/>
    </contour>
    <contour>
      <point x="680" y="147" type="curve" smooth="yes"/>
      <point x="515" y="147"/>
      <point x="388" y="300"/>
      <point x="388" y="541" type="curve" smooth="yes"/>
      <point x="388" y="871"/>
      <point x="607" y="1284"/>
      <point x="924" y="1284" type="curve" smooth="yes"/>
      <point x="1085" y="1284"/>
      <point x="1211" y="1133"/>
      <point x="1211" y="892" type="curve" smooth="yes"/>
      <point x="1211" y="563"/>
      <point x="998" y="147"/>
    </contour>
  </outline>
</glyph>
<glyph name="LtnSmLigOe" format="2">
  <advance width="1799"/>
  <unicode hex="0153"/>
  <anchor x="1260" y="0" name="H"/>
  <anchor x="870" y="-100" name="L"/>
  <anchor x="1530" y="0" name="O"/>
  <anchor x="2050" y="1000" name="R"/>
  <anchor x="1170" y="1100" name="U"/>
  <outline>
    <contour>
      <point x="1724" y="270" type="line"/>
      <point x="1611" y="189"/>
      <point x="1457" y="135"/>
      <point x="1334" y="135" type="curve" smooth="yes"/>
      <point x="1163" y="135"/>
      <point x="1094" y="263"/>
      <point x="1094" y="420" type="curve" smooth="yes"/>
      <point x="1094" y="437"/>
      <point x="1095" y="454"/>
      <point x="1097" y="471" type="curve"/>
      <point x="1189" y="459"/>
      <point x="1264" y="453"/>
      <point x="1336" y="453" type="curve" smooth="yes"/>
      <point x="1698" y="453"/>
      <point x="1834" y="609"/>
      <point x="1834" y="791" type="curve" smooth="yes"/>
      <point x="1834" y="899"/>
      <point x="1743" y="1020"/>
      <point x="1539" y="1020" type="curve" smooth="yes"/>
      <point x="1354" y="1020"/>
      <point x="1195" y="940"/>
      <point x="1084" y="817" type="curve"/>
      <point x="1028" y="946"/>
      <point x="906" y="1020"/>
      <point x="751" y="1020" type="curve" smooth="yes"/>
      <point x="387" y="1020"/>
      <point x="142" y="677"/>
      <point x="142" y="344" type="curve" smooth="yes"/>
      <point x="142" y="114"/>
      <point x="306" y="-25"/>
      <point x="520" y="-25" type="curve" smooth="yes"/>
      <point x="696" y="-25"/>
      <point x="845" y="58"/>
      <point x="950" y="183" type="curve"/>
      <point x="1003" y="56"/>
      <point x="1114" y="-25"/>
      <point x="1290" y="-25" type="curve" smooth="yes"/>
      <point x="1446" y="-25"/>
      <point x="1606" y="26"/>
      <point x="1712" y="83" type="curve"/>
    </contour>
    <contour>
      <point x="711" y="862" type="curve" smooth="yes"/>
      <point x="839" y="862"/>
      <point x="927" y="767"/>
      <point x="927" y="611" type="curve" smooth="yes"/>
      <point x="927" y="391"/>
      <point x="775" y="132"/>
      <point x="549" y="132" type="curve" smooth="yes"/>
      <point x="421" y="132"/>
      <point x="333" y="226"/>
      <point x="333" y="380" type="curve" smooth="yes"/>
      <point x="333" y="599"/>
      <point x="486" y="862"/>
    </contour>
    <contour>
      <point x="1487" y="872" type="curve" smooth="yes"/>
      <point x="1570" y="872"/>
      <point x="1640" y="823"/>
      <point x="1640" y="753" type="curve" smooth="yes"/>
      <point x="1640" y="660"/>
      <point x="1533" y="590"/>
      <point x="1306" y="590" type="curve" smooth="yes"/>
      <point x="1252" y="590"/>
      <point x="1196" y="593"/>
      <point x="1128" y="601" type="curve"/>
      <point x="1194" y="766"/>
      <point x="1345" y="872"/>
    </contour>
  </outline>
</glyph>
<glyph name="LtnSmTStrk" format="2">
  <advance width="815"/>
  <unicode hex="0167"/>
  <anchor x="390" y="-100" name="L"/>
  <anchor x="605" y="1360" name="U"/>
  <outline>
    <contour>
      <point x="752" y="211" type="line"/>
      <point x="675" y="169"/>
      <point x="593" y="134"/>
      <point x="527" y="134" type="curve" smooth="yes"/>
      <point x="448" y="134"/>
      <point x="425" y="188"/>
      <point x="425" y="247" type="curve" smooth="yes"/>
      <point x="425" y="274"/>
      <point x="429" y="301"/>
      <point x="434" y="326" type="curve" smooth="yes"/>
      <point x="470" y="519"/>
      <point x="564" y="843"/>
      <point x="677" y="1294" type="curve"/>
      <point x="492" y="1294" type="line"/>
      <point x="377" y="841"/>
      <point x="263" y="429"/>
      <point x="243" y="301" type="curve" smooth="yes"/>
      <point x="238" y="269"/>
      <point x="236" y="240"/>
      <point x="236" y="213" type="curve" smooth="yes"/>
      <point x="236" y="41"/>
      <point x="330" y="-25"/>
      <point x="465" y="-25" type="curve" smooth="yes"/>
      <point x="535" y="-25"/>
      <point x="634" y="-6"/>
      <point x="740" y="52" type="curve"/>
    </contour>
    <contour>
      <point x="177" y="833" type="line"/>
      <point x="887" y="833" type="line"/>
      <point x="923" y="975" type="line"/>
      <point x="213" y="975" type="line"/>
    </contour>
    <contour>
      <point x="85" y="465" type="line"/>
      <point x="795" y="465" type="line"/>
      <point x="831" y="608" type="line"/>
      <point x="121" y="608" type="line"/>
    </contour>
  </outline>
</glyph>
<glyph name="LtnCapBHook" format="2">
  <advance width="1642"/>
  <unicode hex="0181"/>
  <anchor x="903" y="-100" name="L"/>
  <anchor x="1310" y="1530" name="U"/>
  <outline>
    <contour>
      <point x="847" y="686" type="line"/>
      <point x="1092" y="686" type="line" smooth="yes"/>
      <point x="1263" y="686"/>
      <point x="1382" y="598"/>
      <point x="1382" y="450" type="curve" smooth="yes"/>
      <point x="1382" y="218"/>
      <point x="1177" y="147"/>
      <point x="957" y="147" type="curve" smooth="yes"/>
      <point x="845" y="147"/>
      <point x="750" y="150"/>
      <point x="713" y="152" type="curve"/>
    </contour>
    <contour>
      <point x="420" y="882" type="line"/>
      <point x="411" y="912"/>
      <point x="404" y="941"/>
      <point x="404" y="976" type="curve" smooth="yes"/>
      <point x="404" y="1001"/>
      <point x="407" y="1029"/>
      <point x="416" y="1063" type="curve" smooth="yes"/>
      <point x="452" y="1210"/>
      <point x="581" y="1289"/>
      <point x="782" y="1289" type="curve" smooth="yes"/>
      <point x="1182" y="1289" type="line" smooth="yes"/>
      <point x="1364" y="1289"/>
      <point x="1451" y="1230"/>
      <point x="1451" y="1105" type="curve" smooth="yes"/>
      <point x="1451" y="933"/>
      <point x="1304" y="838"/>
      <point x="1073" y="838" type="curve" smooth="yes"/>
      <point x="885" y="838" type="line"/>
      <point x="1009" y="1338" type="line"/>
      <point x="819" y="1338" type="line"/>
      <point x="597" y="446" type="line" smooth="yes"/>
      <point x="549" y="252"/>
      <point x="505" y="78"/>
      <point x="471" y="0" type="curve"/>
      <point x="522" y="-5"/>
      <point x="730" y="-10"/>
      <point x="933" y="-10" type="curve" smooth="yes"/>
      <point x="1331" y="-10"/>
      <point x="1572" y="149"/>
      <point x="1572" y="453" type="curve" smooth="yes"/>
      <point x="1572" y="644"/>
      <point x="1438" y="736"/>
      <point x="1326" y="764" type="curve"/>
      <point x="1526" y="819"/>
      <point x="1654" y="941"/>
      <point x="1654" y="1140" type="curve" smooth="yes"/>
      <point x="1654" y="1310"/>
      <point x="1507" y="1441"/>
      <point x="1240" y="1441" type="curve" smooth="yes"/>
      <point x="870" y="1441" type="line" smooth="yes"/>
      <point x="520" y="1441"/>
      <point x="312" y="1326"/>
      <point x="244" y="1056" type="curve" smooth="yes"/>
      <point x="237" y="1027"/>
      <point x="233" y="990"/>
      <point x="233" y="954" type="curve" smooth="yes"/>
      <point x="233" y="911"/>
      <point x="238" y="869"/>
      <point x="246" y="843" type="curve"/>
    </contour>
  </outline>
</glyph>
<glyph name="LtnSmCHook" format="2">
  <advance width="1119"/>
  <unicode hex="0188"/>
  <anchor x="505" y="-100" name="L"/>
  <anchor x="802" y="1250" name="U"/>
  <outline>
    <contour>
      <point x="532" y="-25" type="curve" smooth="yes"/>
      <point x="682" y="-25"/>
      <point x="785" y="9"/>
      <point x="904" y="83" type="curve"/>
      <point x="917" y="255" type="line"/>
      <point x="811" y="179"/>
      <point x="703" y="137"/>
      <point x="583" y="137" type="curve" smooth="yes"/>
      <point x="427" y="137"/>
      <point x="331" y="239"/>
      <point x="331" y="406" type="curve" smooth="yes"/>
      <point x="331" y="619"/>
      <point x="469" y="858"/>
      <point x="732" y="858" type="curve" smooth="yes"/>
      <point x="835" y="858"/>
      <point x="964" y="826"/>
      <point x="1029" y="779" type="curve"/>
      <point x="1059" y="936" type="line"/>
      <point x="998" y="985"/>
      <point x="882" y="1020"/>
      <point x="769" y="1020" type="curve" smooth="yes"/>
      <point x="400" y="1020"/>
      <point x="139" y="737"/>
      <point x="139" y="381" type="curve" smooth="yes"/>
      <point x="139" y="130"/>
      <point x="309" y="-25"/>
    </contour>
    <contour>
      <point x="1047" y="875" type="line"/>
      <point x="1054" y="912"/>
      <point x="1061" y="950"/>
      <point x="1068" y="987" type="curve" smooth="yes"/>
      <point x="1108" y="1203"/>
      <point x="1176" y="1233"/>
      <point x="1229" y="1233" type="curve" smooth="yes"/>
      <point x="1277" y="1233"/>
      <point x="1318" y="1213"/>
      <point x="1360" y="1177" type="curve"/>
      <point x="1441" y="1332" type="line"/>
      <point x="1385" y="1374"/>
      <point x="1316" y="1400"/>
      <point x="1250" y="1400" type="curve" smooth="yes"/>
      <point x="1103" y="1400"/>
      <point x="985" y="1316"/>
      <point x="927" y="1017" type="curve" smooth="yes"/>
      <point x="910" y="929" type="line"/>
    </contour>
  </outline>
</glyph>
<glyph name="LtnCapDHook" format="2">
  <advance width="1792"/>
  <unicode hex="018A"/>
  <anchor x="981" y="-100" name="L"/>
  <anchor x="1286" y="1530" name="U"/>
  <outline>
    <contour>
      <point x="420" y="882" type="line"/>
      <point x="411" y="912"/>
      <point x="404" y="941"/>
      <point x="404" y="976" type="curve" smooth="yes"/>
      <point x="404" y="1001"/>
      <point x="407" y="1029"/>
      <point x="416" y="1063" type="curve" smooth="yes"/>
      <point x="452" y="1210"/>
      <point x="581" y="1284"/>
      <point x="782" y="1284" type="curve" smooth="yes"/>
      <point x="1201" y="1284" type="line" smooth="yes"/>
      <point x="1476" y="1284"/>
      <point x="1617" y="1140"/>
      <point x="1617" y="850" type="curve" smooth="yes"/>
      <point x="1617" y="784"/>
      <point x="1607" y="710"/>
      <point x="1587" y="629" type="curve" smooth="yes"/>
      <point x="1505" y="300"/>
      <point x="1306" y="152"/>
      <point x="943" y="152" type="curve" smooth="yes"/>
      <point x="848" y="152"/>
      <point x="762" y="158"/>
      <point x="716" y="162" type="curve"/>
      <point x="1009" y="1338" type="line"/>
      <point x="819" y="1338" type="line"/>
      <point x="597" y="446" type="line" smooth="yes"/>
      <point x="549" y="252"/>
      <point x="505" y="78"/>
      <point x="471" y="0" type="curve"/>
      <point x="471" y="0"/>
      <point x="785" y="-10"/>
      <point x="913" y="-10" type="curve" smooth="yes"/>
      <point x="1356" y="-10"/>
      <point x="1670" y="181"/>
      <point x="1786" y="648" type="curve" smooth="yes"/>
      <point x="1808" y="738"/>
      <point x="1818" y="819"/>
      <point x="1818" y="891" type="curve" smooth="yes"/>
      <point x="1818" y="1279"/>
      <point x="1559" y="1441"/>
      <point x="1265" y="1441" type="curve" smooth="yes"/>
      <point x="870" y="1441" type="line" smooth="yes"/>
      <point x="520" y="1441"/>
      <point x="312" y="1326"/>
      <point x="244" y="1056" type="curve" smooth="yes"/>
      <point x="237" y="1027"/>
      <point x="233" y="990"/>
      <point x="233" y="954" type="curve" smooth="yes"/>
      <point x="233" y="911"/>
      <point x="238" y="869"/>
      <point x="246" y="843" type="curve"/>
    </contour>
  </outline>
</glyph>
<glyph name="LtnCapDTopbar" format="2">
  <advance width="1245"/>
  <unicode hex="018B"/>
  <anchor x="565" y="-100" name="L"/>
  <anchor x="947" y="1530" name="U"/>
  <outline>
    <contour>
      <point x="657" y="-10" type="curve" smooth="yes"/>
      <point x="860" y="-10"/>
      <point x="1045" y="0"/>
      <point x="1045" y="0" type="curve"/>
      <point x="1049" y="78"/>
      <point x="1092" y="252"/>
      <point x="1141" y="446" type="curve" smooth="yes"/>
      <point x="1280" y="1004" type="line" smooth="yes"/>
      <point x="1328" y="1198"/>
      <point x="1367" y="1352"/>
      <point x="1401" y="1431" type="curve"/>
      <point x="556" y="1431" type="line"/>
      <point x="512" y="1254" type="line"/>
      <point x="596" y="1268"/>
      <point x="754" y="1269"/>
      <point x="951" y="1269" type="curve" smooth="yes"/>
      <point x="1156" y="1269" type="line"/>
      <point x="1048" y="838" type="line"/>
      <point x="853" y="838" type="line" smooth="yes"/>
      <point x="413" y="838"/>
      <point x="180" y="648"/>
      <point x="180" y="334" type="curve" smooth="yes"/>
      <point x="180" y="142"/>
      <point x="324" y="-10"/>
    </contour>
    <contour>
      <point x="681" y="147" type="curve" smooth="yes"/>
      <point x="514" y="147"/>
      <point x="378" y="217"/>
      <point x="378" y="364" type="curve" smooth="yes"/>
      <point x="378" y="601"/>
      <point x="548" y="686"/>
      <point x="826" y="686" type="curve" smooth="yes"/>
      <point x="1011" y="686" type="line"/>
      <point x="877" y="152" type="line"/>
      <point x="840" y="150"/>
      <point x="783" y="147"/>
    </contour>
  </outline>
</glyph>
<glyph name="LtnSmDTopbar" format="2">
  <advance width="1187"/>
  <unicode hex="018C"/>
  <anchor x="554" y="-100" name="L"/>
  <anchor x="957" y="1635" name="U"/>
  <outline>
    <contour>
      <point x="424" y="-25" type="curve" smooth="yes"/>
      <point x="563" y="-25"/>
      <point x="791" y="141"/>
      <point x="899" y="305" type="curve"/>
      <point x="875" y="196"/>
      <point x="869" y="93"/>
      <point x="869" y="0" type="curve"/>
      <point x="1052" y="0" type="line"/>
      <point x="1048" y="23"/>
      <point x="1047" y="53"/>
      <point x="1047" y="90" type="curve" smooth="yes"/>
      <point x="1047" y="190"/>
      <point x="1063" y="340"/>
      <point x="1107" y="520" type="curve" smooth="yes"/>
      <point x="1364" y="1570" type="line"/>
      <point x="1179" y="1570" type="line"/>
      <point x="1024" y="935" type="line"/>
      <point x="957" y="978"/>
      <point x="854" y="1020"/>
      <point x="759" y="1020" type="curve" smooth="yes"/>
      <point x="650" y="1020"/>
      <point x="534" y="979"/>
      <point x="429" y="895" type="curve" smooth="yes"/>
      <point x="262" y="761"/>
      <point x="139" y="532"/>
      <point x="139" y="288" type="curve" smooth="yes"/>
      <point x="139" y="94"/>
      <point x="250" y="-25"/>
    </contour>
    <contour>
      <point x="479" y="130" type="curve" smooth="yes"/>
      <point x="374" y="130"/>
      <point x="330" y="195"/>
      <point x="330" y="316" type="curve" smooth="yes"/>
      <point x="330" y="460"/>
      <point x="397" y="649"/>
      <point x="509" y="760" type="curve" smooth="yes"/>
      <point x="572" y="822"/>
      <point x="643" y="855"/>
      <point x="734" y="855" type="curve" smooth="yes"/>
      <point x="835" y="855"/>
      <point x="898" y="832"/>
      <point x="984" y="780" type="curve"/>
      <point x="930" y="545" type="line"/>
      <point x="846" y="370"/>
      <point x="592" y="130"/>
    </contour>
    <contour>
      <point x="520" y="1413" type="line"/>
      <point x="604" y="1427"/>
      <point x="762" y="1428"/>
      <point x="959" y="1428" type="curve" smooth="yes"/>
      <point x="1184" y="1428" type="line"/>
      <point x="1219" y="1570" type="line"/>
      <point x="559" y="1570" type="line"/>
    </contour>
  </outline>
</glyph>
<glyph name="LtnCapRevE" format="2">
  <advance width="1165"/>
  <unicode hex="018E"/>
  <anchor x="475" y="-100" name="L"/>
  <anchor x="882" y="1530" name="U"/>
  <outline>
    <contour>
      <point x="371" y="828" type="line"/>
      <point x="332" y="671" type="line"/>
      <point x="902" y="671" type="line"/>
      <point x="775" y="162" type="line"/>
      <point x="511" y="162" type="line" smooth="yes"/>
      <point x="314" y="162"/>
      <point x="180" y="163"/>
      <point x="103" y="176" type="curve"/>
      <point x="60" y="0" type="line"/>
      <point x="940" y="0" type="line"/>
      <point x="944" y="78"/>
      <point x="983" y="233"/>
      <point x="1031" y="426" type="curve" smooth="yes"/>
      <point x="1175" y="1005" type="line" smooth="yes"/>
      <point x="1223" y="1198"/>
      <point x="1262" y="1352"/>
      <point x="1296" y="1431" type="curve"/>
      <point x="446" y="1431" type="line"/>
      <point x="406" y="1269" type="line"/>
      <point x="1051" y="1269" type="line"/>
      <point x="941" y="828" type="line"/>
    </contour>
  </outline>
</glyph>
<glyph name="LtnCapSchwa" format="2">
  <advance width="1391"/>
  <unicode hex="018F"/>
  <anchor x="635" y="-100" name="L"/>
  <anchor x="980" y="1530" name="U"/>
  <outline>
    <contour>
      <point x="286" y="1085" type="line"/>
      <point x="436" y="1197"/>
      <point x="635" y="1284"/>
      <point x="823" y="1284" type="curve" smooth="yes"/>
      <point x="1089" y="1284"/>
      <point x="1221" y="1097"/>
      <point x="1221" y="814" type="curve" smooth="yes"/>
      <point x="1221" y="438"/>
      <point x="905" y="147"/>
      <point x="605" y="147" type="curve" smooth="yes"/>
      <point x="433" y="147"/>
      <point x="345" y="244"/>
      <point x="345" y="343" type="curve" smooth="yes"/>
      <point x="345" y="474"/>
      <point x="551" y="632"/>
      <point x="887" y="632" type="curve" smooth="yes"/>
      <point x="987" y="632"/>
      <point x="1109" y="623"/>
      <point x="1255" y="593" type="curve"/>
      <point x="1255" y="752" type="line"/>
      <point x="1096" y="784"/>
      <point x="960" y="796"/>
      <point x="844" y="796" type="curve" smooth="yes"/>
      <point x="394" y="796"/>
      <point x="145" y="547"/>
      <point x="145" y="309" type="curve" smooth="yes"/>
      <point x="145" y="156"/>
      <point x="288" y="-25"/>
      <point x="571" y="-25" type="curve" smooth="yes"/>
      <point x="1079" y="-25"/>
      <point x="1426" y="399"/>
      <point x="1426" y="867" type="curve" smooth="yes"/>
      <point x="1426" y="1197"/>
      <point x="1231" y="1455"/>
      <point x="865" y="1455" type="curve" smooth="yes"/>
      <point x="630" y="1455"/>
      <point x="448" y="1382"/>
      <point x="298" y="1301" type="curve"/>
    </contour>
  </outline>
</glyph>
<glyph name="LtnCapFHook" format="2">
  <advance width="1130"/>
  <unicode hex="0191"/>
  <anchor x="585" y="-100" name="L"/>
  <anchor x="913" y="1530" name="U"/>
  <outline>
    <contour>
      <point x="529" y="661" type="line"/>
      <point x="1109" y="661" type="line"/>
      <point x="1148" y="818" type="line"/>
      <point x="568" y="818" type="line"/>
      <point x="681" y="1269" type="line"/>
      <point x="1346" y="1269" type="line"/>
      <point x="1386" y="1431" type="line"/>
      <point x="516" y="1431" type="line"/>
      <point x="512" y="1352"/>
      <point x="472" y="1193"/>
      <point x="424" y="1000" type="curve" smooth="yes"/>
      <point x="195" y="78" type="line" smooth="yes"/>
      <point x="128" y="-191"/>
      <point x="25" y="-300"/>
      <point x="-81" y="-300" type="curve" smooth="yes"/>
      <point x="-136" y="-300"/>
      <point x="-221" y="-269"/>
      <point x="-257" y="-234" type="curve"/>
      <point x="-332" y="-397" type="line"/>
      <point x="-282" y="-437"/>
      <point x="-180" y="-465"/>
      <point x="-118" y="-465" type="curve" smooth="yes"/>
      <point x="145" y="-465"/>
      <point x="279" y="-313"/>
      <point x="396" y="142" type="curve" smooth="yes"/>
    </contour>
  </outline>
</glyph>
<glyph name="LtnSmFHook" format="2">
  <advance width="713"/>
  <unicode hex="0192"/>
  <anchor x="112" y="-500" name="L"/>
  <anchor x="888" y="1635" name="U"/>
  <outline>
    <contour>
      <point x="157" y="833" type="line"/>
      <point x="812" y="833" type="line"/>
      <point x="848" y="975" type="line"/>
      <point x="193" y="975" type="line"/>
    </contour>
    <contour>
      <point x="1063" y="1519" type="line"/>
      <point x="1012" y="1562"/>
      <point x="938" y="1588"/>
      <point x="860" y="1588" type="curve" smooth="yes"/>
      <point x="644" y="1588"/>
      <point x="489" y="1479"/>
      <point x="407" y="1147" type="curve" smooth="yes"/>
      <point x="387" y="1065"/>
      <point x="262" y="408"/>
      <point x="164" y="12" type="curve" smooth="yes"/>
      <point x="111" y="-203"/>
      <point x="21" y="-294"/>
      <point x="-85" y="-294" type="curve" smooth="yes"/>
      <point x="-151" y="-294"/>
      <point x="-227" y="-258"/>
      <point x="-263" y="-225" type="curve"/>
      <point x="-338" y="-387" type="line"/>
      <point x="-288" y="-427"/>
      <point x="-191" y="-461"/>
      <point x="-125" y="-461" type="curve" smooth="yes"/>
      <point x="102" y="-461"/>
      <point x="257" y="-341"/>
      <point x="349" y="25" type="curve" smooth="yes"/>
      <point x="448" y="423"/>
      <point x="505" y="804"/>
      <point x="600" y="1186" type="curve" smooth="yes"/>
      <point x="642" y="1353"/>
      <point x="715" y="1421"/>
      <point x="819" y="1421" type="curve" smooth="yes"/>
      <point x="877" y="1421"/>
      <point x="938" y="1398"/>
      <point x="979" y="1362" type="curve"/>
    </contour>
  </outline>
</glyph>
<glyph name="LtnCapGHook" format="2">
  <advance width="1406"/>
  <unicode hex="0193"/>
  <anchor x="690" y="-100" name="L"/>
  <anchor x="1042" y="1530" name="U"/>
  <outline>
    <contour>
      <point x="714" y="-25" type="curve" smooth="yes"/>
      <point x="907" y="-25"/>
      <point x="1149" y="50"/>
      <point x="1258" y="132" type="curve"/>
      <point x="1403" y="710" type="line"/>
      <point x="863" y="710" type="line"/>
      <point x="822" y="548" type="line"/>
      <point x="1172" y="548" type="line"/>
      <point x="1090" y="220" type="line"/>
      <point x="1012" y="176"/>
      <point x="858" y="147"/>
      <point x="739" y="147" type="curve" smooth="yes"/>
      <point x="520" y="147"/>
      <point x="384" y="272"/>
      <point x="384" y="493" type="curve" smooth="yes"/>
      <point x="384" y="560"/>
      <point x="394" y="636"/>
      <point x="415" y="720" type="curve" smooth="yes"/>
      <point x="500" y="1062"/>
      <point x="747" y="1289"/>
      <point x="1052" y="1289" type="curve" smooth="yes"/>
      <point x="1195" y="1289"/>
      <point x="1316" y="1252"/>
      <point x="1406" y="1171" type="curve"/>
      <point x="1450" y="1347" type="line"/>
      <point x="1325" y="1434"/>
      <point x="1235" y="1455"/>
      <point x="1063" y="1455" type="curve" smooth="yes"/>
      <point x="680" y="1455"/>
      <point x="334" y="1195"/>
      <point x="217" y="726" type="curve" smooth="yes"/>
      <point x="195" y="639"/>
      <point x="185" y="559"/>
      <point x="185" y="486" type="curve" smooth="yes"/>
      <point x="185" y="162"/>
      <point x="406" y="-25"/>
    </contour>
    <contour>
      <point x="1426" y="1249" type="line"/>
      <point x="1474" y="1441" type="line" smooth="yes"/>
      <point x="1506" y="1569"/>
      <point x="1581" y="1646"/>
      <point x="1665" y="1646" type="curve" smooth="yes"/>
      <point x="1723" y="1646"/>
      <point x="1784" y="1624"/>
      <point x="1825" y="1588" type="curve"/>
      <point x="1911" y="1749" type="line"/>
      <point x="1859" y="1792"/>
      <point x="1755" y="1813"/>
      <point x="1677" y="1813" type="curve" smooth="yes"/>
      <point x="1501" y="1813"/>
      <point x="1364" y="1700"/>
      <point x="1298" y="1436" type="curve" smooth="yes"/>
      <point x="1289" y="1401" type="line"/>
    </contour>
  </outline>
</glyph>
<glyph name="LtnSmKHook" format="2">
  <advance width="1059"/>
  <unicode hex="0199"/>
  <anchor x="480" y="-100" name="L"/>
  <anchor x="913" y="1635" name="U"/>
  <outline>
    <contour>
      <point x="110" y="0" type="line"/>
      <point x="295" y="0" type="line"/>
      <point x="570" y="1105" type="line" smooth="yes"/>
      <point x="618" y="1298"/>
      <point x="739" y="1421"/>
      <point x="867" y="1421" type="curve" smooth="yes"/>
      <point x="964" y="1421"/>
      <point x="1037" y="1387"/>
      <point x="1072" y="1352" type="curve"/>
      <point x="1190" y="1504" type="line"/>
      <point x="1146" y="1543"/>
      <point x="1044" y="1587"/>
      <point x="923" y="1587" type="curve" smooth="yes"/>
      <point x="659" y="1587"/>
      <point x="463" y="1416"/>
      <point x="386" y="1107" type="curve" smooth="yes"/>
    </contour>
    <contour>
      <point x="909" y="1000" type="line"/>
      <point x="885" y="863"/>
      <point x="654" y="700"/>
      <point x="379" y="539" type="curve"/>
      <point x="559" y="514" type="line"/>
      <point x="902" y="702"/>
      <point x="1134" y="884"/>
      <point x="1134" y="1000" type="curve"/>
    </contour>
    <contour>
      <point x="1010" y="0" type="line"/>
      <point x="977" y="53"/>
      <point x="944" y="112"/>
      <point x="912" y="172" type="curve" smooth="yes"/>
      <point x="803" y="374"/>
      <point x="675" y="600"/>
      <point x="527" y="600" type="curve"/>
      <point x="385" y="529" type="line"/>
      <point x="540" y="529"/>
      <point x="667" y="246"/>
      <point x="775" y="0" type="curve"/>
    </contour>
  </outline>
</glyph>
<glyph name="LtnSmLambdaStrk" format="2">
  <advance width="1183"/>
  <unicode hex="019B"/>
  <anchor x="515" y="-100" name="L"/>
  <anchor x="898" y="1635" name="U"/>
  <outline>
    <contour>
      <point x="1062" y="-15" type="curve"/>
      <point x="1120" y="151" type="line"/>
      <point x="1004" y="151"/>
      <point x="992" y="227"/>
      <point x="974" y="478" type="curve" smooth="yes"/>
      <point x="964" y="621"/>
      <point x="931" y="994"/>
      <point x="925" y="1132" type="curve" smooth="yes"/>
      <point x="913" y="1412"/>
      <point x="820" y="1509"/>
      <point x="625" y="1509" type="curve" smooth="yes"/>
      <point x="542" y="1509"/>
      <point x="457" y="1482"/>
      <point x="402" y="1453" type="curve"/>
      <point x="425" y="1293" type="line"/>
      <point x="485" y="1326"/>
      <point x="532" y="1343"/>
      <point x="591" y="1343" type="curve" smooth="yes"/>
      <point x="693" y="1343"/>
      <point x="747" y="1281"/>
      <point x="765" y="1024" type="curve" smooth="yes"/>
      <point x="777" y="850"/>
      <point x="804" y="491"/>
      <point x="817" y="312" type="curve" smooth="yes"/>
      <point x="839" y="14"/>
      <point x="912" y="-15"/>
    </contour>
    <contour>
      <point x="-20" y="0" type="curve"/>
      <point x="200" y="0" type="line"/>
      <point x="857" y="794" type="line"/>
      <point x="810" y="985" type="line"/>
      <point x="279" y="338" type="line" smooth="yes"/>
      <point x="200" y="241"/>
      <point x="35" y="52"/>
    </contour>
    <contour>
      <point x="512" y="911" type="line"/>
      <point x="1203" y="1318" type="line"/>
      <point x="1179" y="1460" type="line"/>
      <point x="477" y="1053" type="line"/>
    </contour>
  </outline>
</glyph>
<glyph name="LtnCapTrndM" format="2">
  <advance width="2034"/>
  <unicode hex="019C"/>
  <anchor x="1010" y="-143" name="L"/>
  <anchor x="1265" y="1530" name="U"/>
  <outline>
    <contour>
      <point x="358" y="1430" type="line"/>
      <point x="367" y="1387"/>
      <point x="369" y="1337"/>
      <point x="369" y="1284" type="curve" smooth="yes"/>
      <point x="369" y="1226"/>
      <point x="364" y="1161"/>
      <point x="356" y="1090" type="curve" smooth="yes"/>
      <point x="341" y="962"/>
      <point x="220" y="415"/>
      <point x="220" y="259" type="curve" smooth="yes"/>
      <point x="220" y="73"/>
      <point x="317" y="-25"/>
      <point x="481" y="-25" type="curve" smooth="yes"/>
      <point x="659" y="-25"/>
      <point x="829" y="123"/>
      <point x="997" y="410" type="curve"/>
      <point x="992" y="376"/>
      <point x="986" y="270"/>
      <point x="986" y="239" type="curve" smooth="yes"/>
      <point x="986" y="50"/>
      <point x="1100" y="-25"/>
      <point x="1234" y="-25" type="curve" smooth="yes"/>
      <point x="1401" y="-25"/>
      <point x="1551" y="96"/>
      <point x="1730" y="410" type="curve"/>
      <point x="1708" y="306"/>
      <point x="1697" y="172"/>
      <point x="1697" y="56" type="curve" smooth="yes"/>
      <point x="1697" y="34"/>
      <point x="1697" y="16"/>
      <point x="1698" y="0" type="curve"/>
      <point x="1886" y="0" type="line"/>
      <point x="1885" y="24"/>
      <point x="1885" y="51"/>
      <point x="1885" y="79" type="curve" smooth="yes"/>
      <point x="1885" y="250"/>
      <point x="1899" y="450"/>
      <point x="1922" y="572" type="curve" smooth="yes"/>
      <point x="2084" y="1430" type="line"/>
      <point x="1890" y="1430" type="line"/>
      <point x="1792" y="909" type="line"/>
      <point x="1698" y="603"/>
      <point x="1427" y="147"/>
      <point x="1280" y="147" type="curve" smooth="yes"/>
      <point x="1210" y="147"/>
      <point x="1163" y="208"/>
      <point x="1163" y="320" type="curve" smooth="yes"/>
      <point x="1163" y="447"/>
      <point x="1190" y="594"/>
      <point x="1211" y="708" type="curve" smooth="yes"/>
      <point x="1345" y="1430" type="line"/>
      <point x="1152" y="1430" type="line"/>
      <point x="1054" y="889" type="line"/>
      <point x="950" y="534"/>
      <point x="654" y="147"/>
      <point x="525" y="147" type="curve" smooth="yes"/>
      <point x="452" y="147"/>
      <point x="416" y="212"/>
      <point x="416" y="307" type="curve" smooth="yes"/>
      <point x="416" y="472"/>
      <point x="534" y="958"/>
      <point x="551" y="1140" type="curve" smooth="yes"/>
      <point x="557" y="1204"/>
      <point x="560" y="1266"/>
      <point x="560" y="1320" type="curve" smooth="yes"/>
      <point x="560" y="1361"/>
      <point x="556" y="1400"/>
      <point x="552" y="1430" type="curve"/>
    </contour>
  </outline>
</glyph>
<glyph name="LtnCapNLftHook" format="2">
  <advance width="1530"/>
  <unicode hex="019D"/>
  <anchor x="602" y="-500" name="L"/>
  <anchor x="1109" y="1530" name="U"/>
  <outline>
    <contour>
      <point x="-121" y="-465" type="curve" smooth="yes"/>
      <point x="87" y="-465"/>
      <point x="246" y="-332"/>
      <point x="364" y="141" type="curve" smooth="yes"/>
      <point x="686" y="1431" type="line"/>
      <point x="496" y="1431" type="line"/>
      <point x="492" y="1352"/>
      <point x="452" y="1198"/>
      <point x="405" y="1005" type="curve" smooth="yes"/>
      <point x="311" y="623"/>
      <point x="246" y="365"/>
      <point x="172" y="77" type="curve" smooth="yes"/>
      <point x="108" y="-171"/>
      <point x="6" y="-300"/>
      <point x="-103" y="-300" type="curve" smooth="yes"/>
      <point x="-168" y="-300"/>
      <point x="-238" y="-268"/>
      <point x="-273" y="-234" type="curve"/>
      <point x="-348" y="-397" type="line"/>
      <point x="-298" y="-437"/>
      <point x="-210" y="-465"/>
    </contour>
    <contour>
      <point x="1125" y="0" type="line"/>
      <point x="1269" y="98" type="line"/>
      <point x="686" y="1431" type="line"/>
      <point x="541" y="1328" type="line"/>
    </contour>
    <contour>
      <point x="1125" y="0" type="line"/>
      <point x="1300" y="0" type="line"/>
      <point x="1550" y="1005" type="line" smooth="yes"/>
      <point x="1598" y="1198"/>
      <point x="1638" y="1352"/>
      <point x="1671" y="1431" type="curve"/>
      <point x="1481" y="1431" type="line"/>
    </contour>
  </outline>
</glyph>
<glyph name="LtnCapOMiddleTilde" format="2">
  <advance width="1449"/>
  <unicode hex="019F"/>
  <anchor x="632" y="-100" name="L"/>
  <anchor x="1039" y="1530" name="U"/>
  <outline>
    <contour>
      <point x="667" y="-25" type="curve" smooth="yes"/>
      <point x="1079" y="-25"/>
      <point x="1494" y="395"/>
      <point x="1494" y="931" type="curve" smooth="yes"/>
      <point x="1494" y="1263"/>
      <point x="1279" y="1455"/>
      <point x="1016" y="1455" type="curve" smooth="yes"/>
      <point x="600" y="1455"/>
      <point x="185" y="1036"/>
      <point x="185" y="500" type="curve" smooth="yes"/>
      <point x="185" y="167"/>
      <point x="401" y="-25"/>
    </contour>
    <contour>
      <point x="720" y="147" type="curve" smooth="yes"/>
      <point x="515" y="147"/>
      <point x="388" y="300"/>
      <point x="388" y="541" type="curve" smooth="yes"/>
      <point x="388" y="580"/>
      <point x="391" y="617"/>
      <point x="396" y="657" type="curve"/>
      <point x="1259" y="657" type="line"/>
      <point x="1189" y="394"/>
      <point x="1003" y="147"/>
    </contour>
    <contour>
      <point x="427" y="799" type="line"/>
      <point x="503" y="1054"/>
      <point x="689" y="1284"/>
      <point x="964" y="1284" type="curve" smooth="yes"/>
      <point x="1165" y="1284"/>
      <point x="1291" y="1133"/>
      <point x="1291" y="892" type="curve" smooth="yes"/>
      <point x="1291" y="861"/>
      <point x="1289" y="831"/>
      <point x="1286" y="799" type="curve"/>
    </contour>
  </outline>
</glyph>
<glyph name="LtnSmOi" format="2">
  <advance width="1554"/>
  <unicode hex="01A3"/>
  <anchor x="680" y="-100" name="L"/>
  <anchor x="980" y="1100" name="U"/>
  <outline>
    <contour>
      <point x="530" y="-25" type="curve" smooth="yes"/>
      <point x="896" y="-25"/>
      <point x="1138" y="314"/>
      <point x="1138" y="648" type="curve" smooth="yes"/>
      <point x="1138" y="879"/>
      <point x="985" y="1020"/>
      <point x="761" y="1020" type="curve" smooth="yes"/>
      <point x="387" y="1020"/>
      <point x="142" y="677"/>
      <point x="142" y="344" type="curve" smooth="yes"/>
      <point x="142" y="114"/>
      <point x="306" y="-25"/>
    </contour>
    <contour>
      <point x="559" y="132" type="curve" smooth="yes"/>
      <point x="421" y="132"/>
      <point x="333" y="226"/>
      <point x="333" y="380" type="curve" smooth="yes"/>
      <point x="333" y="599"/>
      <point x="486" y="862"/>
      <point x="721" y="862" type="curve" smooth="yes"/>
      <point x="859" y="862"/>
      <point x="947" y="767"/>
      <point x="947" y="611" type="curve" smooth="yes"/>
      <point x="947" y="391"/>
      <point x="795" y="132"/>
    </contour>
    <contour>
      <point x="1050" y="-480" type="line"/>
      <point x="1255" y="-480" type="line"/>
      <point x="1270" y="-368"/>
      <point x="1305" y="-196"/>
      <point x="1353" y="-5" type="curve" smooth="yes"/>
      <point x="1528" y="692" type="line" smooth="yes"/>
      <point x="1538" y="732"/>
      <point x="1543" y="768"/>
      <point x="1543" y="801" type="curve" smooth="yes"/>
      <point x="1543" y="946"/>
      <point x="1451" y="1019"/>
      <point x="1319" y="1019" type="curve" smooth="yes"/>
      <point x="1229" y="1019"/>
      <point x="1122" y="989"/>
      <point x="1024" y="921" type="curve"/>
      <point x="1090" y="804" type="line"/>
      <point x="1138" y="844"/>
      <point x="1194" y="857"/>
      <point x="1243" y="857" type="curve" smooth="yes"/>
      <point x="1310" y="857"/>
      <point x="1345" y="815"/>
      <point x="1345" y="741" type="curve" smooth="yes"/>
      <point x="1345" y="716"/>
      <point x="1341" y="688"/>
      <point x="1333" y="657" type="curve" smooth="yes"/>
    </contour>
  </outline>
</glyph>
<glyph name="LtnCapPHook" format="2">
  <advance width="1587"/>
  <unicode hex="01A4"/>
  <anchor x="677" y="-100" name="L"/>
  <anchor x="1084" y="1530" name="U"/>
  <outline>
    <contour>
      <point x="467" y="0" type="curve"/>
      <point x="687" y="0" type="line"/>
      <point x="691" y="76"/>
      <point x="729" y="232"/>
      <point x="778" y="426" type="curve" smooth="yes"/>
      <point x="810" y="554" type="line"/>
      <point x="873" y="547"/>
      <point x="964" y="544"/>
      <point x="1037" y="544" type="curve" smooth="yes"/>
      <point x="1425" y="544"/>
      <point x="1688" y="733"/>
      <point x="1688" y="1084" type="curve" smooth="yes"/>
      <point x="1688" y="1302"/>
      <point x="1508" y="1441"/>
      <point x="1231" y="1441" type="curve" smooth="yes"/>
      <point x="1076" y="1441"/>
      <point x="909" y="1441"/>
      <point x="826" y="1441" type="curve"/>
      <point x="822" y="1364"/>
      <point x="774" y="1172"/>
      <point x="726" y="980" type="curve" smooth="yes"/>
      <point x="588" y="426" type="line" smooth="yes"/>
      <point x="540" y="233"/>
      <point x="501" y="78"/>
    </contour>
    <contour>
      <point x="247" y="843" type="curve"/>
      <point x="426" y="882" type="line"/>
      <point x="418" y="906"/>
      <point x="414" y="933"/>
      <point x="414" y="964" type="curve" smooth="yes"/>
      <point x="414" y="1212"/>
      <point x="586" y="1284"/>
      <point x="802" y="1284" type="curve" smooth="yes"/>
      <point x="822" y="1284"/>
      <point x="843" y="1284"/>
      <point x="863" y="1284" type="curve"/>
      <point x="946" y="1441" type="line"/>
      <point x="822" y="1441" type="line" smooth="yes"/>
      <point x="469" y="1441"/>
      <point x="236" y="1272"/>
      <point x="236" y="951" type="curve" smooth="yes"/>
      <point x="236" y="908"/>
      <point x="240" y="867"/>
    </contour>
    <contour>
      <point x="1060" y="696" type="curve" smooth="yes"/>
      <point x="985" y="696"/>
      <point x="909" y="698"/>
      <point x="848" y="706" type="curve"/>
      <point x="990" y="1279" type="line"/>
      <point x="1048" y="1282"/>
      <point x="1088" y="1284"/>
      <point x="1182" y="1284" type="curve" smooth="yes"/>
      <point x="1403" y="1284"/>
      <point x="1488" y="1172"/>
      <point x="1488" y="1048" type="curve" smooth="yes"/>
      <point x="1488" y="845"/>
      <point x="1335" y="696"/>
    </contour>
  </outline>
</glyph>
<glyph name="LtnSmPHook" format="2">
  <advance width="1150"/>
  <unicode hex="01A5"/>
  <anchor x="605" y="-100" name="L"/>
  <anchor x="963" y="1635" name="U"/>
  <outline>
    <contour>
      <point x="-2" y="-480" type="curve"/>
      <point x="193" y="-480" type="line"/>
      <point x="193" y="-388"/>
      <point x="207" y="-282"/>
      <point x="233" y="-175" type="curve" smooth="yes"/>
      <point x="298" y="85" type="line"/>
      <point x="377" y="20"/>
      <point x="446" y="-25"/>
      <point x="553" y="-25" type="curve" smooth="yes"/>
      <point x="663" y="-25"/>
      <point x="775" y="9"/>
      <point x="873" y="85" type="curve" smooth="yes"/>
      <point x="1041" y="215"/>
      <point x="1163" y="438"/>
      <point x="1163" y="680" type="curve" smooth="yes"/>
      <point x="1163" y="878"/>
      <point x="1079" y="1020"/>
      <point x="898" y="1020" type="curve" smooth="yes"/>
      <point x="735" y="1020"/>
      <point x="557" y="862"/>
      <point x="440" y="700" type="curve"/>
      <point x="533" y="1053" type="line" smooth="yes"/>
      <point x="579" y="1227"/>
      <point x="674" y="1284"/>
      <point x="772" y="1284" type="curve" smooth="yes"/>
      <point x="839" y="1284"/>
      <point x="902" y="1262"/>
      <point x="947" y="1227" type="curve"/>
      <point x="1030" y="1380" type="line"/>
      <point x="976" y="1419"/>
      <point x="889" y="1450"/>
      <point x="798" y="1450" type="curve" smooth="yes"/>
      <point x="574" y="1450"/>
      <point x="414" y="1318"/>
      <point x="342" y="1025" type="curve" smooth="yes"/>
      <point x="48" y="-175" type="line" smooth="yes"/>
      <point x="22" y="-280"/>
      <point x="-2" y="-398"/>
    </contour>
    <contour>
      <point x="593" y="135" type="curve" smooth="yes"/>
      <point x="501" y="135"/>
      <point x="457" y="161"/>
      <point x="343" y="255" type="curve"/>
      <point x="385" y="432" type="line"/>
      <point x="522" y="656"/>
      <point x="710" y="850"/>
      <point x="818" y="850" type="curve" smooth="yes"/>
      <point x="917" y="850"/>
      <point x="968" y="763"/>
      <point x="968" y="630" type="curve" smooth="yes"/>
      <point x="968" y="491"/>
      <point x="904" y="322"/>
      <point x="793" y="220" type="curve" smooth="yes"/>
      <point x="737" y="168"/>
      <point x="671" y="135"/>
    </contour>
  </outline>
</glyph>
<glyph name="LtnYr" format="2">
  <advance width="1305"/>
  <unicode hex="01A6"/>
  <anchor x="525" y="-100" name="L"/>
  <anchor x="932" y="1530" name="U"/>
  <outline>
    <contour>
      <point x="624" y="495" type="line"/>
      <point x="905" y="-137" type="line"/>
      <point x="1150" y="-137" type="line"/>
      <point x="1101" y="-66"/>
      <point x="786" y="568"/>
      <point x="786" y="568" type="curve"/>
    </contour>
    <contour>
      <point x="320" y="0" type="line"/>
      <point x="324" y="78"/>
      <point x="363" y="233"/>
      <point x="411" y="426" type="curve" smooth="yes"/>
      <point x="555" y="1004" type="line" smooth="yes"/>
      <point x="603" y="1198"/>
      <point x="642" y="1352"/>
      <point x="676" y="1431" type="curve"/>
      <point x="456" y="1431" type="line"/>
      <point x="451" y="1352"/>
      <point x="413" y="1198"/>
      <point x="365" y="1004" type="curve" smooth="yes"/>
      <point x="221" y="426" type="line" smooth="yes"/>
      <point x="173" y="233"/>
      <point x="134" y="78"/>
      <point x="100" y="0" type="curve"/>
    </contour>
    <contour>
      <point x="567" y="1254" type="line"/>
      <point x="567" y="1254"/>
      <point x="528" y="1098"/>
      <point x="528" y="1098" type="curve"/>
      <point x="758" y="1098" type="line" smooth="yes"/>
      <point x="964" y="1098"/>
      <point x="1058" y="1043"/>
      <point x="1058" y="912" type="curve" smooth="yes"/>
      <point x="1058" y="721"/>
      <point x="888" y="637"/>
      <point x="663" y="637" type="curve" smooth="yes"/>
      <point x="413" y="637" type="line"/>
      <point x="413" y="637"/>
      <point x="375" y="485"/>
      <point x="375" y="485" type="curve"/>
      <point x="690" y="485" type="line" smooth="yes"/>
      <point x="960" y="485"/>
      <point x="1258" y="629"/>
      <point x="1258" y="955" type="curve" smooth="yes"/>
      <point x="1258" y="1164"/>
      <point x="1065" y="1254"/>
      <point x="792" y="1254" type="curve" smooth="yes"/>
    </contour>
  </outline>
</glyph>
<glyph name="LtnCapEsh" format="2">
  <advance width="1210"/>
  <unicode hex="01A9"/>
  <anchor x="520" y="-100" name="L"/>
  <anchor x="927" y="1530" name="U"/>
  <outline>
    <contour>
      <point x="833" y="736" type="line"/>
      <point x="586" y="1269" type="line"/>
      <point x="936" y="1269" type="line" smooth="yes"/>
      <point x="1133" y="1269"/>
      <point x="1250" y="1266"/>
      <point x="1326" y="1250" type="curve"/>
      <point x="1371" y="1431" type="line"/>
      <point x="401" y="1431" type="line"/>
      <point x="369" y="1303" type="line"/>
      <point x="624" y="735" type="line"/>
      <point x="46" y="127" type="line"/>
      <point x="15" y="0" type="line"/>
      <point x="1075" y="0" type="line"/>
      <point x="1120" y="181" type="line"/>
      <point x="1036" y="168"/>
      <point x="849" y="162"/>
      <point x="680" y="162" type="curve" smooth="yes"/>
      <point x="280" y="162" type="line"/>
    </contour>
  </outline>
</glyph>
<glyph name="LtnRevEshLoop" format="2">
  <advance width="932"/>
  <unicode hex="01AA"/>
  <anchor x="353" y="-500" name="L"/>
  <anchor x="708" y="1635" name="U"/>
  <outline>
    <contour>
      <point x="916" y="-215" type="line"/>
      <point x="870" y="-264"/>
      <point x="804" y="-295"/>
      <point x="746" y="-295" type="curve" smooth="yes"/>
      <point x="675" y="-295"/>
      <point x="623" y="-240"/>
      <point x="623" y="-121" type="curve" smooth="yes"/>
      <point x="623" y="-89"/>
      <point x="628" y="-54"/>
      <point x="637" y="-18" type="curve" smooth="yes"/>
      <point x="721" y="320"/>
      <point x="870" y="789"/>
      <point x="940" y="1070" type="curve" smooth="yes"/>
      <point x="960" y="1149"/>
      <point x="969" y="1217"/>
      <point x="969" y="1277" type="curve" smooth="yes"/>
      <point x="969" y="1474"/>
      <point x="838" y="1588"/>
      <point x="675" y="1588" type="curve" smooth="yes"/>
      <point x="414" y="1588"/>
      <point x="232" y="1371"/>
      <point x="232" y="1135" type="curve" smooth="yes"/>
      <point x="232" y="957"/>
      <point x="355" y="804"/>
      <point x="510" y="804" type="curve" smooth="yes"/>
      <point x="570" y="804"/>
      <point x="650" y="836"/>
      <point x="699" y="870" type="curve"/>
      <point x="603" y="529"/>
      <point x="475" y="74"/>
      <point x="462" y="21" type="curve" smooth="yes"/>
      <point x="444" y="-50"/>
      <point x="435" y="-115"/>
      <point x="435" y="-172" type="curve" smooth="yes"/>
      <point x="435" y="-353"/>
      <point x="523" y="-465"/>
      <point x="695" y="-465" type="curve" smooth="yes"/>
      <point x="773" y="-465"/>
      <point x="851" y="-441"/>
      <point x="922" y="-392" type="curve"/>
    </contour>
    <contour>
      <point x="549" y="960" type="curve" smooth="yes"/>
      <point x="459" y="960"/>
      <point x="404" y="1042"/>
      <point x="404" y="1145" type="curve" smooth="yes"/>
      <point x="404" y="1287"/>
      <point x="498" y="1431"/>
      <point x="646" y="1431" type="curve" smooth="yes"/>
      <point x="731" y="1431"/>
      <point x="798" y="1357"/>
      <point x="798" y="1249" type="curve" smooth="yes"/>
      <point x="798" y="1108"/>
      <point x="694" y="960"/>
    </contour>
  </outline>
</glyph>
<glyph name="LtnSmTPalHook" format="2">
  <advance width="815"/>
  <unicode hex="01AB"/>
  <anchor x="315" y="-500" name="L"/>
  <anchor x="605" y="1360" name="U"/>
  <outline>
    <contour>
      <point x="465" y="-25" type="curve" smooth="yes"/>
      <point x="535" y="-25"/>
      <point x="656" y="13"/>
      <point x="712" y="52" type="curve"/>
      <point x="752" y="211" type="line"/>
      <point x="665" y="167"/>
      <point x="593" y="134"/>
      <point x="527" y="134" type="curve" smooth="yes"/>
      <point x="448" y="134"/>
      <point x="425" y="188"/>
      <point x="425" y="247" type="curve" smooth="yes"/>
      <point x="425" y="274"/>
      <point x="429" y="301"/>
      <point x="434" y="326" type="curve" smooth="yes"/>
      <point x="470" y="519"/>
      <point x="566" y="843"/>
      <point x="677" y="1294" type="curve"/>
      <point x="492" y="1294" type="line"/>
      <point x="379" y="841"/>
      <point x="263" y="429"/>
      <point x="243" y="301" type="curve" smooth="yes"/>
      <point x="238" y="269"/>
      <point x="236" y="240"/>
      <point x="236" y="213" type="curve" smooth="yes"/>
      <point x="236" y="41"/>
      <point x="330" y="-25"/>
    </contour>
    <contour>
      <point x="177" y="833" type="line"/>
      <point x="887" y="833" type="line"/>
      <point x="923" y="975" type="line"/>
      <point x="213" y="975" type="line"/>
    </contour>
    <contour>
      <point x="203" y="-407" type="line"/>
      <point x="247" y="-444"/>
      <point x="311" y="-461"/>
      <point x="380" y="-461" type="curve" smooth="yes"/>
      <point x="500" y="-461"/>
      <point x="609" y="-365"/>
      <point x="646" y="-216" type="curve" smooth="yes"/>
      <point x="752" y="211" type="line"/>
      <point x="574" y="39" type="line"/>
      <point x="513" y="-206" type="line" smooth="yes"/>
      <point x="495" y="-279"/>
      <point x="435" y="-328"/>
      <point x="378" y="-328" type="curve" smooth="yes"/>
      <point x="322" y="-328"/>
      <point x="285" y="-312"/>
      <point x="249" y="-284" type="curve"/>
    </contour>
  </outline>
</glyph>
<glyph name="LtnCapTHook" format="2">
  <advance width="1321"/>
  <unicode hex="01AC"/>
  <anchor x="616" y="-100" name="L"/>
  <anchor x="1001" y="1530" name="U"/>
  <outline>
    <contour>
      <point x="521" y="0" type="curve"/>
      <point x="751" y="0" type="line"/>
      <point x="753" y="78"/>
      <point x="789" y="233"/>
      <point x="837" y="426" type="curve" smooth="yes"/>
      <point x="1047" y="1269" type="line"/>
      <point x="1287" y="1269" type="line" smooth="yes"/>
      <point x="1377" y="1269"/>
      <point x="1451" y="1266"/>
      <point x="1527" y="1249" type="curve"/>
      <point x="1572" y="1431" type="line"/>
      <point x="682" y="1431" type="line" smooth="yes"/>
      <point x="388" y="1431"/>
      <point x="273" y="1319"/>
      <point x="273" y="1122" type="curve" smooth="yes"/>
      <point x="273" y="1079"/>
      <point x="282" y="1036"/>
      <point x="296" y="1004" type="curve"/>
      <point x="476" y="1044" type="line"/>
      <point x="462" y="1077"/>
      <point x="453" y="1102"/>
      <point x="453" y="1131" type="curve" smooth="yes"/>
      <point x="453" y="1240"/>
      <point x="527" y="1269"/>
      <point x="622" y="1269" type="curve" smooth="yes"/>
      <point x="857" y="1269" type="line"/>
      <point x="647" y="426" type="line" smooth="yes"/>
      <point x="599" y="233"/>
      <point x="557" y="78"/>
    </contour>
  </outline>
</glyph>
<glyph name="LtnSmTHook" format="2">
  <advance width="815"/>
  <unicode hex="01AD"/>
  <anchor x="390" y="-100" name="L"/>
  <anchor x="823" y="1565" name="U"/>
  <outline>
    <contour>
      <point x="465" y="-25" type="curve" smooth="yes"/>
      <point x="535" y="-25"/>
      <point x="634" y="-6"/>
      <point x="740" y="52" type="curve"/>
      <point x="752" y="211" type="line"/>
      <point x="666" y="169"/>
      <point x="593" y="134"/>
      <point x="527" y="134" type="curve" smooth="yes"/>
      <point x="448" y="134"/>
      <point x="425" y="188"/>
      <point x="425" y="247" type="curve" smooth="yes"/>
      <point x="425" y="274"/>
      <point x="429" y="301"/>
      <point x="434" y="326" type="curve" smooth="yes"/>
      <point x="470" y="518"/>
      <point x="489" y="585"/>
      <point x="607" y="1037" type="curve" smooth="yes"/>
      <point x="663" y="1252"/>
      <point x="744" y="1283"/>
      <point x="817" y="1283" type="curve" smooth="yes"/>
      <point x="865" y="1283"/>
      <point x="926" y="1263"/>
      <point x="968" y="1227" type="curve"/>
      <point x="1049" y="1382" type="line"/>
      <point x="993" y="1424"/>
      <point x="904" y="1450"/>
      <point x="838" y="1450" type="curve" smooth="yes"/>
      <point x="651" y="1450"/>
      <point x="501" y="1342"/>
      <point x="430" y="1047" type="curve" smooth="yes"/>
      <point x="308" y="594"/>
      <point x="263" y="429"/>
      <point x="243" y="301" type="curve" smooth="yes"/>
      <point x="238" y="269"/>
      <point x="236" y="240"/>
      <point x="236" y="213" type="curve" smooth="yes"/>
      <point x="236" y="41"/>
      <point x="330" y="-25"/>
    </contour>
    <contour>
      <point x="177" y="833" type="line"/>
      <point x="887" y="833" type="line"/>
      <point x="923" y="975" type="line"/>
      <point x="213" y="975" type="line"/>
    </contour>
  </outline>
</glyph>
<glyph name="LtnCapTRetrHook" format="2">
  <advance width="1245"/>
  <unicode hex="01AE"/>
  <anchor x="690" y="-500" name="L"/>
  <anchor x="944" y="1530" name="U"/>
  <outline>
    <contour>
      <point x="644" y="-363" type="curve" smooth="yes"/>
      <point x="724" y="-363"/>
      <point x="798" y="-341"/>
      <point x="850" y="-312" type="curve"/>
      <point x="838" y="-167" type="line"/>
      <point x="798" y="-190"/>
      <point x="752" y="-201"/>
      <point x="709" y="-201" type="curve" smooth="yes"/>
      <point x="663" y="-201"/>
      <point x="637" y="-164"/>
      <point x="637" y="-103" type="curve" smooth="yes"/>
      <point x="637" y="-83"/>
      <point x="640" y="-59"/>
      <point x="646" y="-34" type="curve" smooth="yes"/>
      <point x="971" y="1269" type="line"/>
      <point x="1211" y="1269" type="line" smooth="yes"/>
      <point x="1301" y="1269"/>
      <point x="1375" y="1266"/>
      <point x="1451" y="1249" type="curve"/>
      <point x="1496" y="1431" type="line"/>
      <point x="341" y="1431" type="line"/>
      <point x="296" y="1249" type="line"/>
      <point x="380" y="1266"/>
      <point x="457" y="1269"/>
      <point x="546" y="1269" type="curve" smooth="yes"/>
      <point x="781" y="1269" type="line"/>
      <point x="450" y="-58" type="line" smooth="yes"/>
      <point x="444" y="-83"/>
      <point x="441" y="-109"/>
      <point x="441" y="-133" type="curve" smooth="yes"/>
      <point x="441" y="-262"/>
      <point x="526" y="-363"/>
    </contour>
  </outline>
</glyph>
<glyph name="LtnCapUpsilon" format="2">
  <advance width="1520"/>
  <unicode hex="01B1"/>
  <anchor x="672" y="-100" name="L"/>
  <anchor x="1079" y="1530" name="U"/>
  <outline>
    <contour>
      <point x="713" y="-25" type="curve" smooth="yes"/>
      <point x="1062" y="-25"/>
      <point x="1395" y="191"/>
      <point x="1512" y="661" type="curve" smooth="yes"/>
      <point x="1527" y="723"/>
      <point x="1535" y="787"/>
      <point x="1535" y="851" type="curve" smooth="yes"/>
      <point x="1535" y="1040"/>
      <point x="1472" y="1224"/>
      <point x="1378" y="1318" type="curve"/>
      <point x="1261" y="1269" type="line"/>
      <point x="1320" y="1195"/>
      <point x="1356" y="1079"/>
      <point x="1356" y="949" type="curve" smooth="yes"/>
      <point x="1356" y="856"/>
      <point x="1343" y="755"/>
      <point x="1318" y="656" type="curve" smooth="yes"/>
      <point x="1236" y="328"/>
      <point x="1021" y="147"/>
      <point x="756" y="147" type="curve" smooth="yes"/>
      <point x="554" y="147"/>
      <point x="401" y="288"/>
      <point x="401" y="541" type="curve" smooth="yes"/>
      <point x="401" y="601"/>
      <point x="410" y="668"/>
      <point x="428" y="741" type="curve" smooth="yes"/>
      <point x="484" y="965"/>
      <point x="611" y="1151"/>
      <point x="766" y="1269" type="curve"/>
      <point x="657" y="1313" type="line"/>
      <point x="467" y="1190"/>
      <point x="302" y="1019"/>
      <point x="232" y="738" type="curve" smooth="yes"/>
      <point x="213" y="660"/>
      <point x="204" y="587"/>
      <point x="204" y="519" type="curve" smooth="yes"/>
      <point x="204" y="179"/>
      <point x="436" y="-25"/>
    </contour>
    <contour>
      <point x="347" y="1254" type="line"/>
      <point x="431" y="1268"/>
      <point x="569" y="1269"/>
      <point x="766" y="1269" type="curve"/>
      <point x="806" y="1431" type="line"/>
      <point x="391" y="1431" type="line"/>
    </contour>
    <contour>
      <point x="1652" y="1254" type="curve"/>
      <point x="1696" y="1431" type="line"/>
      <point x="1301" y="1431" type="line"/>
      <point x="1261" y="1269" type="line"/>
      <point x="1458" y="1269"/>
      <point x="1576" y="1268"/>
    </contour>
  </outline>
</glyph>
<glyph name="LtnCapVHook" format="2">
  <advance width="1439"/>
  <unicode hex="01B2"/>
  <anchor x="595" y="-100" name="L"/>
  <anchor x="972" y="1530" name="U"/>
  <outline>
    <contour>
      <point x="1005" y="1245" type="line"/>
      <point x="1067" y="1277"/>
      <point x="1115" y="1289"/>
      <point x="1171" y="1289" type="curve" smooth="yes"/>
      <point x="1242" y="1289"/>
      <point x="1298" y="1222"/>
      <point x="1298" y="1086" type="curve" smooth="yes"/>
      <point x="1298" y="1036"/>
      <point x="1291" y="976"/>
      <point x="1273" y="907" type="curve" smooth="yes"/>
      <point x="1157" y="452"/>
      <point x="853" y="147"/>
      <point x="641" y="147" type="curve" smooth="yes"/>
      <point x="504" y="147"/>
      <point x="433" y="211"/>
      <point x="433" y="365" type="curve" smooth="yes"/>
      <point x="433" y="426"/>
      <point x="444" y="501"/>
      <point x="467" y="593" type="curve" smooth="yes"/>
      <point x="676" y="1431" type="line"/>
      <point x="466" y="1431" type="line"/>
      <point x="454" y="1320"/>
      <point x="415" y="1145"/>
      <point x="372" y="972" type="curve" smooth="yes"/>
      <point x="261" y="526" type="line" smooth="yes"/>
      <point x="242" y="449"/>
      <point x="233" y="381"/>
      <point x="233" y="321" type="curve" smooth="yes"/>
      <point x="233" y="78"/>
      <point x="382" y="-25"/>
      <point x="588" y="-25" type="curve" smooth="yes"/>
      <point x="998" y="-25"/>
      <point x="1349" y="428"/>
      <point x="1464" y="892" type="curve" smooth="yes"/>
      <point x="1488" y="987"/>
      <point x="1499" y="1069"/>
      <point x="1499" y="1138" type="curve" smooth="yes"/>
      <point x="1499" y="1359"/>
      <point x="1386" y="1455"/>
      <point x="1207" y="1455" type="curve" smooth="yes"/>
      <point x="1135" y="1455"/>
      <point x="1074" y="1440"/>
      <point x="1000" y="1406" type="curve"/>
    </contour>
  </outline>
</glyph>
<glyph name="LtnSmYHook.RtHook" format="2">
  <advance width="1201"/>
  <unicode hex="01B4"/>
  <anchor x="719" y="-100" name="L"/>
  <anchor x="374" y="-410" name="O"/>
  <anchor x="749" y="1100" name="U"/>
  <outline>
    <contour>
      <point x="44" y="-465" type="curve" smooth="yes"/>
      <point x="234" y="-465"/>
      <point x="382" y="-376"/>
      <point x="619" y="0" type="curve" smooth="yes"/>
      <point x="706" y="139"/>
      <point x="960" y="642"/>
      <point x="1063" y="869" type="curve" smooth="yes"/>
      <point x="1155" y="1071"/>
      <point x="1219" y="1133"/>
      <point x="1317" y="1133" type="curve" smooth="yes"/>
      <point x="1365" y="1133"/>
      <point x="1406" y="1116"/>
      <point x="1448" y="1080" type="curve"/>
      <point x="1529" y="1232" type="line"/>
      <point x="1473" y="1274"/>
      <point x="1404" y="1300"/>
      <point x="1338" y="1300" type="curve" smooth="yes"/>
      <point x="1150" y="1300"/>
      <point x="1044" y="1228"/>
      <point x="876" y="858" type="curve" smooth="yes"/>
      <point x="788" y="664"/>
      <point x="563" y="225"/>
      <point x="457" y="54" type="curve" smooth="yes"/>
      <point x="273" y="-242"/>
      <point x="160" y="-295"/>
      <point x="80" y="-295" type="curve" smooth="yes"/>
      <point x="14" y="-295"/>
      <point x="-60" y="-254"/>
      <point x="-93" y="-220" type="curve"/>
      <point x="-191" y="-377" type="line"/>
      <point x="-122" y="-432"/>
      <point x="-51" y="-465"/>
    </contour>
    <contour>
      <point x="413" y="-126" type="curve"/>
      <point x="559" y="55" type="line"/>
      <point x="566" y="333"/>
      <point x="486" y="817"/>
      <point x="347" y="1000" type="curve"/>
      <point x="132" y="1000" type="line"/>
      <point x="251" y="850"/>
      <point x="395" y="482"/>
    </contour>
  </outline>
</glyph>
<glyph name="LtnCapZStrk" format="2">
  <advance width="1210"/>
  <unicode hex="01B5"/>
  <anchor x="520" y="-100" name="L"/>
  <anchor x="890" y="1530" name="U"/>
  <outline>
    <contour>
      <point x="1411" y="1431" type="line"/>
      <point x="401" y="1431" type="line"/>
      <point x="356" y="1250" type="line"/>
      <point x="440" y="1266"/>
      <point x="559" y="1269"/>
      <point x="756" y="1269" type="curve" smooth="yes"/>
      <point x="1116" y="1269" type="line"/>
      <point x="35" y="123" type="line"/>
      <point x="5" y="0" type="line"/>
      <point x="1105" y="0" type="line"/>
      <point x="1150" y="181" type="line"/>
      <point x="1066" y="168"/>
      <point x="906" y="162"/>
      <point x="710" y="162" type="curve" smooth="yes"/>
      <point x="300" y="162" type="line"/>
      <point x="1379" y="1303" type="line"/>
    </contour>
    <contour>
      <point x="398" y="818" type="line"/>
      <point x="363" y="676" type="line"/>
      <point x="1083" y="676" type="line"/>
      <point x="1118" y="818" type="line"/>
    </contour>
  </outline>
</glyph>
<glyph name="LtnCapEzh" format="2">
  <advance width="1350"/>
  <unicode hex="01B7"/>
  <anchor x="435" y="-500" name="L"/>
  <anchor x="972" y="1530" name="U"/>
  <outline>
    <contour>
      <point x="1425" y="1431" type="line"/>
      <point x="435" y="1431" type="line"/>
      <point x="390" y="1250" type="line"/>
      <point x="474" y="1266"/>
      <point x="593" y="1269"/>
      <point x="790" y="1269" type="curve" smooth="yes"/>
      <point x="1160" y="1269" type="line"/>
      <point x="463" y="661" type="line"/>
      <point x="426" y="510" type="line"/>
      <point x="497" y="519"/>
      <point x="572" y="524"/>
      <point x="629" y="524" type="curve" smooth="yes"/>
      <point x="855" y="524"/>
      <point x="983" y="393"/>
      <point x="983" y="217" type="curve" smooth="yes"/>
      <point x="983" y="-45"/>
      <point x="712" y="-289"/>
      <point x="461" y="-289" type="curve" smooth="yes"/>
      <point x="270" y="-289"/>
      <point x="89" y="-177"/>
      <point x="3" y="-83" type="curve"/>
      <point x="-50" y="-294" type="line"/>
      <point x="33" y="-372"/>
      <point x="231" y="-465"/>
      <point x="419" y="-465" type="curve" smooth="yes"/>
      <point x="801" y="-465"/>
      <point x="1181" y="-162"/>
      <point x="1181" y="253" type="curve" smooth="yes"/>
      <point x="1181" y="523"/>
      <point x="978" y="681"/>
      <point x="717" y="683" type="curve"/>
      <point x="1384" y="1264" type="line"/>
    </contour>
  </outline>
</glyph>
<glyph name="LtnCapTnFive" format="2">
  <advance width="1160"/>
  <unicode hex="01BC"/>
  <anchor x="510" y="-100" name="L"/>
  <anchor x="917" y="1530" name="U"/>
  <outline>
    <contour>
      <point x="471" y="-25" type="curve" smooth="yes"/>
      <point x="822" y="-25"/>
      <point x="1123" y="180"/>
      <point x="1123" y="552" type="curve" smooth="yes"/>
      <point x="1123" y="814"/>
      <point x="867" y="942"/>
      <point x="563" y="975" type="curve"/>
      <point x="635" y="1264" type="line"/>
      <point x="1020" y="1264" type="line" smooth="yes"/>
      <point x="1104" y="1264"/>
      <point x="1179" y="1260"/>
      <point x="1250" y="1245" type="curve"/>
      <point x="1296" y="1431" type="line"/>
      <point x="491" y="1431" type="line"/>
      <point x="336" y="808" type="line"/>
      <point x="636" y="808"/>
      <point x="928" y="725"/>
      <point x="928" y="505" type="curve" smooth="yes"/>
      <point x="928" y="280"/>
      <point x="735" y="152"/>
      <point x="527" y="152" type="curve" smooth="yes"/>
      <point x="387" y="152"/>
      <point x="289" y="183"/>
      <point x="194" y="299" type="curve"/>
      <point x="94" y="98" type="line"/>
      <point x="190" y="22"/>
      <point x="316" y="-25"/>
    </contour>
  </outline>
</glyph>
<glyph name="LtnSmTnFive" format="2">
  <advance width="915"/>
  <unicode hex="01BD"/>
  <anchor x="395" y="-100" name="L"/>
  <anchor x="695" y="1100" name="U"/>
  <outline>
    <contour>
      <point x="989" y="1000" type="line"/>
      <point x="349" y="1000" type="line"/>
      <point x="240" y="563" type="line"/>
      <point x="392" y="563"/>
      <point x="690" y="546"/>
      <point x="690" y="366" type="curve" smooth="yes"/>
      <point x="690" y="202"/>
      <point x="560" y="127"/>
      <point x="411" y="127" type="curve" smooth="yes"/>
      <point x="311" y="127"/>
      <point x="223" y="159"/>
      <point x="148" y="235" type="curve"/>
      <point x="65" y="64" type="line"/>
      <point x="138" y="10"/>
      <point x="261" y="-25"/>
      <point x="378" y="-25" type="curve" smooth="yes"/>
      <point x="638" y="-25"/>
      <point x="875" y="127"/>
      <point x="875" y="389" type="curve" smooth="yes"/>
      <point x="875" y="598"/>
      <point x="668" y="688"/>
      <point x="454" y="701" type="curve"/>
      <point x="493" y="857" type="line"/>
      <point x="743" y="857" type="line" smooth="yes"/>
      <point x="817" y="857"/>
      <point x="876" y="850"/>
      <point x="947" y="833" type="curve"/>
    </contour>
  </outline>
</glyph>
<glyph name="LtnWynn" format="2">
  <advance width="1150"/>
  <unicode hex="01BF"/>
  <anchor x="445" y="-500" name="L"/>
  <anchor x="805" y="1100" name="U"/>
  <outline>
    <contour>
      <point x="20" y="-480" type="curve"/>
      <point x="215" y="-480" type="line"/>
      <point x="215" y="-388"/>
      <point x="229" y="-281"/>
      <point x="255" y="-175" type="curve" smooth="yes"/>
      <point x="276" y="-89" type="line"/>
      <point x="685" y="58"/>
      <point x="1180" y="323"/>
      <point x="1180" y="715" type="curve" smooth="yes"/>
      <point x="1180" y="890"/>
      <point x="1056" y="1019"/>
      <point x="864" y="1019" type="curve" smooth="yes"/>
      <point x="731" y="1019"/>
      <point x="600" y="934"/>
      <point x="470" y="800" type="curve"/>
      <point x="477" y="847"/>
      <point x="477" y="909"/>
      <point x="477" y="963" type="curve" smooth="yes"/>
      <point x="477" y="975"/>
      <point x="477" y="982"/>
      <point x="475" y="1000" type="curve"/>
      <point x="295" y="1000" type="line"/>
      <point x="295" y="971" type="line" smooth="yes"/>
      <point x="295" y="819"/>
      <point x="273" y="624"/>
      <point x="235" y="475" type="curve" smooth="yes"/>
      <point x="70" y="-175" type="line" smooth="yes"/>
      <point x="43" y="-281"/>
      <point x="20" y="-398"/>
    </contour>
    <contour>
      <point x="320" y="84" type="curve"/>
      <point x="439" y="559" type="line"/>
      <point x="558" y="736"/>
      <point x="694" y="853"/>
      <point x="822" y="853" type="curve" smooth="yes"/>
      <point x="924" y="853"/>
      <point x="987" y="767"/>
      <point x="987" y="664" type="curve" smooth="yes"/>
      <point x="987" y="402"/>
      <point x="698" y="240"/>
    </contour>
  </outline>
</glyph>
<glyph name="LtnLateralClick" format="2">
  <advance width="830"/>
  <unicode hex="01C1"/>
  <anchor x="240" y="-500" name="L"/>
  <anchor x="773" y="1635" name="U"/>
  <outline>
    <contour>
      <point x="500" y="1568" type="line"/>
      <point x="-10" y="-480" type="line"/>
      <point x="145" y="-480" type="line"/>
      <point x="655" y="1568" type="line"/>
    </contour>
    <contour>
      <point x="855" y="1568" type="line"/>
      <point x="345" y="-480" type="line"/>
      <point x="500" y="-480" type="line"/>
      <point x="1010" y="1568" type="line"/>
    </contour>
  </outline>
</glyph>
<glyph name="LtnAlveolarClick" format="2">
  <advance width="835"/>
  <unicode hex="01C2"/>
  <anchor x="265" y="-500" name="L"/>
  <anchor x="785" y="1635" name="U"/>
  <outline>
    <contour>
      <point x="192" y="632" type="line"/>
      <point x="857" y="632" type="line"/>
      <point x="895" y="784" type="line"/>
      <point x="230" y="784" type="line"/>
    </contour>
    <contour>
      <point x="109" y="299" type="line"/>
      <point x="774" y="299" type="line"/>
      <point x="812" y="451" type="line"/>
      <point x="147" y="451" type="line"/>
    </contour>
    <contour>
      <point x="690" y="1568" type="line"/>
      <point x="180" y="-480" type="line"/>
      <point x="335" y="-480" type="line"/>
      <point x="845" y="1568" type="line"/>
    </contour>
  </outline>
</glyph>
<glyph name="LtnSmOOgonek" format="2">
  <advance width="1133"/>
  <unicode hex="01EB"/>
  <anchor x="510" y="0" name="H"/>
  <anchor x="448" y="-500" name="L"/>
  <anchor x="1330" y="1000" name="R"/>
  <anchor x="785" y="1100" name="U"/>
  <outline>
    <contour>
      <point x="785" y="-235" type="line"/>
      <point x="737" y="-278"/>
      <point x="654" y="-309"/>
      <point x="611" y="-309" type="curve" smooth="yes"/>
      <point x="550" y="-309"/>
      <point x="516" y="-276"/>
      <point x="516" y="-227" type="curve" smooth="yes"/>
      <point x="516" y="-132"/>
      <point x="640" y="-23"/>
      <point x="720" y="8" type="curve" smooth="yes"/>
      <point x="975" y="107"/>
      <point x="1138" y="376"/>
      <point x="1138" y="648" type="curve" smooth="yes"/>
      <point x="1138" y="879"/>
      <point x="985" y="1020"/>
      <point x="761" y="1020" type="curve" smooth="yes"/>
      <point x="387" y="1020"/>
      <point x="142" y="677"/>
      <point x="142" y="344" type="curve" smooth="yes"/>
      <point x="142" y="118"/>
      <point x="300" y="-20"/>
      <point x="519" y="-24" type="curve"/>
      <point x="437" y="-78"/>
      <point x="368" y="-158"/>
      <point x="368" y="-252" type="curve" smooth="yes"/>
      <point x="368" y="-349"/>
      <point x="457" y="-421"/>
      <point x="564" y="-421" type="curve" smooth="yes"/>
      <point x="638" y="-421"/>
      <point x="718" y="-390"/>
      <point x="790" y="-333" type="curve"/>
    </contour>
    <contour>
      <point x="721" y="862" type="curve" smooth="yes"/>
      <point x="859" y="862"/>
      <point x="947" y="767"/>
      <point x="947" y="611" type="curve" smooth="yes"/>
      <point x="947" y="391"/>
      <point x="795" y="132"/>
      <point x="559" y="132" type="curve" smooth="yes"/>
      <point x="421" y="132"/>
      <point x="333" y="226"/>
      <point x="333" y="380" type="curve" smooth="yes"/>
      <point x="333" y="599"/>
      <point x="486" y="862"/>
    </contour>
  </outline>
</glyph>
<glyph name="LtnCapHwair" format="2">
  <advance width="2065"/>
  <unicode hex="01F6"/>
  <anchor x="990" y="-100" name="L"/>
  <anchor x="1397" y="1530" name="U"/>
  <outline>
    <contour>
      <point x="1408" y="-25" type="curve" smooth="yes"/>
      <point x="1776" y="-25"/>
      <point x="2099" y="368"/>
      <point x="2099" y="766" type="curve" smooth="yes"/>
      <point x="2099" y="944"/>
      <point x="1994" y="1019"/>
      <point x="1849" y="1019" type="curve" smooth="yes"/>
      <point x="1789" y="1019"/>
      <point x="1758" y="1008"/>
      <point x="1704" y="985" type="curve"/>
      <point x="1712" y="838" type="line"/>
      <point x="1758" y="859"/>
      <point x="1783" y="862"/>
      <point x="1829" y="862" type="curve" smooth="yes"/>
      <point x="1880" y="862"/>
      <point x="1903" y="809"/>
      <point x="1903" y="730" type="curve" smooth="yes"/>
      <point x="1903" y="365"/>
      <point x="1591" y="137"/>
      <point x="1449" y="137" type="curve" smooth="yes"/>
      <point x="1352" y="137"/>
      <point x="1304" y="204"/>
      <point x="1304" y="297" type="curve" smooth="yes"/>
      <point x="1304" y="337"/>
      <point x="1311" y="385"/>
      <point x="1325" y="442" type="curve" smooth="yes"/>
      <point x="1571" y="1431" type="line"/>
      <point x="1381" y="1431" type="line"/>
      <point x="1228" y="818" type="line"/>
      <point x="508" y="818" type="line"/>
      <point x="661" y="1431" type="line"/>
      <point x="456" y="1431" type="line"/>
      <point x="451" y="1352"/>
      <point x="413" y="1198"/>
      <point x="365" y="1004" type="curve" smooth="yes"/>
      <point x="221" y="426" type="line" smooth="yes"/>
      <point x="173" y="233"/>
      <point x="134" y="78"/>
      <point x="100" y="0" type="curve"/>
      <point x="305" y="0" type="line"/>
      <point x="469" y="661" type="line"/>
      <point x="1189" y="661" type="line"/>
      <point x="1119" y="384" type="line" smooth="yes"/>
      <point x="1107" y="338"/>
      <point x="1102" y="297"/>
      <point x="1102" y="259" type="curve" smooth="yes"/>
      <point x="1102" y="68"/>
      <point x="1249" y="-25"/>
    </contour>
  </outline>
</glyph>
<glyph name="LtnCapWynn" format="2">
  <advance width="1180"/>
  <unicode hex="01F7"/>
  <anchor x="515" y="-500" name="L"/>
  <anchor x="959" y="1530" name="U"/>
  <outline>
    <contour>
      <point x="456" y="1431" type="line"/>
      <point x="451" y="1352"/>
      <point x="411" y="1187"/>
      <point x="363" y="995" type="curve" smooth="yes"/>
      <point x="125" y="44" type="line" smooth="yes"/>
      <point x="77" y="-149"/>
      <point x="26" y="-353"/>
      <point x="-20" y="-480" type="curve"/>
      <point x="195" y="-480" type="line"/>
      <point x="211" y="-356"/>
      <point x="256" y="-175"/>
      <point x="323" y="93" type="curve"/>
      <point x="684" y="266"/>
      <point x="1325" y="701"/>
      <point x="1325" y="1134" type="curve" smooth="yes"/>
      <point x="1325" y="1324"/>
      <point x="1196" y="1455"/>
      <point x="1007" y="1455" type="curve" smooth="yes"/>
      <point x="866" y="1455"/>
      <point x="743" y="1390"/>
      <point x="615" y="1264" type="curve"/>
      <point x="656" y="1431" type="line"/>
    </contour>
    <contour>
      <point x="549" y="1000" type="line"/>
      <point x="686" y="1165"/>
      <point x="837" y="1294"/>
      <point x="967" y="1294" type="curve" smooth="yes"/>
      <point x="1069" y="1294"/>
      <point x="1125" y="1202"/>
      <point x="1125" y="1091" type="curve" smooth="yes"/>
      <point x="1125" y="794"/>
      <point x="721" y="487"/>
      <point x="372" y="289" type="curve"/>
    </contour>
  </outline>
</glyph>
<glyph name="LtnSmYogh" format="2">
  <advance width="910"/>
  <unicode hex="021D"/>
  <anchor x="235" y="-500" name="L"/>
  <anchor x="615" y="1100" name="U"/>
  <outline>
    <contour>
      <point x="229" y="759" type="line"/>
      <point x="372" y="841"/>
      <point x="439" y="862"/>
      <point x="539" y="862" type="curve" smooth="yes"/>
      <point x="661" y="862"/>
      <point x="722" y="798"/>
      <point x="722" y="707" type="curve" smooth="yes"/>
      <point x="722" y="539"/>
      <point x="559" y="418"/>
      <point x="198" y="343" type="curve"/>
      <point x="203" y="196" type="line"/>
      <point x="301" y="222"/>
      <point x="400" y="249"/>
      <point x="490" y="284" type="curve"/>
      <point x="592" y="267"/>
      <point x="648" y="189"/>
      <point x="648" y="111" type="curve" smooth="yes"/>
      <point x="648" y="-91"/>
      <point x="386" y="-240"/>
      <point x="-89" y="-309" type="curve"/>
      <point x="-84" y="-461" type="line"/>
      <point x="411" y="-407"/>
      <point x="837" y="-199"/>
      <point x="837" y="153" type="curve" smooth="yes"/>
      <point x="837" y="264"/>
      <point x="770" y="337"/>
      <point x="667" y="372" type="curve"/>
      <point x="805" y="457"/>
      <point x="914" y="580"/>
      <point x="914" y="735" type="curve" smooth="yes"/>
      <point x="914" y="899"/>
      <point x="777" y="1019"/>
      <point x="584" y="1019" type="curve" smooth="yes"/>
      <point x="463" y="1019"/>
      <point x="365" y="987"/>
      <point x="233" y="916" type="curve"/>
    </contour>
  </outline>
</glyph>
<glyph name="LtnCapNLngRtLeg" format="2">
  <advance width="1475"/>
  <unicode hex="0220"/>
  <anchor x="615" y="-100" name="L"/>
  <anchor x="1062" y="1530" name="U"/>
  <outline>
    <contour>
      <point x="509" y="719" type="line"/>
      <point x="620" y="945"/>
      <point x="907" y="1259"/>
      <point x="1068" y="1259" type="curve" smooth="yes"/>
      <point x="1199" y="1259"/>
      <point x="1262" y="1196"/>
      <point x="1262" y="1050" type="curve" smooth="yes"/>
      <point x="1262" y="978"/>
      <point x="1245" y="885"/>
      <point x="1216" y="769" type="curve" smooth="yes"/>
      <point x="1000" y="-86" type="line" smooth="yes"/>
      <point x="960" y="-246"/>
      <point x="937" y="-369"/>
      <point x="937" y="-480" type="curve"/>
      <point x="1142" y="-480" type="line"/>
      <point x="1140" y="-464"/>
      <point x="1139" y="-447"/>
      <point x="1139" y="-429" type="curve" smooth="yes"/>
      <point x="1139" y="-331"/>
      <point x="1164" y="-206"/>
      <point x="1201" y="-59" type="curve" smooth="yes"/>
      <point x="1432" y="872" type="line" smooth="yes"/>
      <point x="1454" y="962"/>
      <point x="1465" y="1042"/>
      <point x="1465" y="1112" type="curve" smooth="yes"/>
      <point x="1465" y="1339"/>
      <point x="1352" y="1455"/>
      <point x="1162" y="1455" type="curve" smooth="yes"/>
      <point x="965" y="1455"/>
      <point x="781" y="1310"/>
      <point x="572" y="1052" type="curve"/>
      <point x="598" y="1155"/>
      <point x="608" y="1274"/>
      <point x="608" y="1358" type="curve" smooth="yes"/>
      <point x="608" y="1385"/>
      <point x="607" y="1408"/>
      <point x="605" y="1426" type="curve"/>
      <point x="410" y="1426" type="line"/>
      <point x="412" y="1406"/>
      <point x="413" y="1383"/>
      <point x="413" y="1357" type="curve" smooth="yes"/>
      <point x="413" y="1209"/>
      <point x="384" y="982"/>
      <point x="354" y="862" type="curve" smooth="yes"/>
      <point x="244" y="421" type="line" smooth="yes"/>
      <point x="196" y="228"/>
      <point x="149" y="66"/>
      <point x="125" y="0" type="curve"/>
      <point x="330" y="0" type="line"/>
    </contour>
  </outline>
</glyph>
<glyph name="LtnSmDCurl" format="2">
  <advance width="1415"/>
  <unicode hex="0221"/>
  <anchor x="650" y="-250" name="L"/>
  <anchor x="953" y="1635" name="U"/>
  <outline>
    <contour>
      <point x="686" y="-186" type="line"/>
      <point x="726" y="-17"/>
      <point x="794" y="160"/>
      <point x="930" y="273" type="curve" smooth="yes"/>
      <point x="1007" y="337"/>
      <point x="1084" y="358"/>
      <point x="1157" y="358" type="curve" smooth="yes"/>
      <point x="1244" y="358"/>
      <point x="1306" y="298"/>
      <point x="1306" y="227" type="curve" smooth="yes"/>
      <point x="1306" y="155"/>
      <point x="1258" y="98"/>
      <point x="1182" y="98" type="curve" smooth="yes"/>
      <point x="1115" y="98"/>
      <point x="1060" y="139"/>
      <point x="1060" y="246" type="curve" smooth="yes"/>
      <point x="1060" y="288"/>
      <point x="1067" y="339"/>
      <point x="1082" y="402" type="curve" smooth="yes"/>
      <point x="1267" y="1175" type="line" smooth="yes"/>
      <point x="1309" y="1351"/>
      <point x="1337" y="1475"/>
      <point x="1337" y="1570" type="curve"/>
      <point x="1144" y="1570" type="line"/>
      <point x="1144" y="1456"/>
      <point x="1114" y="1327"/>
      <point x="1079" y="1175" type="curve" smooth="yes"/>
      <point x="1024" y="935" type="line"/>
      <point x="957" y="978"/>
      <point x="854" y="1020"/>
      <point x="759" y="1020" type="curve" smooth="yes"/>
      <point x="650" y="1020"/>
      <point x="534" y="979"/>
      <point x="429" y="895" type="curve" smooth="yes"/>
      <point x="262" y="761"/>
      <point x="139" y="532"/>
      <point x="139" y="288" type="curve" smooth="yes"/>
      <point x="139" y="94"/>
      <point x="250" y="-25"/>
      <point x="424" y="-25" type="curve" smooth="yes"/>
      <point x="563" y="-25"/>
      <point x="791" y="141"/>
      <point x="899" y="305" type="curve"/>
      <point x="894" y="281"/>
      <point x="891" y="255"/>
      <point x="891" y="229" type="curve" smooth="yes"/>
      <point x="891" y="102"/>
      <point x="954" y="-39"/>
      <point x="1133" y="-39" type="curve" smooth="yes"/>
      <point x="1317" y="-39"/>
      <point x="1439" y="99"/>
      <point x="1439" y="253" type="curve" smooth="yes"/>
      <point x="1439" y="386"/>
      <point x="1328" y="470"/>
      <point x="1197" y="470" type="curve" smooth="yes"/>
      <point x="1083" y="470"/>
      <point x="972" y="434"/>
      <point x="870" y="353" type="curve" smooth="yes"/>
      <point x="707" y="225"/>
      <point x="610" y="24"/>
      <point x="581" y="-167" type="curve"/>
    </contour>
    <contour>
      <point x="479" y="130" type="curve" smooth="yes"/>
      <point x="374" y="130"/>
      <point x="330" y="195"/>
      <point x="330" y="316" type="curve" smooth="yes"/>
      <point x="330" y="460"/>
      <point x="397" y="649"/>
      <point x="509" y="760" type="curve" smooth="yes"/>
      <point x="572" y="822"/>
      <point x="643" y="855"/>
      <point x="734" y="855" type="curve" smooth="yes"/>
      <point x="835" y="855"/>
      <point x="898" y="832"/>
      <point x="984" y="780" type="curve"/>
      <point x="930" y="545" type="line"/>
      <point x="846" y="370"/>
      <point x="592" y="130"/>
    </contour>
  </outline>
</glyph>
<glyph name="LtnCapOu" format="2">
  <advance width="1180"/>
  <unicode hex="0222"/>
  <anchor x="515" y="-100" name="L"/>
  <anchor x="922" y="1530" name="U"/>
  <outline>
    <contour>
      <point x="541" y="789" type="line"/>
      <point x="323" y="713"/>
      <point x="125" y="594"/>
      <point x="125" y="336" type="curve" smooth="yes"/>
      <point x="125" y="133"/>
      <point x="302" y="-25"/>
      <point x="559" y="-25" type="curve" smooth="yes"/>
      <point x="862" y="-25"/>
      <point x="1155" y="162"/>
      <point x="1155" y="469" type="curve" smooth="yes"/>
      <point x="1155" y="630"/>
      <point x="1039" y="724"/>
      <point x="846" y="828" type="curve" smooth="yes"/>
      <point x="660" y="928"/>
      <point x="551" y="988"/>
      <point x="551" y="1084" type="curve" smooth="yes"/>
      <point x="551" y="1240"/>
      <point x="713" y="1298"/>
      <point x="843" y="1298" type="curve" smooth="yes"/>
      <point x="972" y="1298"/>
      <point x="1073" y="1215"/>
      <point x="1073" y="1114" type="curve" smooth="yes"/>
      <point x="1073" y="957"/>
      <point x="932" y="887"/>
      <point x="772" y="833" type="curve"/>
      <point x="937" y="774" type="line"/>
      <point x="1099" y="848"/>
      <point x="1266" y="960"/>
      <point x="1266" y="1143" type="curve" smooth="yes"/>
      <point x="1266" y="1321"/>
      <point x="1098" y="1455"/>
      <point x="877" y="1455" type="curve" smooth="yes"/>
      <point x="638" y="1455"/>
      <point x="359" y="1312"/>
      <point x="359" y="1053" type="curve" smooth="yes"/>
      <point x="359" y="909"/>
      <point x="490" y="783"/>
      <point x="673" y="696" type="curve" smooth="yes"/>
      <point x="857" y="609"/>
      <point x="958" y="534"/>
      <point x="958" y="424" type="curve" smooth="yes"/>
      <point x="958" y="222"/>
      <point x="767" y="142"/>
      <point x="595" y="142" type="curve" smooth="yes"/>
      <point x="446" y="142"/>
      <point x="320" y="234"/>
      <point x="320" y="375" type="curve" smooth="yes"/>
      <point x="320" y="588"/>
      <point x="506" y="665"/>
      <point x="685" y="725" type="curve"/>
    </contour>
  </outline>
</glyph>
<glyph name="LtnSmOu" format="2">
  <advance width="1120"/>
  <unicode hex="0223"/>
  <anchor x="485" y="-100" name="L"/>
  <anchor x="918" y="1635" name="U"/>
  <outline>
    <contour>
      <point x="539" y="862" type="line"/>
      <point x="327" y="786"/>
      <point x="138" y="629"/>
      <point x="138" y="358" type="curve" smooth="yes"/>
      <point x="138" y="144"/>
      <point x="296" y="-25"/>
      <point x="534" y="-25" type="curve" smooth="yes"/>
      <point x="847" y="-25"/>
      <point x="1100" y="215"/>
      <point x="1100" y="513" type="curve" smooth="yes"/>
      <point x="1100" y="693"/>
      <point x="985" y="816"/>
      <point x="825" y="906" type="curve" smooth="yes"/>
      <point x="672" y="993"/>
      <point x="574" y="1081"/>
      <point x="574" y="1184" type="curve" smooth="yes"/>
      <point x="574" y="1338"/>
      <point x="712" y="1431"/>
      <point x="837" y="1431" type="curve" smooth="yes"/>
      <point x="963" y="1431"/>
      <point x="1044" y="1348"/>
      <point x="1044" y="1231" type="curve" smooth="yes"/>
      <point x="1044" y="1045"/>
      <point x="903" y="969"/>
      <point x="756" y="907" type="curve"/>
      <point x="900" y="843" type="line"/>
      <point x="1087" y="938"/>
      <point x="1232" y="1056"/>
      <point x="1232" y="1267" type="curve" smooth="yes"/>
      <point x="1232" y="1467"/>
      <point x="1064" y="1588"/>
      <point x="880" y="1588" type="curve" smooth="yes"/>
      <point x="623" y="1588"/>
      <point x="388" y="1403"/>
      <point x="388" y="1149" type="curve" smooth="yes"/>
      <point x="388" y="992"/>
      <point x="506" y="858"/>
      <point x="666" y="769" type="curve" smooth="yes"/>
      <point x="828" y="680"/>
      <point x="906" y="580"/>
      <point x="906" y="465" type="curve" smooth="yes"/>
      <point x="906" y="260"/>
      <point x="746" y="132"/>
      <point x="573" y="132" type="curve" smooth="yes"/>
      <point x="426" y="132"/>
      <point x="328" y="242"/>
      <point x="328" y="391" type="curve" smooth="yes"/>
      <point x="328" y="617"/>
      <point x="489" y="730"/>
      <point x="671" y="789" type="curve"/>
    </contour>
  </outline>
</glyph>
<glyph name="LtnCapZHook" format="2">
  <advance width="1210"/>
  <unicode hex="0224"/>
  <anchor x="345" y="-500" name="L"/>
  <anchor x="927" y="1530" name="U"/>
  <outline>
    <contour>
      <point x="884" y="-323" type="line"/>
      <point x="1010" y="-222"/>
      <point x="1096" y="-87"/>
      <point x="1096" y="54" type="curve" smooth="yes"/>
      <point x="1096" y="99"/>
      <point x="1087" y="138"/>
      <point x="1065" y="162" type="curve"/>
      <point x="300" y="162" type="line"/>
      <point x="1379" y="1303" type="line"/>
      <point x="1411" y="1431" type="line"/>
      <point x="401" y="1431" type="line"/>
      <point x="356" y="1249" type="line"/>
      <point x="440" y="1266"/>
      <point x="559" y="1269"/>
      <point x="756" y="1269" type="curve" smooth="yes"/>
      <point x="1116" y="1269" type="line"/>
      <point x="35" y="122" type="line"/>
      <point x="5" y="0" type="line"/>
      <point x="915" y="0" type="line"/>
      <point x="915" y="-121"/>
      <point x="840" y="-228"/>
      <point x="754" y="-304" type="curve"/>
    </contour>
  </outline>
</glyph>
<glyph name="LtnSmNCurl" format="2">
  <advance width="1400"/>
  <unicode hex="0235"/>
  <anchor x="585" y="-250" name="L"/>
  <anchor x="873" y="1100" name="U"/>
  <outline>
    <contour>
      <point x="115" y="0" type="line"/>
      <point x="300" y="0" type="line"/>
      <point x="392" y="370" type="line"/>
      <point x="478" y="573"/>
      <point x="708" y="850"/>
      <point x="835" y="850" type="curve" smooth="yes"/>
      <point x="927" y="850"/>
      <point x="975" y="798"/>
      <point x="975" y="680" type="curve" smooth="yes"/>
      <point x="975" y="573"/>
      <point x="885" y="338"/>
      <point x="885" y="217" type="curve" smooth="yes"/>
      <point x="885" y="63"/>
      <point x="978" y="-38"/>
      <point x="1142" y="-38" type="curve" smooth="yes"/>
      <point x="1321" y="-38"/>
      <point x="1459" y="100"/>
      <point x="1459" y="266" type="curve" smooth="yes"/>
      <point x="1459" y="384"/>
      <point x="1366" y="471"/>
      <point x="1204" y="471" type="curve" smooth="yes"/>
      <point x="1123" y="471"/>
      <point x="1041" y="454"/>
      <point x="963" y="418" type="curve" smooth="yes"/>
      <point x="784" y="336"/>
      <point x="625" y="152"/>
      <point x="546" y="-166" type="curve"/>
      <point x="650" y="-185" type="line"/>
      <point x="714" y="72"/>
      <point x="823" y="213"/>
      <point x="933" y="286" type="curve" smooth="yes"/>
      <point x="1018" y="342"/>
      <point x="1103" y="359"/>
      <point x="1171" y="359" type="curve" smooth="yes"/>
      <point x="1285" y="359"/>
      <point x="1325" y="296"/>
      <point x="1325" y="235" type="curve" smooth="yes"/>
      <point x="1325" y="154"/>
      <point x="1257" y="99"/>
      <point x="1181" y="99" type="curve" smooth="yes"/>
      <point x="1119" y="99"/>
      <point x="1078" y="138"/>
      <point x="1078" y="238" type="curve" smooth="yes"/>
      <point x="1078" y="394"/>
      <point x="1175" y="603"/>
      <point x="1175" y="745" type="curve" smooth="yes"/>
      <point x="1175" y="917"/>
      <point x="1100" y="1020"/>
      <point x="935" y="1020" type="curve" smooth="yes"/>
      <point x="755" y="1020"/>
      <point x="581" y="870"/>
      <point x="445" y="672" type="curve"/>
      <point x="463" y="740"/>
      <point x="477" y="873"/>
      <point x="477" y="957" type="curve" smooth="yes"/>
      <point x="477" y="973"/>
      <point x="476" y="988"/>
      <point x="475" y="1000" type="curve"/>
      <point x="294" y="1000" type="line"/>
      <point x="294" y="961" type="line" smooth="yes"/>
      <point x="294" y="833"/>
      <point x="283" y="679"/>
      <point x="262" y="595" type="curve" smooth="yes"/>
    </contour>
  </outline>
</glyph>
<glyph name="LtnSmTCurl" format="2">
  <advance width="905"/>
  <unicode hex="0236"/>
  <anchor x="495" y="-100" name="L"/>
  <anchor x="665" y="1360" name="U"/>
  <outline>
    <contour>
      <point x="62" y="-186" type="line"/>
      <point x="121" y="50"/>
      <point x="217" y="187"/>
      <point x="318" y="265" type="curve" smooth="yes"/>
      <point x="411" y="337"/>
      <point x="508" y="358"/>
      <point x="583" y="358" type="curve" smooth="yes"/>
      <point x="697" y="358"/>
      <point x="737" y="295"/>
      <point x="737" y="234" type="curve" smooth="yes"/>
      <point x="737" y="153"/>
      <point x="669" y="98"/>
      <point x="593" y="98" type="curve" smooth="yes"/>
      <point x="531" y="98"/>
      <point x="490" y="137"/>
      <point x="490" y="237" type="curve" smooth="yes"/>
      <point x="490" y="362"/>
      <point x="630" y="843"/>
      <point x="737" y="1294" type="curve"/>
      <point x="552" y="1294" type="line"/>
      <point x="446" y="841"/>
      <point x="297" y="347"/>
      <point x="297" y="216" type="curve" smooth="yes"/>
      <point x="297" y="62"/>
      <point x="390" y="-39"/>
      <point x="554" y="-39" type="curve" smooth="yes"/>
      <point x="733" y="-39"/>
      <point x="871" y="99"/>
      <point x="871" y="265" type="curve" smooth="yes"/>
      <point x="871" y="383"/>
      <point x="778" y="470"/>
      <point x="616" y="470" type="curve" smooth="yes"/>
      <point x="523" y="470"/>
      <point x="429" y="448"/>
      <point x="341" y="400" type="curve" smooth="yes"/>
      <point x="176" y="311"/>
      <point x="32" y="131"/>
      <point x="-42" y="-167" type="curve"/>
    </contour>
    <contour>
      <point x="237" y="833" type="line"/>
      <point x="947" y="833" type="line"/>
      <point x="983" y="975" type="line"/>
      <point x="273" y="975" type="line"/>
    </contour>
  </outline>
</glyph>
<glyph name="LtnSmDBDigraph" format="2">
  <advance width="1844"/>
  <unicode hex="0238"/>
  <anchor x="850" y="-100" name="L"/>
  <anchor x="1230" y="1635" name="U"/>
  <outline>
    <contour>
      <point x="424" y="-25" type="curve" smooth="yes"/>
      <point x="543" y="-25"/>
      <point x="724" y="88"/>
      <point x="852" y="252" type="curve"/>
      <point x="810" y="85" type="line"/>
      <point x="898" y="44"/>
      <point x="1055" y="-25"/>
      <point x="1217" y="-25" type="curve" smooth="yes"/>
      <point x="1375" y="-25"/>
      <point x="1495" y="24"/>
      <point x="1607" y="125" type="curve" smooth="yes"/>
      <point x="1750" y="255"/>
      <point x="1862" y="466"/>
      <point x="1862" y="695" type="curve" smooth="yes"/>
      <point x="1862" y="930"/>
      <point x="1746" y="1020"/>
      <point x="1607" y="1020" type="curve" smooth="yes"/>
      <point x="1454" y="1020"/>
      <point x="1284" y="878"/>
      <point x="1156" y="719" type="curve"/>
      <point x="1252" y="1105" type="line" smooth="yes"/>
      <point x="1300" y="1296"/>
      <point x="1327" y="1508"/>
      <point x="1327" y="1570" type="curve"/>
      <point x="1137" y="1570" type="line"/>
      <point x="1137" y="1456"/>
      <point x="1103" y="1246"/>
      <point x="1067" y="1105" type="curve" smooth="yes"/>
      <point x="1024" y="935" type="line"/>
      <point x="957" y="978"/>
      <point x="854" y="1020"/>
      <point x="759" y="1020" type="curve" smooth="yes"/>
      <point x="650" y="1020"/>
      <point x="534" y="979"/>
      <point x="429" y="895" type="curve" smooth="yes"/>
      <point x="262" y="761"/>
      <point x="139" y="532"/>
      <point x="139" y="288" type="curve" smooth="yes"/>
      <point x="139" y="94"/>
      <point x="250" y="-25"/>
    </contour>
    <contour>
      <point x="479" y="130" type="curve" smooth="yes"/>
      <point x="374" y="130"/>
      <point x="330" y="195"/>
      <point x="330" y="316" type="curve" smooth="yes"/>
      <point x="330" y="460"/>
      <point x="397" y="649"/>
      <point x="509" y="760" type="curve" smooth="yes"/>
      <point x="572" y="822"/>
      <point x="643" y="855"/>
      <point x="734" y="855" type="curve" smooth="yes"/>
      <point x="835" y="855"/>
      <point x="898" y="832"/>
      <point x="984" y="780" type="curve"/>
      <point x="930" y="545" type="line"/>
      <point x="846" y="370"/>
      <point x="592" y="130"/>
    </contour>
    <contour>
      <point x="1252" y="125" type="curve" smooth="yes"/>
      <point x="1166" y="125"/>
      <point x="1076" y="167"/>
      <point x="1025" y="200" type="curve"/>
      <point x="1082" y="429" type="line"/>
      <point x="1185" y="617"/>
      <point x="1408" y="850"/>
      <point x="1522" y="850" type="curve" smooth="yes"/>
      <point x="1613" y="850"/>
      <point x="1672" y="784"/>
      <point x="1672" y="635" type="curve" smooth="yes"/>
      <point x="1672" y="469"/>
      <point x="1609" y="336"/>
      <point x="1522" y="250" type="curve" smooth="yes"/>
      <point x="1441" y="169"/>
      <point x="1338" y="125"/>
    </contour>
  </outline>
</glyph>
<glyph name="LtnSmQPDigraph" format="2">
  <advance width="1811"/>
  <unicode hex="0239"/>
  <anchor x="745" y="-535" name="L"/>
  <anchor x="1125" y="1100" name="U"/>
  <outline>
    <contour>
      <point x="648" y="-480" type="curve"/>
      <point x="843" y="-480" type="line"/>
      <point x="843" y="-391"/>
      <point x="858" y="-294"/>
      <point x="885" y="-185" type="curve" smooth="yes"/>
      <point x="1074" y="578" type="line"/>
      <point x="1070" y="602" type="line"/>
      <point x="1155" y="945" type="line"/>
      <point x="1056" y="981"/>
      <point x="946" y="1020"/>
      <point x="825" y="1020" type="curve" smooth="yes"/>
      <point x="675" y="1020"/>
      <point x="550" y="977"/>
      <point x="440" y="890" type="curve" smooth="yes"/>
      <point x="260" y="747"/>
      <point x="135" y="505"/>
      <point x="135" y="285" type="curve" smooth="yes"/>
      <point x="135" y="73"/>
      <point x="261" y="-25"/>
      <point x="380" y="-25" type="curve" smooth="yes"/>
      <point x="524" y="-25"/>
      <point x="751" y="172"/>
      <point x="825" y="300" type="curve"/>
      <point x="693" y="-180" type="line" smooth="yes"/>
      <point x="662" y="-294"/>
      <point x="648" y="-414"/>
    </contour>
    <contour>
      <point x="455" y="140" type="curve" smooth="yes"/>
      <point x="376" y="140"/>
      <point x="330" y="199"/>
      <point x="330" y="330" type="curve" smooth="yes"/>
      <point x="330" y="481"/>
      <point x="400" y="658"/>
      <point x="515" y="760" type="curve" smooth="yes"/>
      <point x="580" y="817"/>
      <point x="658" y="855"/>
      <point x="750" y="855" type="curve" smooth="yes"/>
      <point x="811" y="855"/>
      <point x="893" y="840"/>
      <point x="947" y="817" type="curve"/>
      <point x="885" y="565" type="line"/>
      <point x="807" y="413"/>
      <point x="550" y="140"/>
    </contour>
    <contour>
      <point x="1201" y="-25" type="curve" smooth="yes"/>
      <point x="1311" y="-25"/>
      <point x="1423" y="9"/>
      <point x="1521" y="85" type="curve" smooth="yes"/>
      <point x="1689" y="215"/>
      <point x="1811" y="438"/>
      <point x="1811" y="680" type="curve" smooth="yes"/>
      <point x="1811" y="878"/>
      <point x="1727" y="1020"/>
      <point x="1546" y="1020" type="curve" smooth="yes"/>
      <point x="1383" y="1020"/>
      <point x="1182" y="845"/>
      <point x="1045" y="636" type="curve"/>
      <point x="1000" y="381" type="line"/>
      <point x="1179" y="677"/>
      <point x="1362" y="850"/>
      <point x="1466" y="850" type="curve" smooth="yes"/>
      <point x="1565" y="850"/>
      <point x="1616" y="763"/>
      <point x="1616" y="630" type="curve" smooth="yes"/>
      <point x="1616" y="491"/>
      <point x="1552" y="322"/>
      <point x="1441" y="220" type="curve" smooth="yes"/>
      <point x="1385" y="168"/>
      <point x="1319" y="135"/>
      <point x="1231" y="135" type="curve" smooth="yes"/>
      <point x="1154" y="135"/>
      <point x="1083" y="171"/>
      <point x="965" y="279" type="curve"/>
      <point x="917" y="109" type="line"/>
      <point x="1021" y="20"/>
      <point x="1094" y="-25"/>
    </contour>
  </outline>
</glyph>
<glyph name="LtnCapAStrk" format="2">
  <advance width="1375"/>
  <unicode hex="023A"/>
  <anchor x="627" y="0" name="H"/>
  <anchor x="602" y="-180" name="L"/>
  <anchor x="1370" y="0" name="O"/>
  <anchor x="980" y="1530" name="U"/>
  <outline>
    <contour>
      <point x="1550" y="1568" type="line"/>
      <point x="1395" y="1568" type="line"/>
      <point x="1111" y="1177" type="line"/>
      <point x="1081" y="1431" type="line"/>
      <point x="866" y="1431" type="line"/>
      <point x="196" y="348" type="line" smooth="yes"/>
      <point x="83" y="165"/>
      <point x="25" y="79"/>
      <point x="-30" y="0" type="curve"/>
      <point x="185" y="0" type="line"/>
      <point x="413" y="377" type="line"/>
      <point x="531" y="377" type="line"/>
      <point x="176" y="-113" type="line"/>
      <point x="331" y="-113" type="line"/>
      <point x="686" y="377" type="line"/>
      <point x="1029" y="377" type="line"/>
      <point x="1070" y="0" type="line"/>
      <point x="1265" y="0" type="line"/>
      <point x="1249" y="78"/>
      <point x="1233" y="166"/>
      <point x="1211" y="348" type="curve" smooth="yes"/>
      <point x="1133" y="994" type="line"/>
    </contour>
    <contour>
      <point x="934" y="1240" type="line"/>
      <point x="963" y="973" type="line"/>
      <point x="642" y="529" type="line"/>
      <point x="505" y="529" type="line"/>
    </contour>
    <contour>
      <point x="984" y="787" type="line"/>
      <point x="1012" y="529" type="line"/>
      <point x="797" y="529" type="line"/>
    </contour>
  </outline>
</glyph>
<glyph name="LtnSmCStrk" format="2">
  <advance width="1000"/>
  <unicode hex="023C"/>
  <outline>
    <component base="LtnSmC" xOffset="-60"/>
    <contour>
      <point x="976" y="1107" type="line"/>
      <point x="91" y="-113" type="line"/>
      <point x="236" y="-113" type="line"/>
      <point x="1121" y="1107" type="line"/>
    </contour>
  </outline>
</glyph>
<glyph name="LtnCapLBar" format="2">
  <advance width="1164"/>
  <unicode hex="023D"/>
  <anchor x="557" y="-100" name="L"/>
  <anchor x="964" y="1530" name="U"/>
  <outline>
    <contour>
      <point x="395" y="162" type="line"/>
      <point x="711" y="1431" type="line"/>
      <point x="506" y="1431" type="line"/>
      <point x="502" y="1352"/>
      <point x="463" y="1197"/>
      <point x="415" y="1005" type="curve" smooth="yes"/>
      <point x="271" y="426" type="line" smooth="yes"/>
      <point x="223" y="233"/>
      <point x="184" y="78"/>
      <point x="150" y="0" type="curve"/>
      <point x="1015" y="0" type="line"/>
      <point x="1058" y="176" type="line"/>
      <point x="975" y="163"/>
      <point x="816" y="162"/>
      <point x="619" y="162" type="curve" smooth="yes"/>
    </contour>
    <contour>
      <point x="193" y="818" type="line"/>
      <point x="158" y="676" type="line"/>
      <point x="823" y="676" type="line"/>
      <point x="858" y="818" type="line"/>
    </contour>
  </outline>
</glyph>
<glyph name="LtnSmZSwashTail" format="2">
  <advance width="969"/>
  <unicode hex="0240"/>
  <anchor x="290" y="-500" name="L"/>
  <anchor x="715" y="1100" name="U"/>
  <outline>
    <contour>
      <point x="912" y="-270" type="line"/>
      <point x="884" y="-290"/>
      <point x="832" y="-304"/>
      <point x="794" y="-304" type="curve" smooth="yes"/>
      <point x="702" y="-304"/>
      <point x="610" y="-192"/>
      <point x="524" y="-85" type="curve" smooth="yes"/>
      <point x="449" y="8"/>
      <point x="371" y="97"/>
      <point x="271" y="106" type="curve"/>
      <point x="1045" y="906" type="line"/>
      <point x="1069" y="1000" type="line"/>
      <point x="274" y="1000" type="line"/>
      <point x="233" y="828" type="line"/>
      <point x="274" y="843"/>
      <point x="333" y="853"/>
      <point x="392" y="853" type="curve" smooth="yes"/>
      <point x="802" y="853" type="line"/>
      <point x="25" y="47" type="line"/>
      <point x="84" y="-25" type="line"/>
      <point x="95" y="-23"/>
      <point x="105" y="-23"/>
      <point x="116" y="-23" type="curve" smooth="yes"/>
      <point x="226" y="-23"/>
      <point x="308" y="-107"/>
      <point x="388" y="-201" type="curve" smooth="yes"/>
      <point x="491" y="-322"/>
      <point x="589" y="-461"/>
      <point x="740" y="-461" type="curve" smooth="yes"/>
      <point x="803" y="-461"/>
      <point x="868" y="-448"/>
      <point x="915" y="-421" type="curve"/>
    </contour>
  </outline>
</glyph>
<glyph name="LtnCapGlottalStop" format="2">
  <advance width="1078"/>
  <unicode hex="0241"/>
  <anchor x="363" y="-100" name="L"/>
  <anchor x="770" y="1530" name="U"/>
  <outline>
    <contour>
      <point x="303" y="1114" type="line"/>
      <point x="436" y="1229"/>
      <point x="584" y="1284"/>
      <point x="758" y="1284" type="curve" smooth="yes"/>
      <point x="940" y="1284"/>
      <point x="1010" y="1218"/>
      <point x="1010" y="1132" type="curve" smooth="yes"/>
      <point x="1010" y="1007"/>
      <point x="863" y="924"/>
      <point x="765" y="863" type="curve" smooth="yes"/>
      <point x="613" y="768"/>
      <point x="470" y="654"/>
      <point x="400" y="374" type="curve" smooth="yes"/>
      <point x="349" y="168"/>
      <point x="327" y="80"/>
      <point x="292" y="0" type="curve"/>
      <point x="512" y="0" type="line"/>
      <point x="517" y="80"/>
      <point x="538" y="168"/>
      <point x="593" y="385" type="curve" smooth="yes"/>
      <point x="652" y="618"/>
      <point x="766" y="664"/>
      <point x="901" y="748" type="curve" smooth="yes"/>
      <point x="1064" y="850"/>
      <point x="1207" y="981"/>
      <point x="1207" y="1159" type="curve" smooth="yes"/>
      <point x="1207" y="1321"/>
      <point x="1052" y="1455"/>
      <point x="797" y="1455" type="curve" smooth="yes"/>
      <point x="582" y="1455"/>
      <point x="453" y="1407"/>
      <point x="308" y="1300" type="curve"/>
    </contour>
  </outline>
</glyph>
<glyph name="LtnSmGlottalStop" format="2">
  <advance width="816"/>
  <unicode hex="0242"/>
  <anchor x="285" y="-100" name="L"/>
  <anchor x="605" y="1100" name="U"/>
  <outline>
    <contour>
      <point x="252" y="774" type="line"/>
      <point x="329" y="836"/>
      <point x="410" y="862"/>
      <point x="474" y="862" type="curve" smooth="yes"/>
      <point x="572" y="862"/>
      <point x="617" y="821"/>
      <point x="617" y="756" type="curve" smooth="yes"/>
      <point x="617" y="707"/>
      <point x="569" y="665"/>
      <point x="510" y="622" type="curve" smooth="yes"/>
      <point x="432" y="565"/>
      <point x="339" y="482"/>
      <point x="303" y="333" type="curve" smooth="yes"/>
      <point x="245" y="94"/>
      <point x="232" y="63"/>
      <point x="205" y="0" type="curve"/>
      <point x="415" y="0" type="line"/>
      <point x="418" y="63"/>
      <point x="426" y="97"/>
      <point x="481" y="324" type="curve" smooth="yes"/>
      <point x="507" y="433"/>
      <point x="586" y="496"/>
      <point x="660" y="551" type="curve" smooth="yes"/>
      <point x="743" y="612"/>
      <point x="811" y="686"/>
      <point x="811" y="797" type="curve" smooth="yes"/>
      <point x="811" y="900"/>
      <point x="697" y="1020"/>
      <point x="534" y="1020" type="curve" smooth="yes"/>
      <point x="424" y="1020"/>
      <point x="322" y="980"/>
      <point x="257" y="931" type="curve"/>
    </contour>
  </outline>
</glyph>
<glyph name="LtnCapSmQHookTail" format="2">
  <advance width="1433"/>
  <unicode hex="024A"/>
  <anchor x="615" y="-100" name="L"/>
  <anchor x="1021" y="1530" name="U"/>
  <outline>
    <contour>
      <point x="1468" y="-219" type="line"/>
      <point x="1430" y="-267"/>
      <point x="1355" y="-300"/>
      <point x="1301" y="-300" type="curve" smooth="yes"/>
      <point x="1213" y="-300"/>
      <point x="1185" y="-220"/>
      <point x="1185" y="-147" type="curve" smooth="yes"/>
      <point x="1185" y="30"/>
      <point x="1270" y="299"/>
      <point x="1523" y="1380" type="curve"/>
      <point x="1408" y="1427"/>
      <point x="1252" y="1455"/>
      <point x="1104" y="1455" type="curve" smooth="yes"/>
      <point x="645" y="1455"/>
      <point x="327" y="1086"/>
      <point x="216" y="641" type="curve" smooth="yes"/>
      <point x="195" y="555"/>
      <point x="185" y="475"/>
      <point x="185" y="402" type="curve" smooth="yes"/>
      <point x="185" y="140"/>
      <point x="311" y="-25"/>
      <point x="483" y="-25" type="curve" smooth="yes"/>
      <point x="699" y="-25"/>
      <point x="968" y="246"/>
      <point x="1121" y="464" type="curve"/>
      <point x="1042" y="181"/>
      <point x="994" y="-4"/>
      <point x="994" y="-151" type="curve" smooth="yes"/>
      <point x="994" y="-307"/>
      <point x="1084" y="-465"/>
      <point x="1248" y="-465" type="curve" smooth="yes"/>
      <point x="1328" y="-465"/>
      <point x="1421" y="-428"/>
      <point x="1453" y="-397" type="curve"/>
    </contour>
    <contour>
      <point x="1213" y="939" type="line" smooth="yes"/>
      <point x="1131" y="627"/>
      <point x="730" y="152"/>
      <point x="534" y="152" type="curve" smooth="yes"/>
      <point x="427" y="152"/>
      <point x="384" y="271"/>
      <point x="384" y="422" type="curve" smooth="yes"/>
      <point x="384" y="491"/>
      <point x="393" y="567"/>
      <point x="411" y="641" type="curve" smooth="yes"/>
      <point x="495" y="978"/>
      <point x="724" y="1280"/>
      <point x="1045" y="1280" type="curve" smooth="yes"/>
      <point x="1147" y="1280"/>
      <point x="1244" y="1258"/>
      <point x="1292" y="1238" type="curve"/>
    </contour>
  </outline>
</glyph>
<glyph name="LtnCapRBarredStem" format="2">
  <advance width="1375"/>
  <unicode hex="024C"/>
  <anchor x="582" y="-100" name="L"/>
  <anchor x="989" y="1530" name="U"/>
  <outline>
    <contour>
      <point x="547" y="613" type="line"/>
      <point x="802" y="613" type="line" smooth="yes"/>
      <point x="1100" y="613"/>
      <point x="1393" y="784"/>
      <point x="1393" y="1114" type="curve" smooth="yes"/>
      <point x="1393" y="1326"/>
      <point x="1204" y="1441"/>
      <point x="934" y="1441" type="curve" smooth="yes"/>
      <point x="763" y="1441"/>
      <point x="612" y="1435"/>
      <point x="546" y="1431" type="curve"/>
      <point x="542" y="1352"/>
      <point x="497" y="1172"/>
      <point x="449" y="980" type="curve" smooth="yes"/>
      <point x="311" y="426" type="line" smooth="yes"/>
      <point x="263" y="233"/>
      <point x="224" y="78"/>
      <point x="190" y="0" type="curve"/>
      <point x="410" y="0" type="line"/>
      <point x="414" y="76"/>
      <point x="453" y="233"/>
      <point x="501" y="426" type="curve" smooth="yes"/>
    </contour>
    <contour>
      <point x="713" y="1279" type="line"/>
      <point x="767" y="1282"/>
      <point x="815" y="1284"/>
      <point x="885" y="1284" type="curve" smooth="yes"/>
      <point x="1093" y="1284"/>
      <point x="1194" y="1203"/>
      <point x="1194" y="1076" type="curve" smooth="yes"/>
      <point x="1194" y="856"/>
      <point x="1011" y="764"/>
      <point x="775" y="764" type="curve" smooth="yes"/>
      <point x="585" y="764" type="line"/>
    </contour>
    <contour>
      <point x="1020" y="0" type="line"/>
      <point x="1275" y="0" type="line"/>
      <point x="1212" y="89"/>
      <point x="954" y="602"/>
      <point x="918" y="676" type="curve"/>
      <point x="746" y="622" type="line"/>
    </contour>
    <contour>
      <point x="92" y="612" type="line"/>
      <point x="467" y="612" type="line"/>
      <point x="505" y="764" type="line"/>
      <point x="130" y="764" type="line"/>
    </contour>
  </outline>
</glyph>
<glyph name="LtnCapYStrk" format="2">
  <advance width="1335"/>
  <unicode hex="024E"/>
  <anchor x="615" y="-100" name="L"/>
  <anchor x="950" y="1530" name="U"/>
  <outline>
    <contour>
      <point x="356" y="1431" type="line"/>
      <point x="430" y="1285"/>
      <point x="470" y="1173"/>
      <point x="515" y="1044" type="curve" smooth="yes"/>
      <point x="686" y="549" type="line"/>
      <point x="854" y="661" type="line"/>
      <point x="576" y="1431" type="line"/>
    </contour>
    <contour>
      <point x="1346" y="1431" type="line"/>
      <point x="709" y="661" type="line"/>
      <point x="821" y="549" type="line"/>
      <point x="1240" y="1044" type="line" smooth="yes"/>
      <point x="1347" y="1171"/>
      <point x="1427" y="1265"/>
      <point x="1586" y="1431" type="curve"/>
    </contour>
    <contour>
      <point x="725" y="0" type="line"/>
      <point x="730" y="78"/>
      <point x="768" y="233"/>
      <point x="816" y="426" type="curve" smooth="yes"/>
      <point x="879" y="681" type="line"/>
      <point x="689" y="681" type="line"/>
      <point x="626" y="426" type="line" smooth="yes"/>
      <point x="578" y="233"/>
      <point x="539" y="78"/>
      <point x="505" y="0" type="curve"/>
    </contour>
    <contour>
      <point x="203" y="1058" type="line"/>
      <point x="1558" y="1058" type="line"/>
      <point x="1593" y="1200" type="line"/>
      <point x="238" y="1200" type="line"/>
    </contour>
  </outline>
</glyph>
<glyph name="LtnSmTurnedAlpha" format="2">
  <advance width="1157"/>
  <unicode hex="0252"/>
  <anchor x="480" y="0" name="H"/>
  <anchor x="540" y="-100" name="L"/>
  <anchor x="700" y="0" name="O"/>
  <anchor x="1360" y="1000" name="R"/>
  <anchor x="805" y="1100" name="U"/>
  <outline>
    <contour>
      <point x="293" y="995" type="line"/>
      <point x="295" y="973"/>
      <point x="296" y="949"/>
      <point x="296" y="922" type="curve" smooth="yes"/>
      <point x="296" y="816"/>
      <point x="278" y="672"/>
      <point x="228" y="475" type="curve" smooth="yes"/>
      <point x="114" y="20" type="line"/>
      <point x="209" y="-6"/>
      <point x="349" y="-25"/>
      <point x="478" y="-25" type="curve" smooth="yes"/>
      <point x="909" y="-25"/>
      <point x="1176" y="347"/>
      <point x="1176" y="726" type="curve" smooth="yes"/>
      <point x="1176" y="906"/>
      <point x="1087" y="1019"/>
      <point x="949" y="1019" type="curve" smooth="yes"/>
      <point x="740" y="1019"/>
      <point x="527" y="757"/>
      <point x="398" y="534" type="curve"/>
      <point x="422" y="632" type="line"/>
      <point x="440" y="706"/>
      <point x="471" y="876"/>
      <point x="471" y="961" type="curve" smooth="yes"/>
      <point x="471" y="975"/>
      <point x="470" y="986"/>
      <point x="468" y="995" type="curve"/>
    </contour>
    <contour>
      <point x="348" y="216" type="line"/>
      <point x="383" y="355"/>
      <point x="711" y="853"/>
      <point x="887" y="853" type="curve" smooth="yes"/>
      <point x="950" y="853"/>
      <point x="982" y="775"/>
      <point x="982" y="675" type="curve" smooth="yes"/>
      <point x="982" y="369"/>
      <point x="768" y="132"/>
      <point x="532" y="132" type="curve" smooth="yes"/>
      <point x="432" y="132"/>
      <point x="364" y="145"/>
      <point x="332" y="152" type="curve"/>
    </contour>
  </outline>
</glyph>
<glyph name="LtnSmBHook" format="2">
  <advance width="1144"/>
  <unicode hex="0253"/>
  <anchor x="490" y="-100" name="L"/>
  <anchor x="923" y="1635" name="U"/>
  <outline>
    <contour>
      <point x="1192" y="1504" type="line"/>
      <point x="1148" y="1543"/>
      <point x="1046" y="1587"/>
      <point x="925" y="1587" type="curve" smooth="yes"/>
      <point x="661" y="1587"/>
      <point x="445" y="1415"/>
      <point x="367" y="1105" type="curve" smooth="yes"/>
      <point x="110" y="85" type="line"/>
      <point x="198" y="44"/>
      <point x="355" y="-25"/>
      <point x="517" y="-25" type="curve" smooth="yes"/>
      <point x="675" y="-25"/>
      <point x="795" y="24"/>
      <point x="907" y="125" type="curve" smooth="yes"/>
      <point x="1050" y="255"/>
      <point x="1162" y="466"/>
      <point x="1162" y="695" type="curve" smooth="yes"/>
      <point x="1162" y="930"/>
      <point x="1046" y="1020"/>
      <point x="907" y="1020" type="curve" smooth="yes"/>
      <point x="754" y="1020"/>
      <point x="582" y="878"/>
      <point x="454" y="719" type="curve"/>
      <point x="558" y="1133" type="line" smooth="yes"/>
      <point x="606" y="1326"/>
      <point x="741" y="1421"/>
      <point x="869" y="1421" type="curve" smooth="yes"/>
      <point x="966" y="1421"/>
      <point x="1039" y="1387"/>
      <point x="1074" y="1352" type="curve"/>
    </contour>
    <contour>
      <point x="382" y="429" type="line"/>
      <point x="485" y="617"/>
      <point x="708" y="850"/>
      <point x="822" y="850" type="curve" smooth="yes"/>
      <point x="913" y="850"/>
      <point x="972" y="784"/>
      <point x="972" y="635" type="curve" smooth="yes"/>
      <point x="972" y="469"/>
      <point x="909" y="336"/>
      <point x="822" y="250" type="curve" smooth="yes"/>
      <point x="741" y="169"/>
      <point x="638" y="125"/>
      <point x="552" y="125" type="curve" smooth="yes"/>
      <point x="466" y="125"/>
      <point x="376" y="167"/>
      <point x="325" y="200" type="curve"/>
    </contour>
  </outline>
</glyph>
<glyph name="LtnSmOpnO" format="2">
  <advance width="970"/>
  <unicode hex="0254"/>
  <anchor x="418" y="0" name="H"/>
  <anchor x="375" y="-100" name="L"/>
  <anchor x="630" y="0" name="O"/>
  <anchor x="1184" y="1000" name="R"/>
  <anchor x="675" y="1100" name="U"/>
  <outline>
    <contour>
      <point x="258" y="735" type="line"/>
      <point x="359" y="821"/>
      <point x="445" y="858"/>
      <point x="538" y="858" type="curve" smooth="yes"/>
      <point x="703" y="858"/>
      <point x="786" y="762"/>
      <point x="786" y="603" type="curve" smooth="yes"/>
      <point x="786" y="566"/>
      <point x="781" y="525"/>
      <point x="770" y="481" type="curve" smooth="yes"/>
      <point x="712" y="248"/>
      <point x="563" y="137"/>
      <point x="434" y="137" type="curve" smooth="yes"/>
      <point x="344" y="137"/>
      <point x="257" y="200"/>
      <point x="220" y="284" type="curve"/>
      <point x="75" y="162" type="line"/>
      <point x="126" y="65"/>
      <point x="251" y="-25"/>
      <point x="393" y="-25" type="curve" smooth="yes"/>
      <point x="666" y="-25"/>
      <point x="869" y="147"/>
      <point x="957" y="500" type="curve" smooth="yes"/>
      <point x="970" y="552"/>
      <point x="975" y="601"/>
      <point x="975" y="647" type="curve" smooth="yes"/>
      <point x="975" y="870"/>
      <point x="838" y="1020"/>
      <point x="609" y="1020" type="curve" smooth="yes"/>
      <point x="486" y="1020"/>
      <point x="364" y="981"/>
      <point x="267" y="911" type="curve"/>
    </contour>
  </outline>
</glyph>
<glyph name="LtnSmCCurl" format="2">
  <advance width="1030"/>
  <unicode hex="0255"/>
  <anchor x="454" y="-250" name="L"/>
  <anchor x="807" y="1100" name="U"/>
  <outline>
    <contour>
      <point x="1077" y="936" type="line"/>
      <point x="1016" y="985"/>
      <point x="902" y="1020"/>
      <point x="789" y="1020" type="curve" smooth="yes"/>
      <point x="420" y="1020"/>
      <point x="139" y="737"/>
      <point x="139" y="381" type="curve" smooth="yes"/>
      <point x="139" y="130"/>
      <point x="285" y="-25"/>
      <point x="553" y="-25" type="curve" smooth="yes"/>
      <point x="757" y="-25"/>
      <point x="965" y="91"/>
      <point x="965" y="301" type="curve" smooth="yes"/>
      <point x="965" y="403"/>
      <point x="885" y="495"/>
      <point x="748" y="495" type="curve" smooth="yes"/>
      <point x="539" y="495"/>
      <point x="386" y="355"/>
      <point x="323" y="102" type="curve" smooth="yes"/>
      <point x="306" y="35"/>
      <point x="301" y="-56"/>
      <point x="301" y="-139" type="curve" smooth="yes"/>
      <point x="301" y="-150"/>
      <point x="301" y="-161"/>
      <point x="302" y="-172" type="curve"/>
      <point x="407" y="-191" type="line"/>
      <point x="406" y="-177"/>
      <point x="406" y="-162"/>
      <point x="406" y="-148" type="curve" smooth="yes"/>
      <point x="406" y="-53"/>
      <point x="418" y="36"/>
      <point x="434" y="101" type="curve" smooth="yes"/>
      <point x="483" y="303"/>
      <point x="598" y="382"/>
      <point x="702" y="382" type="curve" smooth="yes"/>
      <point x="777" y="382"/>
      <point x="821" y="337"/>
      <point x="821" y="272" type="curve" smooth="yes"/>
      <point x="821" y="179"/>
      <point x="707" y="127"/>
      <point x="601" y="127" type="curve" smooth="yes"/>
      <point x="407" y="127"/>
      <point x="331" y="239"/>
      <point x="331" y="406" type="curve" smooth="yes"/>
      <point x="331" y="619"/>
      <point x="499" y="858"/>
      <point x="742" y="858" type="curve" smooth="yes"/>
      <point x="845" y="858"/>
      <point x="924" y="824"/>
      <point x="998" y="760" type="curve"/>
    </contour>
  </outline>
</glyph>
<glyph name="LtnSmRevE" format="2">
  <advance width="1043"/>
  <unicode hex="0258"/>
  <anchor x="445" y="-100" name="L"/>
  <anchor x="1245" y="1000" name="R"/>
  <anchor x="675" y="1100" name="U"/>
  <outline>
    <contour>
      <point x="458" y="-25" type="curve" smooth="yes"/>
      <point x="777" y="-25"/>
      <point x="1048" y="267"/>
      <point x="1048" y="651" type="curve" smooth="yes"/>
      <point x="1048" y="878"/>
      <point x="877" y="1020"/>
      <point x="654" y="1020" type="curve" smooth="yes"/>
      <point x="409" y="1020"/>
      <point x="234" y="887"/>
      <point x="234" y="705" type="curve" smooth="yes"/>
      <point x="234" y="553"/>
      <point x="357" y="453"/>
      <point x="572" y="453" type="curve" smooth="yes"/>
      <point x="641" y="453"/>
      <point x="745" y="460"/>
      <point x="887" y="487" type="curve"/>
      <point x="911" y="620" type="line"/>
      <point x="803" y="595"/>
      <point x="674" y="590"/>
      <point x="605" y="590" type="curve" smooth="yes"/>
      <point x="474" y="590"/>
      <point x="406" y="640"/>
      <point x="406" y="730" type="curve" smooth="yes"/>
      <point x="406" y="802"/>
      <point x="489" y="862"/>
      <point x="617" y="862" type="curve" smooth="yes"/>
      <point x="774" y="862"/>
      <point x="856" y="733"/>
      <point x="856" y="614" type="curve" smooth="yes"/>
      <point x="856" y="328"/>
      <point x="674" y="135"/>
      <point x="484" y="135" type="curve" smooth="yes"/>
      <point x="355" y="135"/>
      <point x="219" y="210"/>
      <point x="147" y="270" type="curve"/>
      <point x="85" y="104" type="line"/>
      <point x="156" y="34"/>
      <point x="314" y="-25"/>
    </contour>
  </outline>
</glyph>
<glyph name="LtnSmSchwaHook" format="2">
  <advance width="1488"/>
  <unicode hex="025A"/>
  <anchor x="536" y="0" name="H"/>
  <anchor x="540" y="-100" name="L"/>
  <anchor x="740" y="0" name="O"/>
  <anchor x="813" y="1100" name="U"/>
  <outline>
    <contour>
      <point x="235" y="725" type="line"/>
      <point x="348" y="806"/>
      <point x="492" y="860"/>
      <point x="625" y="860" type="curve" smooth="yes"/>
      <point x="806" y="860"/>
      <point x="885" y="732"/>
      <point x="885" y="575" type="curve" smooth="yes"/>
      <point x="885" y="309"/>
      <point x="690" y="123"/>
      <point x="492" y="123" type="curve" smooth="yes"/>
      <point x="399" y="123"/>
      <point x="319" y="172"/>
      <point x="319" y="242" type="curve" smooth="yes"/>
      <point x="319" y="335"/>
      <point x="432" y="368"/>
      <point x="652" y="465" type="curve" smooth="yes"/>
      <point x="851" y="553"/>
      <point x="1234" y="712"/>
      <point x="1325" y="745" type="curve"/>
      <point x="1314" y="883" type="line"/>
      <point x="1176" y="829"/>
      <point x="832" y="689"/>
      <point x="622" y="602" type="curve" smooth="yes"/>
      <point x="318" y="476"/>
      <point x="125" y="386"/>
      <point x="125" y="204" type="curve" smooth="yes"/>
      <point x="125" y="96"/>
      <point x="226" y="-25"/>
      <point x="440" y="-25" type="curve" smooth="yes"/>
      <point x="813" y="-25"/>
      <point x="1065" y="275"/>
      <point x="1065" y="605" type="curve" smooth="yes"/>
      <point x="1065" y="838"/>
      <point x="934" y="1020"/>
      <point x="669" y="1020" type="curve" smooth="yes"/>
      <point x="503" y="1020"/>
      <point x="353" y="969"/>
      <point x="247" y="912" type="curve"/>
    </contour>
    <contour>
      <point x="1543" y="702" type="line"/>
      <point x="1500" y="658"/>
      <point x="1440" y="624"/>
      <point x="1399" y="624" type="curve" smooth="yes"/>
      <point x="1350" y="624"/>
      <point x="1323" y="655"/>
      <point x="1323" y="700" type="curve" smooth="yes"/>
      <point x="1323" y="724"/>
      <point x="1336" y="757"/>
      <point x="1359" y="785" type="curve"/>
      <point x="1314" y="883" type="line"/>
      <point x="964" y="732" type="line"/>
      <point x="1014" y="629" type="line"/>
      <point x="1210" y="717" type="line"/>
      <point x="1206" y="698"/>
      <point x="1205" y="689"/>
      <point x="1205" y="671" type="curve" smooth="yes"/>
      <point x="1205" y="573"/>
      <point x="1261" y="506"/>
      <point x="1370" y="506" type="curve" smooth="yes"/>
      <point x="1447" y="506"/>
      <point x="1530" y="557"/>
      <point x="1592" y="614" type="curve"/>
    </contour>
  </outline>
</glyph>
<glyph name="LtnSmRevOpnE" format="2">
  <advance width="920"/>
  <unicode hex="025C"/>
  <anchor x="380" y="-100" name="L"/>
  <anchor x="680" y="1100" name="U"/>
  <outline>
    <contour>
      <point x="63" y="64" type="line"/>
      <point x="125" y="14"/>
      <point x="251" y="-25"/>
      <point x="393" y="-25" type="curve" smooth="yes"/>
      <point x="594" y="-25"/>
      <point x="825" y="74"/>
      <point x="825" y="285" type="curve" smooth="yes"/>
      <point x="825" y="362"/>
      <point x="789" y="444"/>
      <point x="690" y="495" type="curve"/>
      <point x="826" y="529"/>
      <point x="952" y="623"/>
      <point x="952" y="765" type="curve" smooth="yes"/>
      <point x="952" y="916"/>
      <point x="807" y="1019"/>
      <point x="634" y="1019" type="curve" smooth="yes"/>
      <point x="504" y="1019"/>
      <point x="403" y="994"/>
      <point x="299" y="931" type="curve"/>
      <point x="279" y="769" type="line"/>
      <point x="375" y="835"/>
      <point x="472" y="867"/>
      <point x="581" y="867" type="curve" smooth="yes"/>
      <point x="673" y="867"/>
      <point x="785" y="816"/>
      <point x="785" y="731" type="curve" smooth="yes"/>
      <point x="785" y="631"/>
      <point x="650" y="578"/>
      <point x="414" y="578" type="curve"/>
      <point x="379" y="441" type="line"/>
      <point x="538" y="441"/>
      <point x="639" y="365"/>
      <point x="639" y="272" type="curve" smooth="yes"/>
      <point x="639" y="159"/>
      <point x="514" y="122"/>
      <point x="425" y="122" type="curve" smooth="yes"/>
      <point x="329" y="122"/>
      <point x="219" y="165"/>
      <point x="139" y="230" type="curve"/>
    </contour>
  </outline>
</glyph>
<glyph name="LtnSmDotlessJStrk" format="2">
  <advance width="705"/>
  <unicode hex="025F"/>
  <anchor x="5" y="-500" name="L"/>
  <anchor x="815" y="1000" name="R"/>
  <anchor x="570" y="1100" name="U"/>
  <outline>
    <contour>
      <point x="440" y="1000" type="line"/>
      <point x="440" y="856"/>
      <point x="358" y="374"/>
      <point x="284" y="77" type="curve" smooth="yes"/>
      <point x="222" y="-173"/>
      <point x="99" y="-295"/>
      <point x="-7" y="-295" type="curve" smooth="yes"/>
      <point x="-63" y="-295"/>
      <point x="-147" y="-264"/>
      <point x="-183" y="-229" type="curve"/>
      <point x="-258" y="-397" type="line"/>
      <point x="-208" y="-437"/>
      <point x="-100" y="-465"/>
      <point x="-44" y="-465" type="curve" smooth="yes"/>
      <point x="173" y="-465"/>
      <point x="373" y="-314"/>
      <point x="466" y="66" type="curve" smooth="yes"/>
      <point x="525" y="307"/>
      <point x="630" y="872"/>
      <point x="630" y="1000" type="curve"/>
    </contour>
    <contour>
      <point x="105" y="465" type="line"/>
      <point x="730" y="465" type="line"/>
      <point x="766" y="608" type="line"/>
      <point x="141" y="608" type="line"/>
    </contour>
  </outline>
</glyph>
<glyph name="LtnSmGHook" format="2">
  <advance width="1228"/>
  <unicode hex="0260"/>
  <anchor x="422" y="-500" name="L"/>
  <anchor x="955" y="1635" name="U"/>
  <outline>
    <contour>
      <point x="394" y="-465" type="curve" smooth="yes"/>
      <point x="616" y="-465"/>
      <point x="880" y="-322"/>
      <point x="959" y="25" type="curve" smooth="yes"/>
      <point x="1177" y="987" type="line" smooth="yes"/>
      <point x="1226" y="1204"/>
      <point x="1285" y="1233"/>
      <point x="1338" y="1233" type="curve" smooth="yes"/>
      <point x="1386" y="1233"/>
      <point x="1427" y="1213"/>
      <point x="1469" y="1177" type="curve"/>
      <point x="1550" y="1332" type="line"/>
      <point x="1494" y="1374"/>
      <point x="1425" y="1400"/>
      <point x="1359" y="1400" type="curve" smooth="yes"/>
      <point x="1192" y="1400"/>
      <point x="1068" y="1293"/>
      <point x="997" y="998" type="curve"/>
      <point x="942" y="1011"/>
      <point x="881" y="1020"/>
      <point x="824" y="1020" type="curve" smooth="yes"/>
      <point x="672" y="1020"/>
      <point x="535" y="967"/>
      <point x="424" y="875" type="curve" smooth="yes"/>
      <point x="245" y="726"/>
      <point x="134" y="490"/>
      <point x="134" y="275" type="curve" smooth="yes"/>
      <point x="134" y="81"/>
      <point x="256" y="-5"/>
      <point x="390" y="-5" type="curve" smooth="yes"/>
      <point x="520" y="-5"/>
      <point x="695" y="119"/>
      <point x="837" y="300" type="curve"/>
      <point x="764" y="-10" type="line" smooth="yes"/>
      <point x="719" y="-200"/>
      <point x="528" y="-295"/>
      <point x="424" y="-295" type="curve" smooth="yes"/>
      <point x="325" y="-295"/>
      <point x="236" y="-257"/>
      <point x="159" y="-190" type="curve"/>
      <point x="59" y="-345" type="line"/>
      <point x="147" y="-416"/>
      <point x="267" y="-465"/>
    </contour>
    <contour>
      <point x="444" y="150" type="curve" smooth="yes"/>
      <point x="375" y="150"/>
      <point x="329" y="208"/>
      <point x="329" y="315" type="curve" smooth="yes"/>
      <point x="329" y="467"/>
      <point x="390" y="643"/>
      <point x="504" y="750" type="curve" smooth="yes"/>
      <point x="570" y="812"/>
      <point x="652" y="855"/>
      <point x="749" y="855" type="curve" smooth="yes"/>
      <point x="810" y="855"/>
      <point x="897" y="839"/>
      <point x="954" y="815" type="curve"/>
      <point x="893" y="555" type="line"/>
      <point x="793" y="367"/>
      <point x="530" y="150"/>
    </contour>
  </outline>
</glyph>
<glyph name="LtnSmCapG" format="2">
  <advance width="1172"/>
  <unicode hex="0262"/>
  <anchor x="573" y="-100" name="L"/>
  <anchor x="1392" y="1000" name="R"/>
  <anchor x="813" y="1100" name="U"/>
  <outline>
    <contour>
      <point x="1134" y="510" type="line"/>
      <point x="686" y="510" type="line"/>
      <point x="650" y="367" type="line"/>
      <point x="910" y="367" type="line"/>
      <point x="868" y="197" type="line"/>
      <point x="774" y="146"/>
      <point x="708" y="132"/>
      <point x="619" y="132" type="curve" smooth="yes"/>
      <point x="447" y="132"/>
      <point x="337" y="254"/>
      <point x="337" y="423" type="curve" smooth="yes"/>
      <point x="337" y="681"/>
      <point x="537" y="871"/>
      <point x="787" y="871" type="curve" smooth="yes"/>
      <point x="883" y="871"/>
      <point x="1006" y="844"/>
      <point x="1123" y="766" type="curve"/>
      <point x="1204" y="921" type="line"/>
      <point x="1088" y="991"/>
      <point x="958" y="1020"/>
      <point x="823" y="1020" type="curve" smooth="yes"/>
      <point x="444" y="1020"/>
      <point x="142" y="750"/>
      <point x="142" y="388" type="curve" smooth="yes"/>
      <point x="142" y="140"/>
      <point x="326" y="-17"/>
      <point x="592" y="-17" type="curve" smooth="yes"/>
      <point x="736" y="-17"/>
      <point x="858" y="18"/>
      <point x="1033" y="106" type="curve"/>
    </contour>
  </outline>
</glyph>
<glyph name="LtnSmTurnedH" format="2">
  <advance width="1150"/>
  <unicode hex="0265"/>
  <anchor x="425" y="-100" name="L"/>
  <anchor x="780" y="1100" name="U"/>
  <outline>
    <contour>
      <point x="275" y="1000" type="line"/>
      <point x="283" y="970"/>
      <point x="287" y="935"/>
      <point x="287" y="898" type="curve" smooth="yes"/>
      <point x="287" y="857"/>
      <point x="282" y="812"/>
      <point x="275" y="762" type="curve" smooth="yes"/>
      <point x="261" y="673"/>
      <point x="160" y="359"/>
      <point x="160" y="250" type="curve" smooth="yes"/>
      <point x="160" y="78"/>
      <point x="235" y="-25"/>
      <point x="400" y="-25" type="curve" smooth="yes"/>
      <point x="570" y="-25"/>
      <point x="739" y="118"/>
      <point x="855" y="272" type="curve"/>
      <point x="782" y="-15" type="line" smooth="yes"/>
      <point x="743" y="-169"/>
      <point x="708" y="-392"/>
      <point x="708" y="-480" type="curve"/>
      <point x="898" y="-480" type="line"/>
      <point x="898" y="-366"/>
      <point x="930" y="-167"/>
      <point x="968" y="-15" type="curve" smooth="yes"/>
      <point x="1220" y="1000" type="line"/>
      <point x="1035" y="1000" type="line"/>
      <point x="933" y="587" type="line"/>
      <point x="838" y="383"/>
      <point x="613" y="145"/>
      <point x="490" y="145" type="curve" smooth="yes"/>
      <point x="393" y="145"/>
      <point x="360" y="197"/>
      <point x="360" y="315" type="curve" smooth="yes"/>
      <point x="360" y="403"/>
      <point x="444" y="681"/>
      <point x="458" y="797" type="curve" smooth="yes"/>
      <point x="463" y="842"/>
      <point x="466" y="885"/>
      <point x="466" y="923" type="curve" smooth="yes"/>
      <point x="466" y="952"/>
      <point x="464" y="979"/>
      <point x="460" y="1000" type="curve"/>
    </contour>
  </outline>
</glyph>
<glyph name="LtnSmHHook" format="2">
  <advance width="1185"/>
  <unicode hex="0266"/>
  <anchor x="540" y="-100" name="L"/>
  <anchor x="955" y="1635" name="U"/>
  <outline>
    <contour>
      <point x="110" y="0" type="line"/>
      <point x="295" y="0" type="line"/>
      <point x="397" y="408" type="line"/>
      <point x="492" y="612"/>
      <point x="717" y="850"/>
      <point x="840" y="850" type="curve" smooth="yes"/>
      <point x="937" y="850"/>
      <point x="970" y="798"/>
      <point x="970" y="680" type="curve" smooth="yes"/>
      <point x="970" y="592"/>
      <point x="886" y="319"/>
      <point x="872" y="203" type="curve" smooth="yes"/>
      <point x="867" y="158"/>
      <point x="864" y="115"/>
      <point x="864" y="77" type="curve" smooth="yes"/>
      <point x="864" y="48"/>
      <point x="866" y="21"/>
      <point x="870" y="0" type="curve"/>
      <point x="1055" y="0" type="line"/>
      <point x="1047" y="30"/>
      <point x="1043" y="65"/>
      <point x="1043" y="102" type="curve" smooth="yes"/>
      <point x="1043" y="143"/>
      <point x="1048" y="188"/>
      <point x="1055" y="238" type="curve" smooth="yes"/>
      <point x="1069" y="327"/>
      <point x="1170" y="636"/>
      <point x="1170" y="745" type="curve" smooth="yes"/>
      <point x="1170" y="917"/>
      <point x="1095" y="1020"/>
      <point x="930" y="1020" type="curve" smooth="yes"/>
      <point x="760" y="1020"/>
      <point x="589" y="877"/>
      <point x="473" y="723" type="curve"/>
      <point x="576" y="1133" type="line" smooth="yes"/>
      <point x="624" y="1326"/>
      <point x="759" y="1421"/>
      <point x="887" y="1421" type="curve" smooth="yes"/>
      <point x="984" y="1421"/>
      <point x="1057" y="1387"/>
      <point x="1092" y="1352" type="curve"/>
      <point x="1210" y="1504" type="line"/>
      <point x="1166" y="1543"/>
      <point x="1064" y="1587"/>
      <point x="943" y="1587" type="curve" smooth="yes"/>
      <point x="679" y="1587"/>
      <point x="462" y="1415"/>
      <point x="385" y="1105" type="curve" smooth="yes"/>
    </contour>
  </outline>
</glyph>
<glyph name="LtnSmCapI" format="2">
  <advance width="820"/>
  <unicode hex="026A"/>
  <anchor x="360" y="0" name="H"/>
  <anchor x="360" y="-100" name="L"/>
  <anchor x="515" y="0" name="O"/>
  <anchor x="845" y="890" name="R"/>
  <anchor x="632" y="1091" name="U"/>
  <outline>
    <contour>
      <point x="334" y="1000" type="line"/>
      <point x="302" y="871" type="line"/>
      <point x="487" y="871" type="line"/>
      <point x="301" y="128" type="line"/>
      <point x="116" y="128" type="line"/>
      <point x="85" y="0" type="line"/>
      <point x="645" y="0" type="line"/>
      <point x="676" y="128" type="line"/>
      <point x="488" y="128" type="line"/>
      <point x="674" y="871" type="line"/>
      <point x="862" y="871" type="line"/>
      <point x="894" y="1000" type="line"/>
    </contour>
  </outline>
</glyph>
<glyph name="LtnSmLBelt" format="2">
  <advance width="810"/>
  <unicode hex="026C"/>
  <anchor x="420" y="-100" name="L"/>
  <anchor x="755" y="1635" name="U"/>
  <outline>
    <contour>
      <point x="625" y="1570" type="line"/>
      <point x="625" y="1456"/>
      <point x="594" y="1259"/>
      <point x="556" y="1107" type="curve" smooth="yes"/>
      <point x="401" y="489" type="line" smooth="yes"/>
      <point x="364" y="343"/>
      <point x="346" y="220"/>
      <point x="346" y="104" type="curve" smooth="yes"/>
      <point x="346" y="69"/>
      <point x="348" y="34"/>
      <point x="351" y="0" type="curve"/>
      <point x="551" y="0" type="line"/>
      <point x="546" y="32"/>
      <point x="544" y="70"/>
      <point x="544" y="112" type="curve" smooth="yes"/>
      <point x="544" y="230"/>
      <point x="562" y="380"/>
      <point x="596" y="517" type="curve" smooth="yes"/>
      <point x="740" y="1105" type="line" smooth="yes"/>
      <point x="783" y="1280"/>
      <point x="815" y="1482"/>
      <point x="815" y="1570" type="curve"/>
    </contour>
    <contour>
      <point x="649" y="1000" type="line"/>
      <point x="601" y="1058"/>
      <point x="495" y="1079"/>
      <point x="428" y="1079" type="curve" smooth="yes"/>
      <point x="257" y="1079"/>
      <point x="151" y="948"/>
      <point x="151" y="797" type="curve" smooth="yes"/>
      <point x="151" y="650"/>
      <point x="293" y="554"/>
      <point x="458" y="554" type="curve" smooth="yes"/>
      <point x="612" y="554"/>
      <point x="780" y="612"/>
      <point x="923" y="735" type="curve"/>
      <point x="915" y="843" type="line"/>
      <point x="758" y="710"/>
      <point x="602" y="657"/>
      <point x="483" y="657" type="curve" smooth="yes"/>
      <point x="362" y="657"/>
      <point x="262" y="722"/>
      <point x="262" y="817" type="curve" smooth="yes"/>
      <point x="262" y="909"/>
      <point x="330" y="976"/>
      <point x="426" y="976" type="curve" smooth="yes"/>
      <point x="456" y="976"/>
      <point x="495" y="966"/>
      <point x="520" y="946" type="curve"/>
    </contour>
  </outline>
</glyph>
<glyph name="LtnSmLezh" format="2">
  <advance width="1265"/>
  <unicode hex="026E"/>
  <anchor x="565" y="-500" name="L"/>
  <anchor x="1025" y="1635" name="U"/>
  <outline>
    <contour>
      <point x="470" y="1570" type="line"/>
      <point x="470" y="1456"/>
      <point x="439" y="1259"/>
      <point x="401" y="1107" type="curve" smooth="yes"/>
      <point x="246" y="489" type="line" smooth="yes"/>
      <point x="209" y="343"/>
      <point x="191" y="220"/>
      <point x="191" y="104" type="curve" smooth="yes"/>
      <point x="191" y="69"/>
      <point x="193" y="34"/>
      <point x="196" y="0" type="curve"/>
      <point x="396" y="0" type="line"/>
      <point x="391" y="32"/>
      <point x="389" y="70"/>
      <point x="389" y="112" type="curve" smooth="yes"/>
      <point x="389" y="230"/>
      <point x="407" y="380"/>
      <point x="441" y="517" type="curve" smooth="yes"/>
      <point x="585" y="1105" type="line" smooth="yes"/>
      <point x="628" y="1280"/>
      <point x="660" y="1482"/>
      <point x="660" y="1570" type="curve"/>
    </contour>
    <contour>
      <point x="558" y="1000" type="line"/>
      <point x="517" y="838" type="line"/>
      <point x="558" y="853"/>
      <point x="617" y="853"/>
      <point x="676" y="853" type="curve" smooth="yes"/>
      <point x="1086" y="853" type="line"/>
      <point x="540" y="368" type="line"/>
      <point x="511" y="250" type="line"/>
      <point x="568" y="258"/>
      <point x="628" y="260"/>
      <point x="673" y="260" type="curve" smooth="yes"/>
      <point x="917" y="260"/>
      <point x="992" y="149"/>
      <point x="992" y="34" type="curve" smooth="yes"/>
      <point x="992" y="-156"/>
      <point x="818" y="-295"/>
      <point x="624" y="-295" type="curve" smooth="yes"/>
      <point x="484" y="-295"/>
      <point x="340" y="-225"/>
      <point x="251" y="-142" type="curve"/>
      <point x="204" y="-333" type="line"/>
      <point x="272" y="-398"/>
      <point x="454" y="-465"/>
      <point x="584" y="-465" type="curve" smooth="yes"/>
      <point x="892" y="-465"/>
      <point x="1176" y="-244"/>
      <point x="1176" y="57" type="curve" smooth="yes"/>
      <point x="1176" y="268"/>
      <point x="1028" y="407"/>
      <point x="775" y="407" type="curve"/>
      <point x="1325" y="887" type="line"/>
      <point x="1353" y="1000" type="line"/>
    </contour>
  </outline>
</glyph>
<glyph name="LtnSmTurnedM" format="2">
  <advance width="1665"/>
  <unicode hex="026F"/>
  <anchor x="772" y="-100" name="L"/>
  <anchor x="1875" y="1000" name="R"/>
  <anchor x="1035" y="1100" name="U"/>
  <outline>
    <contour>
      <point x="302" y="1000" type="line"/>
      <point x="310" y="970"/>
      <point x="312" y="935"/>
      <point x="312" y="898" type="curve" smooth="yes"/>
      <point x="312" y="857"/>
      <point x="307" y="812"/>
      <point x="300" y="762" type="curve" smooth="yes"/>
      <point x="286" y="673"/>
      <point x="167" y="304"/>
      <point x="167" y="195" type="curve" smooth="yes"/>
      <point x="167" y="65"/>
      <point x="228" y="-25"/>
      <point x="377" y="-25" type="curve" smooth="yes"/>
      <point x="530" y="-25"/>
      <point x="698" y="128"/>
      <point x="796" y="315" type="curve"/>
      <point x="792" y="291"/>
      <point x="777" y="217"/>
      <point x="777" y="195" type="curve" smooth="yes"/>
      <point x="777" y="63"/>
      <point x="840" y="-25"/>
      <point x="962" y="-25" type="curve" smooth="yes"/>
      <point x="1105" y="-25"/>
      <point x="1259" y="116"/>
      <point x="1376" y="315" type="curve"/>
      <point x="1356" y="242"/>
      <point x="1346" y="120"/>
      <point x="1346" y="39" type="curve" smooth="yes"/>
      <point x="1346" y="24"/>
      <point x="1346" y="11"/>
      <point x="1347" y="0" type="curve"/>
      <point x="1527" y="0" type="line"/>
      <point x="1526" y="17"/>
      <point x="1526" y="36"/>
      <point x="1526" y="55" type="curve" smooth="yes"/>
      <point x="1526" y="175"/>
      <point x="1539" y="315"/>
      <point x="1560" y="400" type="curve" smooth="yes"/>
      <point x="1707" y="1000" type="line"/>
      <point x="1522" y="1000" type="line"/>
      <point x="1433" y="636" type="line"/>
      <point x="1347" y="422"/>
      <point x="1137" y="145"/>
      <point x="1047" y="145" type="curve" smooth="yes"/>
      <point x="989" y="145"/>
      <point x="957" y="182"/>
      <point x="957" y="275" type="curve" smooth="yes"/>
      <point x="957" y="316"/>
      <point x="976" y="412"/>
      <point x="1000" y="509" type="curve" smooth="yes"/>
      <point x="1122" y="1000" type="line"/>
      <point x="937" y="1000" type="line"/>
      <point x="848" y="636" type="line"/>
      <point x="790" y="464"/>
      <point x="580" y="145"/>
      <point x="465" y="145" type="curve" smooth="yes"/>
      <point x="397" y="145"/>
      <point x="365" y="182"/>
      <point x="365" y="275" type="curve" smooth="yes"/>
      <point x="365" y="363"/>
      <point x="473" y="681"/>
      <point x="487" y="797" type="curve" smooth="yes"/>
      <point x="492" y="842"/>
      <point x="495" y="885"/>
      <point x="495" y="923" type="curve" smooth="yes"/>
      <point x="495" y="952"/>
      <point x="491" y="979"/>
      <point x="487" y="1000" type="curve"/>
    </contour>
  </outline>
</glyph>
<glyph name="LtnSmMHook" format="2">
  <advance width="1665"/>
  <unicode hex="0271"/>
  <anchor x="485" y="-100" name="L"/>
  <anchor x="1080" y="1100" name="U"/>
  <outline>
    <contour>
      <point x="772" y="-397" type="line"/>
      <point x="822" y="-437"/>
      <point x="930" y="-465"/>
      <point x="986" y="-465" type="curve" smooth="yes"/>
      <point x="1193" y="-465"/>
      <point x="1402" y="-314"/>
      <point x="1496" y="66" type="curve" smooth="yes"/>
      <point x="1517" y="150"/>
      <point x="1635" y="636"/>
      <point x="1635" y="745" type="curve" smooth="yes"/>
      <point x="1635" y="917"/>
      <point x="1600" y="1020"/>
      <point x="1435" y="1020" type="curve" smooth="yes"/>
      <point x="1282" y="1020"/>
      <point x="1124" y="867"/>
      <point x="1026" y="680" type="curve"/>
      <point x="1030" y="704"/>
      <point x="1045" y="778"/>
      <point x="1045" y="800" type="curve" smooth="yes"/>
      <point x="1045" y="932"/>
      <point x="982" y="1020"/>
      <point x="860" y="1020" type="curve" smooth="yes"/>
      <point x="717" y="1020"/>
      <point x="563" y="879"/>
      <point x="446" y="680" type="curve"/>
      <point x="466" y="753"/>
      <point x="476" y="880"/>
      <point x="476" y="961" type="curve" smooth="yes"/>
      <point x="476" y="976"/>
      <point x="476" y="989"/>
      <point x="475" y="1000" type="curve"/>
      <point x="295" y="1000" type="line"/>
      <point x="296" y="983"/>
      <point x="296" y="964"/>
      <point x="296" y="945" type="curve" smooth="yes"/>
      <point x="296" y="825"/>
      <point x="283" y="680"/>
      <point x="262" y="595" type="curve" smooth="yes"/>
      <point x="115" y="0" type="line"/>
      <point x="300" y="0" type="line"/>
      <point x="389" y="359" type="line"/>
      <point x="475" y="573"/>
      <point x="685" y="850"/>
      <point x="775" y="850" type="curve" smooth="yes"/>
      <point x="833" y="850"/>
      <point x="865" y="813"/>
      <point x="865" y="720" type="curve" smooth="yes"/>
      <point x="865" y="679"/>
      <point x="846" y="583"/>
      <point x="822" y="486" type="curve" smooth="yes"/>
      <point x="700" y="0" type="line"/>
      <point x="885" y="0" type="line"/>
      <point x="974" y="359" type="line"/>
      <point x="1032" y="531"/>
      <point x="1232" y="850"/>
      <point x="1347" y="850" type="curve" smooth="yes"/>
      <point x="1409" y="850"/>
      <point x="1437" y="808"/>
      <point x="1437" y="720" type="curve" smooth="yes"/>
      <point x="1437" y="602"/>
      <point x="1347" y="187"/>
      <point x="1319" y="77" type="curve" smooth="yes"/>
      <point x="1257" y="-173"/>
      <point x="1134" y="-295"/>
      <point x="1028" y="-295" type="curve" smooth="yes"/>
      <point x="967" y="-295"/>
      <point x="883" y="-264"/>
      <point x="847" y="-229" type="curve"/>
    </contour>
  </outline>
</glyph>
<glyph name="LtnSmNRetrHook" format="2">
  <advance width="1195"/>
  <unicode hex="0273"/>
  <anchor x="495" y="-100" name="L"/>
  <anchor x="815" y="1100" name="U"/>
  <outline>
    <contour>
      <point x="1030" y="-461" type="curve" smooth="yes"/>
      <point x="1100" y="-461"/>
      <point x="1183" y="-431"/>
      <point x="1230" y="-397" type="curve"/>
      <point x="1238" y="-235" type="line"/>
      <point x="1211" y="-256"/>
      <point x="1139" y="-289"/>
      <point x="1097" y="-289" type="curve" smooth="yes"/>
      <point x="1024" y="-289"/>
      <point x="983" y="-238"/>
      <point x="983" y="-158" type="curve" smooth="yes"/>
      <point x="983" y="7"/>
      <point x="1175" y="571"/>
      <point x="1175" y="745" type="curve" smooth="yes"/>
      <point x="1175" y="917"/>
      <point x="1100" y="1020"/>
      <point x="935" y="1020" type="curve" smooth="yes"/>
      <point x="755" y="1020"/>
      <point x="581" y="870"/>
      <point x="445" y="672" type="curve"/>
      <point x="463" y="740"/>
      <point x="477" y="873"/>
      <point x="477" y="957" type="curve" smooth="yes"/>
      <point x="477" y="973"/>
      <point x="476" y="988"/>
      <point x="475" y="1000" type="curve"/>
      <point x="294" y="1000" type="line"/>
      <point x="294" y="961" type="line" smooth="yes"/>
      <point x="294" y="833"/>
      <point x="283" y="679"/>
      <point x="262" y="595" type="curve" smooth="yes"/>
      <point x="115" y="0" type="line"/>
      <point x="300" y="0" type="line"/>
      <point x="392" y="370" type="line"/>
      <point x="478" y="573"/>
      <point x="708" y="850"/>
      <point x="835" y="850" type="curve" smooth="yes"/>
      <point x="927" y="850"/>
      <point x="975" y="798"/>
      <point x="975" y="680" type="curve" smooth="yes"/>
      <point x="975" y="509"/>
      <point x="793" y="-18"/>
      <point x="793" y="-214" type="curve" smooth="yes"/>
      <point x="793" y="-355"/>
      <point x="902" y="-461"/>
    </contour>
  </outline>
</glyph>
<glyph name="LtnSmCapOe" format="2">
  <advance width="1650"/>
  <unicode hex="0276"/>
  <anchor x="761" y="-100" name="L"/>
  <anchor x="1795" y="1000" name="R"/>
  <anchor x="1061" y="1100" name="U"/>
  <outline>
    <contour>
      <point x="1475" y="0" type="line"/>
      <point x="1513" y="153" type="line"/>
      <point x="1443" y="143"/>
      <point x="1332" y="142"/>
      <point x="1168" y="142" type="curve" smooth="yes"/>
      <point x="1032" y="142" type="line"/>
      <point x="1110" y="455" type="line"/>
      <point x="1500" y="455" type="line"/>
      <point x="1534" y="593" type="line"/>
      <point x="1144" y="593" type="line"/>
      <point x="1210" y="857" type="line"/>
      <point x="1663" y="857" type="line"/>
      <point x="1699" y="1000" type="line"/>
      <point x="1085" y="1000" type="line"/>
      <point x="1047" y="847" type="line"/>
      <point x="993" y="942"/>
      <point x="887" y="1016"/>
      <point x="742" y="1016" type="curve" smooth="yes"/>
      <point x="382" y="1016"/>
      <point x="147" y="710"/>
      <point x="147" y="382" type="curve" smooth="yes"/>
      <point x="147" y="139"/>
      <point x="310" y="-17"/>
      <point x="527" y="-17" type="curve" smooth="yes"/>
      <point x="626" y="-17"/>
      <point x="808" y="35"/>
      <point x="871" y="141" type="curve"/>
      <point x="836" y="0" type="line"/>
    </contour>
    <contour>
      <point x="562" y="132" type="curve" smooth="yes"/>
      <point x="427" y="132"/>
      <point x="343" y="253"/>
      <point x="343" y="415" type="curve" smooth="yes"/>
      <point x="343" y="636"/>
      <point x="494" y="867"/>
      <point x="726" y="867" type="curve" smooth="yes"/>
      <point x="868" y="867"/>
      <point x="948" y="744"/>
      <point x="948" y="583" type="curve" smooth="yes"/>
      <point x="948" y="348"/>
      <point x="807" y="132"/>
    </contour>
  </outline>
</glyph>
<glyph name="LtnSmClosedOmega" format="2">
  <advance width="1480"/>
  <unicode hex="0277"/>
  <anchor x="700" y="-100" name="L"/>
  <anchor x="1615" y="1000" name="R"/>
  <anchor x="965" y="1100" name="U"/>
  <outline>
    <contour>
      <point x="771" y="686" type="line"/>
      <point x="678" y="304"/>
      <point x="557" y="132"/>
      <point x="447" y="132" type="curve" smooth="yes"/>
      <point x="371" y="132"/>
      <point x="313" y="196"/>
      <point x="313" y="317" type="curve" smooth="yes"/>
      <point x="313" y="639"/>
      <point x="556" y="862"/>
      <point x="894" y="862" type="curve" smooth="yes"/>
      <point x="1137" y="862"/>
      <point x="1273" y="714"/>
      <point x="1273" y="519" type="curve" smooth="yes"/>
      <point x="1273" y="302"/>
      <point x="1157" y="132"/>
      <point x="1037" y="132" type="curve" smooth="yes"/>
      <point x="949" y="132"/>
      <point x="900" y="205"/>
      <point x="900" y="352" type="curve" smooth="yes"/>
      <point x="900" y="438"/>
      <point x="917" y="549"/>
      <point x="951" y="686" type="curve"/>
    </contour>
    <contour>
      <point x="1458" y="529" type="curve" smooth="yes"/>
      <point x="1458" y="807"/>
      <point x="1241" y="1019"/>
      <point x="914" y="1019" type="curve" smooth="yes"/>
      <point x="472" y="1019"/>
      <point x="127" y="686"/>
      <point x="127" y="286" type="curve" smooth="yes"/>
      <point x="127" y="85"/>
      <point x="238" y="-25"/>
      <point x="388" y="-25" type="curve" smooth="yes"/>
      <point x="538" y="-25"/>
      <point x="649" y="39"/>
      <point x="759" y="240" type="curve"/>
      <point x="779" y="39"/>
      <point x="878" y="-25"/>
      <point x="1018" y="-25" type="curve" smooth="yes"/>
      <point x="1305" y="-25"/>
      <point x="1458" y="278"/>
    </contour>
  </outline>
</glyph>
<glyph name="LtnSmPhi" format="2">
  <advance width="1220"/>
  <unicode hex="0278"/>
  <anchor x="500" y="-535" name="L"/>
  <anchor x="910" y="1530" name="U"/>
  <outline>
    <contour>
      <point x="780" y="1430" type="line"/>
      <point x="780" y="1328"/>
      <point x="755" y="1159"/>
      <point x="722" y="1015" type="curve"/>
      <point x="420" y="985"/>
      <point x="148" y="767"/>
      <point x="148" y="383" type="curve" smooth="yes"/>
      <point x="148" y="167"/>
      <point x="276" y="23"/>
      <point x="466" y="-15" type="curve"/>
      <point x="433" y="-150"/>
      <point x="417" y="-266"/>
      <point x="417" y="-376" type="curve" smooth="yes"/>
      <point x="417" y="-411"/>
      <point x="419" y="-446"/>
      <point x="422" y="-480" type="curve"/>
      <point x="622" y="-480" type="line"/>
      <point x="617" y="-448"/>
      <point x="615" y="-410"/>
      <point x="615" y="-368" type="curve" smooth="yes"/>
      <point x="615" y="-266"/>
      <point x="628" y="-141"/>
      <point x="653" y="-21" type="curve"/>
      <point x="994" y="14"/>
      <point x="1219" y="272"/>
      <point x="1219" y="607" type="curve" smooth="yes"/>
      <point x="1219" y="822"/>
      <point x="1093" y="967"/>
      <point x="905" y="1007" type="curve"/>
      <point x="943" y="1171"/>
      <point x="970" y="1349"/>
      <point x="970" y="1430" type="curve"/>
    </contour>
    <contour>
      <point x="505" y="143" type="line"/>
      <point x="404" y="184"/>
      <point x="336" y="280"/>
      <point x="336" y="416" type="curve" smooth="yes"/>
      <point x="336" y="675"/>
      <point x="499" y="837"/>
      <point x="686" y="867" type="curve"/>
    </contour>
    <contour>
      <point x="866" y="848" type="line"/>
      <point x="964" y="805"/>
      <point x="1030" y="709"/>
      <point x="1030" y="575" type="curve" smooth="yes"/>
      <point x="1030" y="321"/>
      <point x="872" y="160"/>
      <point x="689" y="128" type="curve"/>
    </contour>
  </outline>
</glyph>
<glyph name="LtnSmRLngLeg" format="2">
  <advance width="890"/>
  <unicode hex="027C"/>
  <anchor x="85" y="-500" name="L"/>
  <anchor x="700" y="1100" name="U"/>
  <outline>
    <contour>
      <point x="176" y="-480" type="line"/>
      <point x="402" y="415" type="line"/>
      <point x="502" y="602"/>
      <point x="703" y="850"/>
      <point x="785" y="850" type="curve" smooth="yes"/>
      <point x="831" y="850"/>
      <point x="855" y="801"/>
      <point x="855" y="740" type="curve" smooth="yes"/>
      <point x="855" y="715"/>
      <point x="852" y="689"/>
      <point x="845" y="660" type="curve"/>
      <point x="1010" y="690" type="line"/>
      <point x="1022" y="737"/>
      <point x="1030" y="783"/>
      <point x="1030" y="825" type="curve" smooth="yes"/>
      <point x="1030" y="935"/>
      <point x="986" y="1020"/>
      <point x="865" y="1020" type="curve" smooth="yes"/>
      <point x="735" y="1020"/>
      <point x="575" y="867"/>
      <point x="445" y="675" type="curve"/>
      <point x="467" y="773"/>
      <point x="475" y="929"/>
      <point x="475" y="1000" type="curve"/>
      <point x="295" y="1000" type="line"/>
      <point x="295" y="961" type="line" smooth="yes"/>
      <point x="295" y="833"/>
      <point x="283" y="679"/>
      <point x="262" y="595" type="curve" smooth="yes"/>
      <point x="-9" y="-480" type="line"/>
    </contour>
  </outline>
</glyph>
